%TF.GenerationSoftware,KiCad,Pcbnew,10.0.6*%
%TF.CreationDate,2026-10-06T19:06:46-03:00*%
%TF.ProjectId,inkBT,696e6b42-542e-46b6-9963-61645f706362,rev?*%
%TF.SameCoordinates,Original*%
%TF.FileFunction,Profile,NP*%
%FSLAX46Y46*%
G04 Gerber Fmt 4.6, Leading zero omitted, Abs format (unit mm)*
G04 Created by KiCad (PCBNEW 10.0.6) date 2026-10-06 19:06:46*
%MOMM*%
%LPD*%
G01*
G04 APERTURE LIST*
%TA.AperFunction,Profile*%
%ADD10C,0.200000*%
%TD*%
G04 APERTURE END LIST*
D10*
X129756451Y-51436000D02*
X130071453Y-51436000D01*
X130351458Y-51436000D01*
X130602447Y-51436000D01*
X130831451Y-51436000D01*
X131040447Y-51437000D01*
X131234454Y-51437000D01*
X131414446Y-51437000D01*
X131582452Y-51438000D01*
X131739446Y-51438000D01*
X131888458Y-51439000D01*
X132028448Y-51439000D01*
X132162457Y-51439000D01*
X132288458Y-51440000D01*
X132409454Y-51440000D01*
X132524456Y-51441000D01*
X132635455Y-51441000D01*
X132741448Y-51442000D01*
X132843450Y-51443000D01*
X132940447Y-51443000D01*
X133035455Y-51444000D01*
X133126458Y-51445000D01*
X133214446Y-51445000D01*
X133299456Y-51446000D01*
X133382452Y-51447000D01*
X133462457Y-51447000D01*
X133539446Y-51448000D01*
X133615447Y-51449000D01*
X133688458Y-51450000D01*
X133759454Y-51451000D01*
X133829449Y-51452000D01*
X133896453Y-51453000D01*
X133962457Y-51454000D01*
X134026458Y-51455000D01*
X134089446Y-51456000D01*
X134150457Y-51457000D01*
X134210455Y-51458000D01*
X134269451Y-51459000D01*
X134326458Y-51460000D01*
X134382452Y-51461000D01*
X134437457Y-51462000D01*
X134490447Y-51463000D01*
X134543450Y-51464000D01*
X134595452Y-51466000D01*
X134645452Y-51467000D01*
X134695452Y-51468000D01*
X134743450Y-51469000D01*
X134791448Y-51471000D01*
X134838458Y-51472000D01*
X134884454Y-51473000D01*
X134929449Y-51475000D01*
X134974456Y-51476000D01*
X135018450Y-51478000D01*
X135060455Y-51479000D01*
X135103448Y-51481000D01*
X135144451Y-51482000D01*
X135185455Y-51484000D01*
X135226458Y-51485000D01*
X135265447Y-51487000D01*
X135304449Y-51489000D01*
X135343450Y-51490000D01*
X135380450Y-51492000D01*
X135418450Y-51494000D01*
X135455450Y-51495000D01*
X135491448Y-51497000D01*
X135526458Y-51499000D01*
X135562457Y-51501000D01*
X135596453Y-51503000D01*
X135631451Y-51504000D01*
X135664446Y-51506000D01*
X135698455Y-51508000D01*
X135731451Y-51510000D01*
X135763458Y-51512000D01*
X135795452Y-51514000D01*
X135827447Y-51516000D01*
X135858453Y-51518000D01*
X135889446Y-51520000D01*
X135919451Y-51522000D01*
X135949456Y-51525000D01*
X135979449Y-51527000D01*
X136008453Y-51529000D01*
X136037457Y-51531000D01*
X136066448Y-51533000D01*
X136094451Y-51536000D01*
X136122454Y-51538000D01*
X136150457Y-51540000D01*
X136177447Y-51543000D01*
X136204449Y-51545000D01*
X136231451Y-51548000D01*
X136257452Y-51550000D01*
X136283453Y-51553000D01*
X136309454Y-51555000D01*
X136334454Y-51558000D01*
X136360455Y-51560000D01*
X136385455Y-51563000D01*
X136409454Y-51565000D01*
X136434454Y-51568000D01*
X136458453Y-51571000D01*
X136482452Y-51573000D01*
X136505450Y-51576000D01*
X136529449Y-51579000D01*
X136552447Y-51582000D01*
X136575457Y-51585000D01*
X136598455Y-51587000D01*
X136620452Y-51590000D01*
X136642449Y-51593000D01*
X136664446Y-51596000D01*
X136686456Y-51599000D01*
X136708453Y-51602000D01*
X136729449Y-51605000D01*
X136750457Y-51608000D01*
X136771453Y-51611000D01*
X136792449Y-51615000D01*
X136812457Y-51618000D01*
X136833453Y-51621000D01*
X136853448Y-51624000D01*
X136873455Y-51627000D01*
X136893450Y-51631000D01*
X136912457Y-51634000D01*
X136932452Y-51637000D01*
X136951458Y-51641000D01*
X136970452Y-51644000D01*
X136989446Y-51648000D01*
X137007452Y-51651000D01*
X137026458Y-51655000D01*
X137044451Y-51658000D01*
X137062457Y-51662000D01*
X137080450Y-51666000D01*
X137098455Y-51669000D01*
X137116448Y-51673000D01*
X137133453Y-51677000D01*
X137151458Y-51680000D01*
X137168450Y-51684000D01*
X137185455Y-51688000D01*
X137202447Y-51692000D01*
X137219451Y-51696000D01*
X137235455Y-51700000D01*
X137252447Y-51704000D01*
X137268450Y-51708000D01*
X137284454Y-51712000D01*
X137300457Y-51716000D01*
X137316448Y-51720000D01*
X137332452Y-51724000D01*
X137347454Y-51728000D01*
X137363458Y-51733000D01*
X137378448Y-51737000D01*
X137393450Y-51741000D01*
X137408453Y-51746000D01*
X137423455Y-51750000D01*
X137438458Y-51754000D01*
X137453448Y-51759000D01*
X137467449Y-51763000D01*
X137482452Y-51768000D01*
X137496453Y-51773000D01*
X137510455Y-51777000D01*
X137524456Y-51782000D01*
X137538458Y-51787000D01*
X137552447Y-51791000D01*
X137566448Y-51796000D01*
X137579449Y-51801000D01*
X137593450Y-51806000D01*
X137606451Y-51811000D01*
X137619451Y-51816000D01*
X137633453Y-51821000D01*
X137646453Y-51826000D01*
X137659454Y-51831000D01*
X137671453Y-51836000D01*
X137684454Y-51841000D01*
X137697454Y-51846000D01*
X137709454Y-51852000D01*
X137721453Y-51857000D01*
X137734454Y-51862000D01*
X137746453Y-51868000D01*
X137758453Y-51873000D01*
X137770452Y-51879000D01*
X137782452Y-51884000D01*
X137794451Y-51890000D01*
X137805450Y-51895000D01*
X137817449Y-51901000D01*
X137828448Y-51907000D01*
X137840447Y-51913000D01*
X137851458Y-51918000D01*
X137862457Y-51924000D01*
X137873455Y-51930000D01*
X137884454Y-51936000D01*
X137895452Y-51942000D01*
X137906451Y-51948000D01*
X137916448Y-51954000D01*
X137927447Y-51961000D01*
X137938458Y-51967000D01*
X137948455Y-51973000D01*
X137958453Y-51979000D01*
X137969451Y-51986000D01*
X137979449Y-51992000D01*
X137989446Y-51999000D01*
X137999456Y-52005000D01*
X138009454Y-52012000D01*
X138018450Y-52019000D01*
X138028448Y-52025000D01*
X138038458Y-52032000D01*
X138047454Y-52039000D01*
X138057452Y-52046000D01*
X138066448Y-52053000D01*
X138076458Y-52060000D01*
X138085455Y-52067000D01*
X138094451Y-52074000D01*
X138103448Y-52082000D01*
X138112457Y-52089000D01*
X138121453Y-52096000D01*
X138130450Y-52104000D01*
X138138458Y-52111000D01*
X138147454Y-52119000D01*
X138156451Y-52126000D01*
X138164446Y-52134000D01*
X138173455Y-52142000D01*
X138181451Y-52150000D01*
X138189446Y-52157000D01*
X138197454Y-52165000D01*
X138206451Y-52173000D01*
X138214446Y-52182000D01*
X138222454Y-52190000D01*
X138230450Y-52198000D01*
X138237457Y-52206000D01*
X138245452Y-52215000D01*
X138253448Y-52223000D01*
X138260455Y-52232000D01*
X138268450Y-52241000D01*
X138275457Y-52249000D01*
X138283453Y-52258000D01*
X138290447Y-52267000D01*
X138297454Y-52276000D01*
X138305450Y-52285000D01*
X138312457Y-52294000D01*
X138319451Y-52304000D01*
X138326458Y-52313000D01*
X138333453Y-52322000D01*
X138339446Y-52332000D01*
X138346453Y-52342000D01*
X138353448Y-52351000D01*
X138359454Y-52361000D01*
X138366448Y-52371000D01*
X138373455Y-52381000D01*
X138379449Y-52391000D01*
X138385455Y-52401000D01*
X138392449Y-52412000D01*
X138398455Y-52422000D01*
X138404449Y-52433000D01*
X138410455Y-52443000D01*
X138416448Y-52454000D01*
X138422454Y-52465000D01*
X138428448Y-52476000D01*
X138434454Y-52487000D01*
X138440447Y-52498000D01*
X138445452Y-52510000D01*
X138451458Y-52521000D01*
X138456451Y-52533000D01*
X138462457Y-52545000D01*
X138467449Y-52557000D01*
X138473455Y-52569000D01*
X138478448Y-52581000D01*
X138483453Y-52593000D01*
X138489446Y-52605000D01*
X138494451Y-52618000D01*
X138499456Y-52631000D01*
X138504449Y-52644000D01*
X138509454Y-52657000D01*
X138514446Y-52670000D01*
X138518450Y-52683000D01*
X138523455Y-52697000D01*
X138528448Y-52710000D01*
X138533453Y-52724000D01*
X138537457Y-52738000D01*
X138542449Y-52752000D01*
X138546453Y-52767000D01*
X138551458Y-52781000D01*
X138555450Y-52796000D01*
X138559454Y-52811000D01*
X138563458Y-52826000D01*
X138568450Y-52842000D01*
X138572454Y-52857000D01*
X138576458Y-52873000D01*
X138580450Y-52889000D01*
X138584454Y-52905000D01*
X138587457Y-52922000D01*
X138591448Y-52939000D01*
X138595452Y-52956000D01*
X138599456Y-52973000D01*
X138602447Y-52990000D01*
X138606451Y-53008000D01*
X138609454Y-53026000D01*
X138613458Y-53045000D01*
X138616448Y-53063000D01*
X138620452Y-53082000D01*
X138623455Y-53101000D01*
X138626458Y-53121000D01*
X138629449Y-53141000D01*
X138633453Y-53161000D01*
X138636456Y-53182000D01*
X138639446Y-53203000D01*
X138642449Y-53224000D01*
X138645452Y-53246000D01*
X138647454Y-53268000D01*
X138650457Y-53291000D01*
X138653448Y-53314000D01*
X138656451Y-53337000D01*
X138658453Y-53361000D01*
X138661456Y-53385000D01*
X138663458Y-53410000D01*
X138666448Y-53436000D01*
X138668450Y-53462000D01*
X138670452Y-53489000D01*
X138673455Y-53516000D01*
X138675457Y-53544000D01*
X138677447Y-53572000D01*
X138679449Y-53602000D01*
X138681451Y-53632000D01*
X138683453Y-53662000D01*
X138685455Y-53694000D01*
X138687457Y-53726000D01*
X138689446Y-53760000D01*
X138691448Y-53794000D01*
X138693450Y-53829000D01*
X138694451Y-53866000D01*
X138696453Y-53903000D01*
X138698455Y-53942000D01*
X138699456Y-53982000D01*
X138701458Y-54024000D01*
X138702447Y-54067000D01*
X138703448Y-54111000D01*
X138705450Y-54158000D01*
X138706451Y-54206000D01*
X138707452Y-54256000D01*
X138708453Y-54309000D01*
X138709454Y-54364000D01*
X138710455Y-54421000D01*
X138711456Y-54482000D01*
X138712457Y-54546000D01*
X138713458Y-54614000D01*
X138714446Y-54686000D01*
X138715447Y-54762000D01*
X138715447Y-54844000D01*
X138716448Y-54932000D01*
X138717449Y-55028000D01*
X138717449Y-55132000D01*
X138718450Y-55246000D01*
X138718450Y-55373000D01*
X138719451Y-55517000D01*
X138719451Y-55681000D01*
X138719451Y-55874000D01*
X138720452Y-56108000D01*
X138720452Y-56405000D01*
X138720452Y-56817000D01*
X138720452Y-57502000D01*
X138720452Y-76935000D01*
X138720452Y-96367999D01*
X138720452Y-97052999D01*
X138720452Y-97464999D01*
X138720452Y-97761999D01*
X138719451Y-97995999D01*
X138719451Y-98189001D01*
X138719451Y-98352999D01*
X138718450Y-98497000D01*
X138718450Y-98624002D01*
X138717449Y-98738000D01*
X138717449Y-98842001D01*
X138716448Y-98938000D01*
X138715447Y-99026000D01*
X138715447Y-99108001D01*
X138714446Y-99183999D01*
X138713458Y-99255999D01*
X138712457Y-99324001D01*
X138711456Y-99388000D01*
X138710455Y-99449002D01*
X138709454Y-99505999D01*
X138708453Y-99561001D01*
X138707452Y-99614001D01*
X138706451Y-99664001D01*
X138705450Y-99711999D01*
X138703448Y-99758999D01*
X138702447Y-99802999D01*
X138701458Y-99845999D01*
X138699456Y-99888000D01*
X138698455Y-99927999D01*
X138696453Y-99967001D01*
X138694451Y-100004000D01*
X138693450Y-100041000D01*
X138691448Y-100076000D01*
X138689446Y-100110000D01*
X138687457Y-100144000D01*
X138685455Y-100176000D01*
X138683453Y-100208001D01*
X138681451Y-100238000D01*
X138679449Y-100267999D01*
X138677447Y-100298001D01*
X138675457Y-100326000D01*
X138673455Y-100354000D01*
X138670452Y-100380999D01*
X138668450Y-100408001D01*
X138666448Y-100433999D01*
X138663458Y-100460000D01*
X138661456Y-100485000D01*
X138658453Y-100508999D01*
X138656451Y-100533001D01*
X138653448Y-100555999D01*
X138650457Y-100579000D01*
X138647454Y-100602001D01*
X138645452Y-100624002D01*
X138642449Y-100645999D01*
X138639446Y-100667001D01*
X138636456Y-100688000D01*
X138633453Y-100708999D01*
X138629449Y-100729000D01*
X138626458Y-100749001D01*
X138623455Y-100769000D01*
X138620452Y-100788000D01*
X138616448Y-100807000D01*
X138613458Y-100824999D01*
X138609454Y-100844000D01*
X138606451Y-100861999D01*
X138602447Y-100880001D01*
X138599456Y-100897000D01*
X138595452Y-100914001D01*
X138591448Y-100930999D01*
X138587457Y-100948001D01*
X138584454Y-100964999D01*
X138580450Y-100980999D01*
X138576458Y-100997000D01*
X138572454Y-101013000D01*
X138568450Y-101027999D01*
X138563458Y-101044000D01*
X138559454Y-101058999D01*
X138555450Y-101074001D01*
X138551458Y-101089001D01*
X138546453Y-101102999D01*
X138542449Y-101117999D01*
X138537457Y-101132000D01*
X138533453Y-101145998D01*
X138528448Y-101160000D01*
X138523455Y-101173000D01*
X138518450Y-101186999D01*
X138514446Y-101199999D01*
X138509454Y-101213000D01*
X138504449Y-101226000D01*
X138499456Y-101239001D01*
X138494451Y-101252001D01*
X138489446Y-101264999D01*
X138483453Y-101277001D01*
X138478448Y-101289001D01*
X138473455Y-101301000D01*
X138467449Y-101313000D01*
X138462457Y-101324999D01*
X138456451Y-101336999D01*
X138451458Y-101349001D01*
X138445452Y-101360000D01*
X138440447Y-101371999D01*
X138434454Y-101383001D01*
X138428448Y-101394000D01*
X138422454Y-101405001D01*
X138416448Y-101416000D01*
X138410455Y-101427001D01*
X138404449Y-101436999D01*
X138398455Y-101448000D01*
X138392449Y-101458001D01*
X138385455Y-101469000D01*
X138379449Y-101479000D01*
X138373455Y-101489001D01*
X138366448Y-101499001D01*
X138359454Y-101508999D01*
X138353448Y-101519000D01*
X138346453Y-101527999D01*
X138339446Y-101538000D01*
X138333453Y-101548000D01*
X138326458Y-101557000D01*
X138319451Y-101566000D01*
X138312457Y-101576000D01*
X138305450Y-101585000D01*
X138297454Y-101594000D01*
X138290447Y-101602999D01*
X138283453Y-101611999D01*
X138275457Y-101620999D01*
X138268450Y-101629000D01*
X138260455Y-101638000D01*
X138253448Y-101646999D01*
X138245452Y-101655001D01*
X138237457Y-101664001D01*
X138230450Y-101671999D01*
X138222454Y-101680001D01*
X138214446Y-101688000D01*
X138206451Y-101697000D01*
X138197454Y-101705001D01*
X138189446Y-101713000D01*
X138181451Y-101720001D01*
X138173455Y-101727999D01*
X138164446Y-101736001D01*
X138156451Y-101744000D01*
X138147454Y-101751000D01*
X138138458Y-101758999D01*
X138130450Y-101766000D01*
X138121453Y-101774001D01*
X138112457Y-101780999D01*
X138103448Y-101788000D01*
X138094451Y-101795999D01*
X138085455Y-101802999D01*
X138076458Y-101810000D01*
X138066448Y-101817001D01*
X138057452Y-101824001D01*
X138047454Y-101830999D01*
X138038458Y-101838000D01*
X138028448Y-101845001D01*
X138018450Y-101851000D01*
X138009454Y-101858001D01*
X137999456Y-101864999D01*
X137989446Y-101870998D01*
X137979449Y-101877999D01*
X137969451Y-101883999D01*
X137958453Y-101891000D01*
X137948455Y-101897000D01*
X137938458Y-101902999D01*
X137927447Y-101908999D01*
X137916448Y-101916000D01*
X137906451Y-101921999D01*
X137895452Y-101927999D01*
X137884454Y-101933999D01*
X137873455Y-101939999D01*
X137862457Y-101945999D01*
X137851458Y-101952001D01*
X137840447Y-101957000D01*
X137828448Y-101963000D01*
X137817449Y-101969000D01*
X137805450Y-101974999D01*
X137794451Y-101980001D01*
X137782452Y-101986001D01*
X137770452Y-101991000D01*
X137758453Y-101997000D01*
X137746453Y-102002001D01*
X137734454Y-102008001D01*
X137721453Y-102013000D01*
X137709454Y-102017999D01*
X137697454Y-102024001D01*
X137684454Y-102029000D01*
X137671453Y-102033999D01*
X137659454Y-102039001D01*
X137646453Y-102044000D01*
X137633453Y-102049001D01*
X137619451Y-102054000D01*
X137606451Y-102058999D01*
X137593450Y-102064001D01*
X137579449Y-102069000D01*
X137566448Y-102074001D01*
X137552447Y-102079000D01*
X137538458Y-102083001D01*
X137524456Y-102088000D01*
X137510455Y-102092999D01*
X137496453Y-102096999D01*
X137482452Y-102102001D01*
X137467449Y-102107000D01*
X137453448Y-102111001D01*
X137438458Y-102116000D01*
X137423455Y-102120001D01*
X137408453Y-102124001D01*
X137393450Y-102129000D01*
X137378448Y-102133001D01*
X137363458Y-102136999D01*
X137347454Y-102142001D01*
X137332452Y-102145998D01*
X137316448Y-102149999D01*
X137300457Y-102154000D01*
X137284454Y-102158001D01*
X137268450Y-102161999D01*
X137252447Y-102166000D01*
X137235455Y-102170001D01*
X137219451Y-102174002D01*
X137202447Y-102177999D01*
X137185455Y-102182000D01*
X137168450Y-102186001D01*
X137151458Y-102189999D01*
X137133453Y-102192999D01*
X137116448Y-102196999D01*
X137098455Y-102201000D01*
X137080450Y-102204000D01*
X137062457Y-102208001D01*
X137044451Y-102211999D01*
X137026458Y-102214999D01*
X137007452Y-102219000D01*
X136989446Y-102222000D01*
X136970452Y-102226000D01*
X136951458Y-102229000D01*
X136932452Y-102233001D01*
X136912457Y-102236001D01*
X136893450Y-102239001D01*
X136873455Y-102242999D01*
X136853448Y-102245998D01*
X136833453Y-102249001D01*
X136812457Y-102252001D01*
X136792449Y-102255001D01*
X136771453Y-102258999D01*
X136750457Y-102261999D01*
X136729449Y-102264999D01*
X136708453Y-102267999D01*
X136686456Y-102270999D01*
X136664446Y-102274002D01*
X136642449Y-102277001D01*
X136620452Y-102280001D01*
X136598455Y-102283001D01*
X136575457Y-102285000D01*
X136552447Y-102288000D01*
X136529449Y-102291000D01*
X136505450Y-102294000D01*
X136482452Y-102296999D01*
X136458453Y-102299001D01*
X136434454Y-102302001D01*
X136409454Y-102305001D01*
X136385455Y-102307000D01*
X136360455Y-102310000D01*
X136334454Y-102311999D01*
X136309454Y-102314999D01*
X136283453Y-102317001D01*
X136257452Y-102320001D01*
X136231451Y-102322000D01*
X136204449Y-102324999D01*
X136177447Y-102327001D01*
X136150457Y-102330001D01*
X136122454Y-102332000D01*
X136094451Y-102333999D01*
X136066448Y-102336999D01*
X136037457Y-102339001D01*
X136008453Y-102341000D01*
X135979449Y-102342999D01*
X135949456Y-102345001D01*
X135919451Y-102348000D01*
X135889446Y-102349999D01*
X135858453Y-102352001D01*
X135827447Y-102354000D01*
X135795452Y-102355999D01*
X135763458Y-102358001D01*
X135731451Y-102360000D01*
X135698455Y-102361999D01*
X135664446Y-102364001D01*
X135631451Y-102366000D01*
X135596453Y-102367001D01*
X135562457Y-102369000D01*
X135526458Y-102370999D01*
X135491448Y-102373000D01*
X135455450Y-102374999D01*
X135418450Y-102376000D01*
X135380450Y-102377999D01*
X135343450Y-102380001D01*
X135304449Y-102380999D01*
X135265447Y-102383001D01*
X135226458Y-102385000D01*
X135185455Y-102386001D01*
X135144451Y-102388000D01*
X135103448Y-102389001D01*
X135060455Y-102391000D01*
X135018450Y-102392001D01*
X134974456Y-102394000D01*
X134929449Y-102395001D01*
X134884454Y-102396999D01*
X134838458Y-102398001D01*
X134791448Y-102399001D01*
X134743450Y-102401000D01*
X134695452Y-102402001D01*
X134645452Y-102402999D01*
X134595452Y-102404000D01*
X134543450Y-102405999D01*
X134490447Y-102407000D01*
X134437457Y-102408001D01*
X134382452Y-102408999D01*
X134326458Y-102410000D01*
X134269451Y-102411001D01*
X134210455Y-102411999D01*
X134150457Y-102413000D01*
X134089446Y-102414001D01*
X134026458Y-102414999D01*
X133962457Y-102416000D01*
X133896453Y-102417001D01*
X133829449Y-102417999D01*
X133759454Y-102419000D01*
X133688458Y-102420001D01*
X133615447Y-102420998D01*
X133539446Y-102422000D01*
X133462457Y-102423000D01*
X133382452Y-102423000D01*
X133299456Y-102424001D01*
X133214446Y-102424999D01*
X133126458Y-102424999D01*
X133035455Y-102426000D01*
X132940447Y-102427001D01*
X132843450Y-102427001D01*
X132741448Y-102427999D01*
X132635455Y-102429000D01*
X132524456Y-102429000D01*
X132409454Y-102430001D01*
X132288458Y-102430001D01*
X132162457Y-102430999D01*
X132028448Y-102430999D01*
X131888458Y-102430999D01*
X131739446Y-102432000D01*
X131582452Y-102432000D01*
X131414446Y-102433001D01*
X131234454Y-102433001D01*
X131040447Y-102433001D01*
X130831451Y-102433999D01*
X130602447Y-102433999D01*
X130351458Y-102433999D01*
X130071453Y-102433999D01*
X129756451Y-102433999D01*
X129395452Y-102435000D01*
X128971447Y-102435000D01*
X128458447Y-102435000D01*
X127805444Y-102435000D01*
X126900445Y-102435000D01*
X125396447Y-102435000D01*
X91380444Y-102435000D01*
X40044447Y-102435000D01*
X38540446Y-102435000D01*
X37635446Y-102435000D01*
X36982446Y-102435000D01*
X36469446Y-102435000D01*
X36045446Y-102435000D01*
X35684446Y-102433999D01*
X35369446Y-102433999D01*
X35089446Y-102433999D01*
X34838446Y-102433999D01*
X34609446Y-102433999D01*
X34400446Y-102433001D01*
X34206446Y-102433001D01*
X34026446Y-102433001D01*
X33858446Y-102432000D01*
X33701446Y-102432000D01*
X33552446Y-102430999D01*
X33412446Y-102430999D01*
X33278446Y-102430999D01*
X33152446Y-102430001D01*
X33031447Y-102430001D01*
X32916446Y-102429000D01*
X32805446Y-102429000D01*
X32699447Y-102427999D01*
X32597447Y-102427001D01*
X32500446Y-102427001D01*
X32405446Y-102426000D01*
X32314446Y-102424999D01*
X32226447Y-102424999D01*
X32141446Y-102424001D01*
X32058447Y-102423000D01*
X31978447Y-102423000D01*
X31901447Y-102422000D01*
X31825446Y-102420998D01*
X31752446Y-102420001D01*
X31681447Y-102419000D01*
X31611447Y-102417999D01*
X31544447Y-102417001D01*
X31478447Y-102416000D01*
X31414446Y-102414999D01*
X31351447Y-102414001D01*
X31290447Y-102413000D01*
X31230446Y-102411999D01*
X31171446Y-102411001D01*
X31114446Y-102410000D01*
X31058447Y-102408999D01*
X31003447Y-102408001D01*
X30950446Y-102407000D01*
X30897447Y-102405999D01*
X30845446Y-102404000D01*
X30795446Y-102402999D01*
X30745446Y-102402001D01*
X30697446Y-102401000D01*
X30649447Y-102399001D01*
X30602446Y-102398001D01*
X30556447Y-102396999D01*
X30511447Y-102395001D01*
X30466446Y-102394000D01*
X30422446Y-102392001D01*
X30380446Y-102391000D01*
X30337446Y-102389001D01*
X30296446Y-102388000D01*
X30255446Y-102386001D01*
X30214446Y-102385000D01*
X30175446Y-102383001D01*
X30136447Y-102380999D01*
X30097447Y-102380001D01*
X30060447Y-102377999D01*
X30022447Y-102376000D01*
X29985447Y-102374999D01*
X29949447Y-102373000D01*
X29914446Y-102370999D01*
X29878446Y-102369000D01*
X29844446Y-102367001D01*
X29809446Y-102366000D01*
X29776446Y-102364001D01*
X29742446Y-102361999D01*
X29709446Y-102360000D01*
X29677446Y-102358001D01*
X29645446Y-102355999D01*
X29613446Y-102354000D01*
X29582447Y-102352001D01*
X29551446Y-102349999D01*
X29521447Y-102348000D01*
X29491446Y-102345001D01*
X29461446Y-102342999D01*
X29432447Y-102341000D01*
X29403446Y-102339001D01*
X29374447Y-102336999D01*
X29346447Y-102333999D01*
X29318446Y-102332000D01*
X29290447Y-102330001D01*
X29263446Y-102327001D01*
X29236447Y-102324999D01*
X29209446Y-102322000D01*
X29183446Y-102320001D01*
X29157447Y-102317001D01*
X29131447Y-102314999D01*
X29106447Y-102311999D01*
X29080447Y-102310000D01*
X29055447Y-102307000D01*
X29031447Y-102305001D01*
X29006447Y-102302001D01*
X28982447Y-102299001D01*
X28958446Y-102296999D01*
X28935446Y-102294000D01*
X28911446Y-102291000D01*
X28888446Y-102288000D01*
X28865447Y-102285000D01*
X28842446Y-102283001D01*
X28820446Y-102280001D01*
X28798447Y-102277001D01*
X28776446Y-102274002D01*
X28754447Y-102270999D01*
X28732447Y-102267999D01*
X28711446Y-102264999D01*
X28690447Y-102261999D01*
X28669446Y-102258999D01*
X28648447Y-102255001D01*
X28628447Y-102252001D01*
X28607447Y-102249001D01*
X28587446Y-102245998D01*
X28567446Y-102242999D01*
X28547447Y-102239001D01*
X28528446Y-102236001D01*
X28508446Y-102233001D01*
X28489447Y-102229000D01*
X28470446Y-102226000D01*
X28451446Y-102222000D01*
X28433446Y-102219000D01*
X28414447Y-102214999D01*
X28396446Y-102211999D01*
X28378446Y-102208001D01*
X28360446Y-102204000D01*
X28342446Y-102201000D01*
X28324447Y-102196999D01*
X28307446Y-102192999D01*
X28289446Y-102189999D01*
X28272447Y-102186001D01*
X28255447Y-102182000D01*
X28238446Y-102177999D01*
X28221446Y-102174002D01*
X28205446Y-102170001D01*
X28188447Y-102166000D01*
X28172447Y-102161999D01*
X28156446Y-102158001D01*
X28140446Y-102154000D01*
X28124446Y-102149999D01*
X28108447Y-102145998D01*
X28093446Y-102142001D01*
X28077446Y-102136999D01*
X28062447Y-102133001D01*
X28047446Y-102129000D01*
X28032446Y-102124001D01*
X28017447Y-102120001D01*
X28002446Y-102116000D01*
X27987447Y-102111001D01*
X27973446Y-102107000D01*
X27958446Y-102102001D01*
X27944446Y-102096999D01*
X27930446Y-102092999D01*
X27916446Y-102088000D01*
X27902446Y-102083001D01*
X27888446Y-102079000D01*
X27874446Y-102074001D01*
X27861447Y-102069000D01*
X27847447Y-102064001D01*
X27834447Y-102058999D01*
X27821447Y-102054000D01*
X27807446Y-102049001D01*
X27794446Y-102044000D01*
X27781446Y-102039001D01*
X27769446Y-102033999D01*
X27756446Y-102029000D01*
X27743446Y-102024001D01*
X27731446Y-102017999D01*
X27719446Y-102013000D01*
X27706446Y-102008001D01*
X27694446Y-102002001D01*
X27682446Y-101997000D01*
X27670447Y-101991000D01*
X27658447Y-101986001D01*
X27646446Y-101980001D01*
X27635446Y-101974999D01*
X27623447Y-101969000D01*
X27612447Y-101963000D01*
X27600447Y-101957000D01*
X27589446Y-101952001D01*
X27578446Y-101945999D01*
X27567447Y-101939999D01*
X27556446Y-101933999D01*
X27545446Y-101927999D01*
X27534446Y-101921999D01*
X27524446Y-101916000D01*
X27513446Y-101908999D01*
X27502446Y-101902999D01*
X27492446Y-101897000D01*
X27482446Y-101891000D01*
X27471446Y-101883999D01*
X27461446Y-101877999D01*
X27451446Y-101870998D01*
X27441446Y-101864999D01*
X27431446Y-101858001D01*
X27422446Y-101851000D01*
X27412446Y-101845001D01*
X27402446Y-101838000D01*
X27393446Y-101830999D01*
X27383446Y-101824001D01*
X27374446Y-101817001D01*
X27364446Y-101810000D01*
X27355446Y-101802999D01*
X27346446Y-101795999D01*
X27337446Y-101788000D01*
X27328446Y-101780999D01*
X27319446Y-101774001D01*
X27310446Y-101766000D01*
X27302446Y-101758999D01*
X27293446Y-101751000D01*
X27284446Y-101744000D01*
X27276446Y-101736001D01*
X27267446Y-101727999D01*
X27259446Y-101720001D01*
X27251446Y-101713000D01*
X27243446Y-101705001D01*
X27234446Y-101697000D01*
X27226446Y-101688000D01*
X27218446Y-101680001D01*
X27210446Y-101671999D01*
X27203446Y-101664001D01*
X27195446Y-101655001D01*
X27187446Y-101646999D01*
X27180446Y-101638000D01*
X27172446Y-101629000D01*
X27165446Y-101620999D01*
X27157446Y-101611999D01*
X27150446Y-101602999D01*
X27143446Y-101594000D01*
X27135446Y-101585000D01*
X27128446Y-101576000D01*
X27121446Y-101566000D01*
X27114446Y-101557000D01*
X27107446Y-101548000D01*
X27101447Y-101538000D01*
X27094447Y-101527999D01*
X27087447Y-101519000D01*
X27081446Y-101508999D01*
X27074446Y-101499001D01*
X27067446Y-101489001D01*
X27061446Y-101479000D01*
X27055446Y-101469000D01*
X27048446Y-101458001D01*
X27042446Y-101448000D01*
X27036447Y-101436999D01*
X27030446Y-101427001D01*
X27024447Y-101416000D01*
X27018446Y-101405001D01*
X27012446Y-101394000D01*
X27006446Y-101383001D01*
X27000446Y-101371999D01*
X26995446Y-101360000D01*
X26989447Y-101349001D01*
X26984446Y-101336999D01*
X26978446Y-101324999D01*
X26973446Y-101313000D01*
X26967446Y-101301000D01*
X26962446Y-101289001D01*
X26957446Y-101277001D01*
X26951446Y-101264999D01*
X26946446Y-101252001D01*
X26941446Y-101239001D01*
X26936446Y-101226000D01*
X26931446Y-101213000D01*
X26926447Y-101199999D01*
X26922446Y-101186999D01*
X26917447Y-101173000D01*
X26912447Y-101160000D01*
X26907446Y-101145998D01*
X26903447Y-101132000D01*
X26898447Y-101117999D01*
X26894446Y-101102999D01*
X26889447Y-101089001D01*
X26885446Y-101074001D01*
X26881446Y-101058999D01*
X26877446Y-101044000D01*
X26872446Y-101027999D01*
X26868447Y-101013000D01*
X26864446Y-100997000D01*
X26860446Y-100980999D01*
X26856446Y-100964999D01*
X26853446Y-100948001D01*
X26849446Y-100930999D01*
X26845446Y-100914001D01*
X26841446Y-100897000D01*
X26838446Y-100880001D01*
X26834446Y-100861999D01*
X26831446Y-100844000D01*
X26827446Y-100824999D01*
X26824446Y-100807000D01*
X26820446Y-100788000D01*
X26817446Y-100769000D01*
X26814446Y-100749001D01*
X26811446Y-100729000D01*
X26807446Y-100708999D01*
X26804446Y-100688000D01*
X26801446Y-100667001D01*
X26798447Y-100645999D01*
X26795446Y-100624002D01*
X26793446Y-100602001D01*
X26790446Y-100579000D01*
X26787446Y-100555999D01*
X26784447Y-100533001D01*
X26782446Y-100508999D01*
X26779446Y-100485000D01*
X26777447Y-100460000D01*
X26774446Y-100433999D01*
X26772446Y-100408001D01*
X26770447Y-100380999D01*
X26767446Y-100354000D01*
X26765446Y-100326000D01*
X26763447Y-100298001D01*
X26761446Y-100267999D01*
X26759446Y-100238000D01*
X26757446Y-100208001D01*
X26755446Y-100176000D01*
X26753446Y-100144000D01*
X26751446Y-100110000D01*
X26749447Y-100076000D01*
X26747446Y-100041000D01*
X26746446Y-100004000D01*
X26744446Y-99967001D01*
X26742447Y-99927999D01*
X26741446Y-99888000D01*
X26739446Y-99845999D01*
X26738446Y-99802999D01*
X26737446Y-99758999D01*
X26735447Y-99711999D01*
X26734446Y-99664001D01*
X26733446Y-99614001D01*
X26732446Y-99561001D01*
X26731446Y-99505999D01*
X26730446Y-99449002D01*
X26729446Y-99388000D01*
X26728447Y-99324001D01*
X26727446Y-99255999D01*
X26726446Y-99183999D01*
X26725446Y-99108001D01*
X26725446Y-99026000D01*
X26724446Y-98938000D01*
X26723446Y-98842001D01*
X26723446Y-98738000D01*
X26722446Y-98624002D01*
X26722446Y-98497000D01*
X26721447Y-98352999D01*
X26721447Y-98189001D01*
X26721447Y-97995999D01*
X26720446Y-97761999D01*
X26720446Y-97464999D01*
X26720446Y-97052999D01*
X26720446Y-96367999D01*
X26720446Y-81017999D01*
X26720446Y-57502000D01*
X26720446Y-56817000D01*
X26720446Y-56405000D01*
X26720446Y-56108000D01*
X26721447Y-55874000D01*
X26721447Y-55681000D01*
X26721447Y-55517000D01*
X26722446Y-55373000D01*
X26722446Y-55246000D01*
X26723446Y-55132000D01*
X26723446Y-55028000D01*
X26724446Y-54932000D01*
X26725446Y-54844000D01*
X26725446Y-54762000D01*
X26726446Y-54686000D01*
X26727446Y-54614000D01*
X26728447Y-54546000D01*
X26729446Y-54482000D01*
X26730446Y-54421000D01*
X26731446Y-54364000D01*
X26732446Y-54309000D01*
X26733446Y-54256000D01*
X26734446Y-54206000D01*
X26735447Y-54158000D01*
X26737446Y-54111000D01*
X26738446Y-54067000D01*
X26739446Y-54024000D01*
X26741446Y-53982000D01*
X26742447Y-53942000D01*
X26744446Y-53903000D01*
X26746446Y-53866000D01*
X26747446Y-53829000D01*
X26749447Y-53794000D01*
X26751446Y-53760000D01*
X26753446Y-53726000D01*
X26755446Y-53694000D01*
X26757446Y-53662000D01*
X26759446Y-53632000D01*
X26761446Y-53602000D01*
X26763447Y-53572000D01*
X26765446Y-53544000D01*
X26767446Y-53516000D01*
X26770447Y-53489000D01*
X26772446Y-53462000D01*
X26774446Y-53436000D01*
X26777447Y-53410000D01*
X26779446Y-53385000D01*
X26782446Y-53361000D01*
X26784447Y-53337000D01*
X26787446Y-53314000D01*
X26790446Y-53291000D01*
X26793446Y-53268000D01*
X26795446Y-53246000D01*
X26798447Y-53224000D01*
X26801446Y-53203000D01*
X26804446Y-53182000D01*
X26807446Y-53161000D01*
X26811446Y-53141000D01*
X26814446Y-53121000D01*
X26817446Y-53101000D01*
X26820446Y-53082000D01*
X26824446Y-53063000D01*
X26827446Y-53045000D01*
X26831446Y-53026000D01*
X26834446Y-53008000D01*
X26838446Y-52990000D01*
X26841446Y-52973000D01*
X26845446Y-52956000D01*
X26849446Y-52939000D01*
X26853446Y-52922000D01*
X26856446Y-52905000D01*
X26860446Y-52889000D01*
X26864446Y-52873000D01*
X26868447Y-52857000D01*
X26872446Y-52842000D01*
X26877446Y-52826000D01*
X26881446Y-52811000D01*
X26885446Y-52796000D01*
X26889447Y-52781000D01*
X26894446Y-52767000D01*
X26898447Y-52752000D01*
X26903447Y-52738000D01*
X26907446Y-52724000D01*
X26912447Y-52710000D01*
X26917447Y-52697000D01*
X26922446Y-52683000D01*
X26926447Y-52670000D01*
X26931446Y-52657000D01*
X26936446Y-52644000D01*
X26941446Y-52631000D01*
X26946446Y-52618000D01*
X26951446Y-52605000D01*
X26957446Y-52593000D01*
X26962446Y-52581000D01*
X26967446Y-52569000D01*
X26973446Y-52557000D01*
X26978446Y-52545000D01*
X26984446Y-52533000D01*
X26989447Y-52521000D01*
X26995446Y-52510000D01*
X27000446Y-52498000D01*
X27006446Y-52487000D01*
X27012446Y-52476000D01*
X27018446Y-52465000D01*
X27024447Y-52454000D01*
X27030446Y-52443000D01*
X27036447Y-52433000D01*
X27042446Y-52422000D01*
X27048446Y-52412000D01*
X27055446Y-52401000D01*
X27061446Y-52391000D01*
X27067446Y-52381000D01*
X27074446Y-52371000D01*
X27081446Y-52361000D01*
X27087447Y-52351000D01*
X27094447Y-52342000D01*
X27101447Y-52332000D01*
X27107446Y-52322000D01*
X27114446Y-52313000D01*
X27121446Y-52304000D01*
X27128446Y-52294000D01*
X27135446Y-52285000D01*
X27143446Y-52276000D01*
X27150446Y-52267000D01*
X27157446Y-52258000D01*
X27165446Y-52249000D01*
X27172446Y-52241000D01*
X27180446Y-52232000D01*
X27187446Y-52223000D01*
X27195446Y-52215000D01*
X27203446Y-52206000D01*
X27210446Y-52198000D01*
X27218446Y-52190000D01*
X27226446Y-52182000D01*
X27234446Y-52173000D01*
X27243446Y-52165000D01*
X27251446Y-52157000D01*
X27259446Y-52150000D01*
X27267446Y-52142000D01*
X27276446Y-52134000D01*
X27284446Y-52126000D01*
X27293446Y-52119000D01*
X27302446Y-52111000D01*
X27310446Y-52104000D01*
X27319446Y-52096000D01*
X27328446Y-52089000D01*
X27337446Y-52082000D01*
X27346446Y-52074000D01*
X27355446Y-52067000D01*
X27364446Y-52060000D01*
X27374446Y-52053000D01*
X27383446Y-52046000D01*
X27393446Y-52039000D01*
X27402446Y-52032000D01*
X27412446Y-52025000D01*
X27422446Y-52019000D01*
X27431446Y-52012000D01*
X27441446Y-52005000D01*
X27451446Y-51999000D01*
X27461446Y-51992000D01*
X27471446Y-51986000D01*
X27482446Y-51979000D01*
X27492446Y-51973000D01*
X27502446Y-51967000D01*
X27513446Y-51961000D01*
X27524446Y-51954000D01*
X27534446Y-51948000D01*
X27545446Y-51942000D01*
X27556446Y-51936000D01*
X27567447Y-51930000D01*
X27578446Y-51924000D01*
X27589446Y-51918000D01*
X27600447Y-51913000D01*
X27612447Y-51907000D01*
X27623447Y-51901000D01*
X27635446Y-51895000D01*
X27646446Y-51890000D01*
X27658447Y-51884000D01*
X27670447Y-51879000D01*
X27682446Y-51873000D01*
X27694446Y-51868000D01*
X27706446Y-51862000D01*
X27719446Y-51857000D01*
X27731446Y-51852000D01*
X27743446Y-51846000D01*
X27756446Y-51841000D01*
X27769446Y-51836000D01*
X27781446Y-51831000D01*
X27794446Y-51826000D01*
X27807446Y-51821000D01*
X27821447Y-51816000D01*
X27834447Y-51811000D01*
X27847447Y-51806000D01*
X27861447Y-51801000D01*
X27874446Y-51796000D01*
X27888446Y-51791000D01*
X27902446Y-51787000D01*
X27916446Y-51782000D01*
X27930446Y-51777000D01*
X27944446Y-51773000D01*
X27958446Y-51768000D01*
X27973446Y-51763000D01*
X27987447Y-51759000D01*
X28002446Y-51754000D01*
X28017447Y-51750000D01*
X28032446Y-51746000D01*
X28047446Y-51741000D01*
X28062447Y-51737000D01*
X28077446Y-51733000D01*
X28093446Y-51728000D01*
X28108447Y-51724000D01*
X28124446Y-51720000D01*
X28140446Y-51716000D01*
X28156446Y-51712000D01*
X28172447Y-51708000D01*
X28188447Y-51704000D01*
X28205446Y-51700000D01*
X28221446Y-51696000D01*
X28238446Y-51692000D01*
X28255447Y-51688000D01*
X28272447Y-51684000D01*
X28289446Y-51680000D01*
X28307446Y-51677000D01*
X28324447Y-51673000D01*
X28342446Y-51669000D01*
X28360446Y-51666000D01*
X28378446Y-51662000D01*
X28396446Y-51658000D01*
X28414447Y-51655000D01*
X28433446Y-51651000D01*
X28451446Y-51648000D01*
X28470446Y-51644000D01*
X28489447Y-51641000D01*
X28508446Y-51637000D01*
X28528446Y-51634000D01*
X28547447Y-51631000D01*
X28567446Y-51627000D01*
X28587446Y-51624000D01*
X28607447Y-51621000D01*
X28628447Y-51618000D01*
X28648447Y-51615000D01*
X28669446Y-51611000D01*
X28690447Y-51608000D01*
X28711446Y-51605000D01*
X28732447Y-51602000D01*
X28754447Y-51599000D01*
X28776446Y-51596000D01*
X28798447Y-51593000D01*
X28820446Y-51590000D01*
X28842446Y-51587000D01*
X28865447Y-51585000D01*
X28888446Y-51582000D01*
X28911446Y-51579000D01*
X28935446Y-51576000D01*
X28958446Y-51573000D01*
X28982447Y-51571000D01*
X29006447Y-51568000D01*
X29031447Y-51565000D01*
X29055447Y-51563000D01*
X29080447Y-51560000D01*
X29106447Y-51558000D01*
X29131447Y-51555000D01*
X29157447Y-51553000D01*
X29183446Y-51550000D01*
X29209446Y-51548000D01*
X29236447Y-51545000D01*
X29263446Y-51543000D01*
X29290447Y-51540000D01*
X29318446Y-51538000D01*
X29346447Y-51536000D01*
X29374447Y-51533000D01*
X29403446Y-51531000D01*
X29432447Y-51529000D01*
X29461446Y-51527000D01*
X29491446Y-51525000D01*
X29521447Y-51522000D01*
X29551446Y-51520000D01*
X29582447Y-51518000D01*
X29613446Y-51516000D01*
X29645446Y-51514000D01*
X29677446Y-51512000D01*
X29709446Y-51510000D01*
X29742446Y-51508000D01*
X29776446Y-51506000D01*
X29809446Y-51504000D01*
X29844446Y-51503000D01*
X29878446Y-51501000D01*
X29914446Y-51499000D01*
X29949447Y-51497000D01*
X29985447Y-51495000D01*
X30022447Y-51494000D01*
X30060447Y-51492000D01*
X30097447Y-51490000D01*
X30136447Y-51489000D01*
X30175446Y-51487000D01*
X30214446Y-51485000D01*
X30255446Y-51484000D01*
X30296446Y-51482000D01*
X30337446Y-51481000D01*
X30380446Y-51479000D01*
X30422446Y-51478000D01*
X30466446Y-51476000D01*
X30511447Y-51475000D01*
X30556447Y-51473000D01*
X30602446Y-51472000D01*
X30649447Y-51471000D01*
X30697446Y-51469000D01*
X30745446Y-51468000D01*
X30795446Y-51467000D01*
X30845446Y-51466000D01*
X30897447Y-51464000D01*
X30950446Y-51463000D01*
X31003447Y-51462000D01*
X31058447Y-51461000D01*
X31114446Y-51460000D01*
X31171446Y-51459000D01*
X31230446Y-51458000D01*
X31290447Y-51457000D01*
X31351447Y-51456000D01*
X31414446Y-51455000D01*
X31478447Y-51454000D01*
X31544447Y-51453000D01*
X31611447Y-51452000D01*
X31681447Y-51451000D01*
X31752446Y-51450000D01*
X31825446Y-51449000D01*
X31901447Y-51448000D01*
X31978447Y-51447000D01*
X32058447Y-51447000D01*
X32141446Y-51446000D01*
X32226447Y-51445000D01*
X32314446Y-51445000D01*
X32405446Y-51444000D01*
X32500446Y-51443000D01*
X32597447Y-51443000D01*
X32699447Y-51442000D01*
X32805446Y-51441000D01*
X32916446Y-51441000D01*
X33031447Y-51440000D01*
X33152446Y-51440000D01*
X33278446Y-51439000D01*
X33412446Y-51439000D01*
X33552446Y-51439000D01*
X33701446Y-51438000D01*
X33858446Y-51438000D01*
X34026446Y-51437000D01*
X34206446Y-51437000D01*
X34400446Y-51437000D01*
X34609446Y-51436000D01*
X34838446Y-51436000D01*
X35089446Y-51436000D01*
X35369446Y-51436000D01*
X35684446Y-51436000D01*
X36045446Y-51435000D01*
X36469446Y-51435000D01*
X36982446Y-51435000D01*
X37635446Y-51435000D01*
X38540446Y-51435000D01*
X40044447Y-51435000D01*
X73571447Y-51435000D01*
X125396447Y-51435000D01*
X126900445Y-51435000D01*
X127805444Y-51435000D01*
X128458447Y-51435000D01*
X128971447Y-51435000D01*
X129395452Y-51435000D01*
X129756451Y-51436000D01*
M02*
