%TF.GenerationSoftware,KiCad,Pcbnew,10.0.6*%
%TF.CreationDate,2026-10-06T19:06:46-03:00*%
%TF.ProjectId,inkBT,696e6b42-542e-46b6-9963-61645f706362,rev?*%
%TF.SameCoordinates,Original*%
%TF.FileFunction,Legend,Top*%
%TF.FilePolarity,Positive*%
%FSLAX46Y46*%
G04 Gerber Fmt 4.6, Leading zero omitted, Abs format (unit mm)*
G04 Created by KiCad (PCBNEW 10.0.6) date 2026-10-06 19:06:46*
%MOMM*%
%LPD*%
G01*
G04 APERTURE LIST*
%ADD10C,0.150000*%
%ADD11C,0.120000*%
%ADD12C,0.000000*%
G04 APERTURE END LIST*
D10*
X57158095Y-78736819D02*
X57729523Y-78736819D01*
X57443809Y-79736819D02*
X57443809Y-78736819D01*
X58062857Y-79736819D02*
X58062857Y-78736819D01*
X58062857Y-78736819D02*
X58443809Y-78736819D01*
X58443809Y-78736819D02*
X58539047Y-78784438D01*
X58539047Y-78784438D02*
X58586666Y-78832057D01*
X58586666Y-78832057D02*
X58634285Y-78927295D01*
X58634285Y-78927295D02*
X58634285Y-79070152D01*
X58634285Y-79070152D02*
X58586666Y-79165390D01*
X58586666Y-79165390D02*
X58539047Y-79213009D01*
X58539047Y-79213009D02*
X58443809Y-79260628D01*
X58443809Y-79260628D02*
X58062857Y-79260628D01*
X58967619Y-78736819D02*
X59586666Y-78736819D01*
X59586666Y-78736819D02*
X59253333Y-79117771D01*
X59253333Y-79117771D02*
X59396190Y-79117771D01*
X59396190Y-79117771D02*
X59491428Y-79165390D01*
X59491428Y-79165390D02*
X59539047Y-79213009D01*
X59539047Y-79213009D02*
X59586666Y-79308247D01*
X59586666Y-79308247D02*
X59586666Y-79546342D01*
X59586666Y-79546342D02*
X59539047Y-79641580D01*
X59539047Y-79641580D02*
X59491428Y-79689200D01*
X59491428Y-79689200D02*
X59396190Y-79736819D01*
X59396190Y-79736819D02*
X59110476Y-79736819D01*
X59110476Y-79736819D02*
X59015238Y-79689200D01*
X59015238Y-79689200D02*
X58967619Y-79641580D01*
X40013095Y-84451819D02*
X40584523Y-84451819D01*
X40298809Y-85451819D02*
X40298809Y-84451819D01*
X40917857Y-85451819D02*
X40917857Y-84451819D01*
X40917857Y-84451819D02*
X41298809Y-84451819D01*
X41298809Y-84451819D02*
X41394047Y-84499438D01*
X41394047Y-84499438D02*
X41441666Y-84547057D01*
X41441666Y-84547057D02*
X41489285Y-84642295D01*
X41489285Y-84642295D02*
X41489285Y-84785152D01*
X41489285Y-84785152D02*
X41441666Y-84880390D01*
X41441666Y-84880390D02*
X41394047Y-84928009D01*
X41394047Y-84928009D02*
X41298809Y-84975628D01*
X41298809Y-84975628D02*
X40917857Y-84975628D01*
X41822619Y-84451819D02*
X42489285Y-84451819D01*
X42489285Y-84451819D02*
X42060714Y-85451819D01*
X63508095Y-63496819D02*
X64079523Y-63496819D01*
X63793809Y-64496819D02*
X63793809Y-63496819D01*
X64412857Y-64496819D02*
X64412857Y-63496819D01*
X64412857Y-63496819D02*
X64793809Y-63496819D01*
X64793809Y-63496819D02*
X64889047Y-63544438D01*
X64889047Y-63544438D02*
X64936666Y-63592057D01*
X64936666Y-63592057D02*
X64984285Y-63687295D01*
X64984285Y-63687295D02*
X64984285Y-63830152D01*
X64984285Y-63830152D02*
X64936666Y-63925390D01*
X64936666Y-63925390D02*
X64889047Y-63973009D01*
X64889047Y-63973009D02*
X64793809Y-64020628D01*
X64793809Y-64020628D02*
X64412857Y-64020628D01*
X65841428Y-63830152D02*
X65841428Y-64496819D01*
X65603333Y-63449200D02*
X65365238Y-64163485D01*
X65365238Y-64163485D02*
X65984285Y-64163485D01*
X106349580Y-95600357D02*
X106397200Y-95647976D01*
X106397200Y-95647976D02*
X106444819Y-95790833D01*
X106444819Y-95790833D02*
X106444819Y-95886071D01*
X106444819Y-95886071D02*
X106397200Y-96028928D01*
X106397200Y-96028928D02*
X106301961Y-96124166D01*
X106301961Y-96124166D02*
X106206723Y-96171785D01*
X106206723Y-96171785D02*
X106016247Y-96219404D01*
X106016247Y-96219404D02*
X105873390Y-96219404D01*
X105873390Y-96219404D02*
X105682914Y-96171785D01*
X105682914Y-96171785D02*
X105587676Y-96124166D01*
X105587676Y-96124166D02*
X105492438Y-96028928D01*
X105492438Y-96028928D02*
X105444819Y-95886071D01*
X105444819Y-95886071D02*
X105444819Y-95790833D01*
X105444819Y-95790833D02*
X105492438Y-95647976D01*
X105492438Y-95647976D02*
X105540057Y-95600357D01*
X106444819Y-94647976D02*
X106444819Y-95219404D01*
X106444819Y-94933690D02*
X105444819Y-94933690D01*
X105444819Y-94933690D02*
X105587676Y-95028928D01*
X105587676Y-95028928D02*
X105682914Y-95124166D01*
X105682914Y-95124166D02*
X105730533Y-95219404D01*
X106444819Y-93695595D02*
X106444819Y-94267023D01*
X106444819Y-93981309D02*
X105444819Y-93981309D01*
X105444819Y-93981309D02*
X105587676Y-94076547D01*
X105587676Y-94076547D02*
X105682914Y-94171785D01*
X105682914Y-94171785D02*
X105730533Y-94267023D01*
X48635595Y-77384819D02*
X48635595Y-78194342D01*
X48635595Y-78194342D02*
X48683214Y-78289580D01*
X48683214Y-78289580D02*
X48730833Y-78337200D01*
X48730833Y-78337200D02*
X48826071Y-78384819D01*
X48826071Y-78384819D02*
X49016547Y-78384819D01*
X49016547Y-78384819D02*
X49111785Y-78337200D01*
X49111785Y-78337200D02*
X49159404Y-78289580D01*
X49159404Y-78289580D02*
X49207023Y-78194342D01*
X49207023Y-78194342D02*
X49207023Y-77384819D01*
X49587976Y-77384819D02*
X50207023Y-77384819D01*
X50207023Y-77384819D02*
X49873690Y-77765771D01*
X49873690Y-77765771D02*
X50016547Y-77765771D01*
X50016547Y-77765771D02*
X50111785Y-77813390D01*
X50111785Y-77813390D02*
X50159404Y-77861009D01*
X50159404Y-77861009D02*
X50207023Y-77956247D01*
X50207023Y-77956247D02*
X50207023Y-78194342D01*
X50207023Y-78194342D02*
X50159404Y-78289580D01*
X50159404Y-78289580D02*
X50111785Y-78337200D01*
X50111785Y-78337200D02*
X50016547Y-78384819D01*
X50016547Y-78384819D02*
X49730833Y-78384819D01*
X49730833Y-78384819D02*
X49635595Y-78337200D01*
X49635595Y-78337200D02*
X49587976Y-78289580D01*
X30488095Y-60321819D02*
X31059523Y-60321819D01*
X30773809Y-61321819D02*
X30773809Y-60321819D01*
X31392857Y-61321819D02*
X31392857Y-60321819D01*
X31392857Y-60321819D02*
X31773809Y-60321819D01*
X31773809Y-60321819D02*
X31869047Y-60369438D01*
X31869047Y-60369438D02*
X31916666Y-60417057D01*
X31916666Y-60417057D02*
X31964285Y-60512295D01*
X31964285Y-60512295D02*
X31964285Y-60655152D01*
X31964285Y-60655152D02*
X31916666Y-60750390D01*
X31916666Y-60750390D02*
X31869047Y-60798009D01*
X31869047Y-60798009D02*
X31773809Y-60845628D01*
X31773809Y-60845628D02*
X31392857Y-60845628D01*
X32869047Y-60321819D02*
X32392857Y-60321819D01*
X32392857Y-60321819D02*
X32345238Y-60798009D01*
X32345238Y-60798009D02*
X32392857Y-60750390D01*
X32392857Y-60750390D02*
X32488095Y-60702771D01*
X32488095Y-60702771D02*
X32726190Y-60702771D01*
X32726190Y-60702771D02*
X32821428Y-60750390D01*
X32821428Y-60750390D02*
X32869047Y-60798009D01*
X32869047Y-60798009D02*
X32916666Y-60893247D01*
X32916666Y-60893247D02*
X32916666Y-61131342D01*
X32916666Y-61131342D02*
X32869047Y-61226580D01*
X32869047Y-61226580D02*
X32821428Y-61274200D01*
X32821428Y-61274200D02*
X32726190Y-61321819D01*
X32726190Y-61321819D02*
X32488095Y-61321819D01*
X32488095Y-61321819D02*
X32392857Y-61274200D01*
X32392857Y-61274200D02*
X32345238Y-61226580D01*
X115349580Y-76426666D02*
X115397200Y-76474285D01*
X115397200Y-76474285D02*
X115444819Y-76617142D01*
X115444819Y-76617142D02*
X115444819Y-76712380D01*
X115444819Y-76712380D02*
X115397200Y-76855237D01*
X115397200Y-76855237D02*
X115301961Y-76950475D01*
X115301961Y-76950475D02*
X115206723Y-76998094D01*
X115206723Y-76998094D02*
X115016247Y-77045713D01*
X115016247Y-77045713D02*
X114873390Y-77045713D01*
X114873390Y-77045713D02*
X114682914Y-76998094D01*
X114682914Y-76998094D02*
X114587676Y-76950475D01*
X114587676Y-76950475D02*
X114492438Y-76855237D01*
X114492438Y-76855237D02*
X114444819Y-76712380D01*
X114444819Y-76712380D02*
X114444819Y-76617142D01*
X114444819Y-76617142D02*
X114492438Y-76474285D01*
X114492438Y-76474285D02*
X114540057Y-76426666D01*
X114444819Y-76093332D02*
X114444819Y-75474285D01*
X114444819Y-75474285D02*
X114825771Y-75807618D01*
X114825771Y-75807618D02*
X114825771Y-75664761D01*
X114825771Y-75664761D02*
X114873390Y-75569523D01*
X114873390Y-75569523D02*
X114921009Y-75521904D01*
X114921009Y-75521904D02*
X115016247Y-75474285D01*
X115016247Y-75474285D02*
X115254342Y-75474285D01*
X115254342Y-75474285D02*
X115349580Y-75521904D01*
X115349580Y-75521904D02*
X115397200Y-75569523D01*
X115397200Y-75569523D02*
X115444819Y-75664761D01*
X115444819Y-75664761D02*
X115444819Y-75950475D01*
X115444819Y-75950475D02*
X115397200Y-76045713D01*
X115397200Y-76045713D02*
X115349580Y-76093332D01*
X48900595Y-82464819D02*
X48900595Y-83274342D01*
X48900595Y-83274342D02*
X48948214Y-83369580D01*
X48948214Y-83369580D02*
X48995833Y-83417200D01*
X48995833Y-83417200D02*
X49091071Y-83464819D01*
X49091071Y-83464819D02*
X49281547Y-83464819D01*
X49281547Y-83464819D02*
X49376785Y-83417200D01*
X49376785Y-83417200D02*
X49424404Y-83369580D01*
X49424404Y-83369580D02*
X49472023Y-83274342D01*
X49472023Y-83274342D02*
X49472023Y-82464819D01*
X49900595Y-82560057D02*
X49948214Y-82512438D01*
X49948214Y-82512438D02*
X50043452Y-82464819D01*
X50043452Y-82464819D02*
X50281547Y-82464819D01*
X50281547Y-82464819D02*
X50376785Y-82512438D01*
X50376785Y-82512438D02*
X50424404Y-82560057D01*
X50424404Y-82560057D02*
X50472023Y-82655295D01*
X50472023Y-82655295D02*
X50472023Y-82750533D01*
X50472023Y-82750533D02*
X50424404Y-82893390D01*
X50424404Y-82893390D02*
X49852976Y-83464819D01*
X49852976Y-83464819D02*
X50472023Y-83464819D01*
X35174819Y-53673333D02*
X35889104Y-53673333D01*
X35889104Y-53673333D02*
X36031961Y-53720952D01*
X36031961Y-53720952D02*
X36127200Y-53816190D01*
X36127200Y-53816190D02*
X36174819Y-53959047D01*
X36174819Y-53959047D02*
X36174819Y-54054285D01*
X35174819Y-53292380D02*
X35174819Y-52673333D01*
X35174819Y-52673333D02*
X35555771Y-53006666D01*
X35555771Y-53006666D02*
X35555771Y-52863809D01*
X35555771Y-52863809D02*
X35603390Y-52768571D01*
X35603390Y-52768571D02*
X35651009Y-52720952D01*
X35651009Y-52720952D02*
X35746247Y-52673333D01*
X35746247Y-52673333D02*
X35984342Y-52673333D01*
X35984342Y-52673333D02*
X36079580Y-52720952D01*
X36079580Y-52720952D02*
X36127200Y-52768571D01*
X36127200Y-52768571D02*
X36174819Y-52863809D01*
X36174819Y-52863809D02*
X36174819Y-53149523D01*
X36174819Y-53149523D02*
X36127200Y-53244761D01*
X36127200Y-53244761D02*
X36079580Y-53292380D01*
X122730833Y-95029580D02*
X122683214Y-95077200D01*
X122683214Y-95077200D02*
X122540357Y-95124819D01*
X122540357Y-95124819D02*
X122445119Y-95124819D01*
X122445119Y-95124819D02*
X122302262Y-95077200D01*
X122302262Y-95077200D02*
X122207024Y-94981961D01*
X122207024Y-94981961D02*
X122159405Y-94886723D01*
X122159405Y-94886723D02*
X122111786Y-94696247D01*
X122111786Y-94696247D02*
X122111786Y-94553390D01*
X122111786Y-94553390D02*
X122159405Y-94362914D01*
X122159405Y-94362914D02*
X122207024Y-94267676D01*
X122207024Y-94267676D02*
X122302262Y-94172438D01*
X122302262Y-94172438D02*
X122445119Y-94124819D01*
X122445119Y-94124819D02*
X122540357Y-94124819D01*
X122540357Y-94124819D02*
X122683214Y-94172438D01*
X122683214Y-94172438D02*
X122730833Y-94220057D01*
X123635595Y-94124819D02*
X123159405Y-94124819D01*
X123159405Y-94124819D02*
X123111786Y-94601009D01*
X123111786Y-94601009D02*
X123159405Y-94553390D01*
X123159405Y-94553390D02*
X123254643Y-94505771D01*
X123254643Y-94505771D02*
X123492738Y-94505771D01*
X123492738Y-94505771D02*
X123587976Y-94553390D01*
X123587976Y-94553390D02*
X123635595Y-94601009D01*
X123635595Y-94601009D02*
X123683214Y-94696247D01*
X123683214Y-94696247D02*
X123683214Y-94934342D01*
X123683214Y-94934342D02*
X123635595Y-95029580D01*
X123635595Y-95029580D02*
X123587976Y-95077200D01*
X123587976Y-95077200D02*
X123492738Y-95124819D01*
X123492738Y-95124819D02*
X123254643Y-95124819D01*
X123254643Y-95124819D02*
X123159405Y-95077200D01*
X123159405Y-95077200D02*
X123111786Y-95029580D01*
X70864819Y-62676666D02*
X70388628Y-63009999D01*
X70864819Y-63248094D02*
X69864819Y-63248094D01*
X69864819Y-63248094D02*
X69864819Y-62867142D01*
X69864819Y-62867142D02*
X69912438Y-62771904D01*
X69912438Y-62771904D02*
X69960057Y-62724285D01*
X69960057Y-62724285D02*
X70055295Y-62676666D01*
X70055295Y-62676666D02*
X70198152Y-62676666D01*
X70198152Y-62676666D02*
X70293390Y-62724285D01*
X70293390Y-62724285D02*
X70341009Y-62771904D01*
X70341009Y-62771904D02*
X70388628Y-62867142D01*
X70388628Y-62867142D02*
X70388628Y-63248094D01*
X70864819Y-61724285D02*
X70864819Y-62295713D01*
X70864819Y-62009999D02*
X69864819Y-62009999D01*
X69864819Y-62009999D02*
X70007676Y-62105237D01*
X70007676Y-62105237D02*
X70102914Y-62200475D01*
X70102914Y-62200475D02*
X70150533Y-62295713D01*
X53503095Y-51459819D02*
X53503095Y-52269342D01*
X53503095Y-52269342D02*
X53550714Y-52364580D01*
X53550714Y-52364580D02*
X53598333Y-52412200D01*
X53598333Y-52412200D02*
X53693571Y-52459819D01*
X53693571Y-52459819D02*
X53884047Y-52459819D01*
X53884047Y-52459819D02*
X53979285Y-52412200D01*
X53979285Y-52412200D02*
X54026904Y-52364580D01*
X54026904Y-52364580D02*
X54074523Y-52269342D01*
X54074523Y-52269342D02*
X54074523Y-51459819D01*
X55074523Y-52459819D02*
X54503095Y-52459819D01*
X54788809Y-52459819D02*
X54788809Y-51459819D01*
X54788809Y-51459819D02*
X54693571Y-51602676D01*
X54693571Y-51602676D02*
X54598333Y-51697914D01*
X54598333Y-51697914D02*
X54503095Y-51745533D01*
X116584819Y-68746666D02*
X116108628Y-69079999D01*
X116584819Y-69318094D02*
X115584819Y-69318094D01*
X115584819Y-69318094D02*
X115584819Y-68937142D01*
X115584819Y-68937142D02*
X115632438Y-68841904D01*
X115632438Y-68841904D02*
X115680057Y-68794285D01*
X115680057Y-68794285D02*
X115775295Y-68746666D01*
X115775295Y-68746666D02*
X115918152Y-68746666D01*
X115918152Y-68746666D02*
X116013390Y-68794285D01*
X116013390Y-68794285D02*
X116061009Y-68841904D01*
X116061009Y-68841904D02*
X116108628Y-68937142D01*
X116108628Y-68937142D02*
X116108628Y-69318094D01*
X115918152Y-67889523D02*
X116584819Y-67889523D01*
X115537200Y-68127618D02*
X116251485Y-68365713D01*
X116251485Y-68365713D02*
X116251485Y-67746666D01*
X124293333Y-83489580D02*
X124245714Y-83537200D01*
X124245714Y-83537200D02*
X124102857Y-83584819D01*
X124102857Y-83584819D02*
X124007619Y-83584819D01*
X124007619Y-83584819D02*
X123864762Y-83537200D01*
X123864762Y-83537200D02*
X123769524Y-83441961D01*
X123769524Y-83441961D02*
X123721905Y-83346723D01*
X123721905Y-83346723D02*
X123674286Y-83156247D01*
X123674286Y-83156247D02*
X123674286Y-83013390D01*
X123674286Y-83013390D02*
X123721905Y-82822914D01*
X123721905Y-82822914D02*
X123769524Y-82727676D01*
X123769524Y-82727676D02*
X123864762Y-82632438D01*
X123864762Y-82632438D02*
X124007619Y-82584819D01*
X124007619Y-82584819D02*
X124102857Y-82584819D01*
X124102857Y-82584819D02*
X124245714Y-82632438D01*
X124245714Y-82632438D02*
X124293333Y-82680057D01*
X124626667Y-82584819D02*
X125293333Y-82584819D01*
X125293333Y-82584819D02*
X124864762Y-83584819D01*
X70864819Y-56046666D02*
X70388628Y-56379999D01*
X70864819Y-56618094D02*
X69864819Y-56618094D01*
X69864819Y-56618094D02*
X69864819Y-56237142D01*
X69864819Y-56237142D02*
X69912438Y-56141904D01*
X69912438Y-56141904D02*
X69960057Y-56094285D01*
X69960057Y-56094285D02*
X70055295Y-56046666D01*
X70055295Y-56046666D02*
X70198152Y-56046666D01*
X70198152Y-56046666D02*
X70293390Y-56094285D01*
X70293390Y-56094285D02*
X70341009Y-56141904D01*
X70341009Y-56141904D02*
X70388628Y-56237142D01*
X70388628Y-56237142D02*
X70388628Y-56618094D01*
X69864819Y-55713332D02*
X69864819Y-55046666D01*
X69864819Y-55046666D02*
X70864819Y-55475237D01*
X124293333Y-84984819D02*
X123960000Y-84508628D01*
X123721905Y-84984819D02*
X123721905Y-83984819D01*
X123721905Y-83984819D02*
X124102857Y-83984819D01*
X124102857Y-83984819D02*
X124198095Y-84032438D01*
X124198095Y-84032438D02*
X124245714Y-84080057D01*
X124245714Y-84080057D02*
X124293333Y-84175295D01*
X124293333Y-84175295D02*
X124293333Y-84318152D01*
X124293333Y-84318152D02*
X124245714Y-84413390D01*
X124245714Y-84413390D02*
X124198095Y-84461009D01*
X124198095Y-84461009D02*
X124102857Y-84508628D01*
X124102857Y-84508628D02*
X123721905Y-84508628D01*
X124674286Y-84080057D02*
X124721905Y-84032438D01*
X124721905Y-84032438D02*
X124817143Y-83984819D01*
X124817143Y-83984819D02*
X125055238Y-83984819D01*
X125055238Y-83984819D02*
X125150476Y-84032438D01*
X125150476Y-84032438D02*
X125198095Y-84080057D01*
X125198095Y-84080057D02*
X125245714Y-84175295D01*
X125245714Y-84175295D02*
X125245714Y-84270533D01*
X125245714Y-84270533D02*
X125198095Y-84413390D01*
X125198095Y-84413390D02*
X124626667Y-84984819D01*
X124626667Y-84984819D02*
X125245714Y-84984819D01*
X106349580Y-90520357D02*
X106397200Y-90567976D01*
X106397200Y-90567976D02*
X106444819Y-90710833D01*
X106444819Y-90710833D02*
X106444819Y-90806071D01*
X106444819Y-90806071D02*
X106397200Y-90948928D01*
X106397200Y-90948928D02*
X106301961Y-91044166D01*
X106301961Y-91044166D02*
X106206723Y-91091785D01*
X106206723Y-91091785D02*
X106016247Y-91139404D01*
X106016247Y-91139404D02*
X105873390Y-91139404D01*
X105873390Y-91139404D02*
X105682914Y-91091785D01*
X105682914Y-91091785D02*
X105587676Y-91044166D01*
X105587676Y-91044166D02*
X105492438Y-90948928D01*
X105492438Y-90948928D02*
X105444819Y-90806071D01*
X105444819Y-90806071D02*
X105444819Y-90710833D01*
X105444819Y-90710833D02*
X105492438Y-90567976D01*
X105492438Y-90567976D02*
X105540057Y-90520357D01*
X106444819Y-89567976D02*
X106444819Y-90139404D01*
X106444819Y-89853690D02*
X105444819Y-89853690D01*
X105444819Y-89853690D02*
X105587676Y-89948928D01*
X105587676Y-89948928D02*
X105682914Y-90044166D01*
X105682914Y-90044166D02*
X105730533Y-90139404D01*
X105540057Y-89187023D02*
X105492438Y-89139404D01*
X105492438Y-89139404D02*
X105444819Y-89044166D01*
X105444819Y-89044166D02*
X105444819Y-88806071D01*
X105444819Y-88806071D02*
X105492438Y-88710833D01*
X105492438Y-88710833D02*
X105540057Y-88663214D01*
X105540057Y-88663214D02*
X105635295Y-88615595D01*
X105635295Y-88615595D02*
X105730533Y-88615595D01*
X105730533Y-88615595D02*
X105873390Y-88663214D01*
X105873390Y-88663214D02*
X106444819Y-89234642D01*
X106444819Y-89234642D02*
X106444819Y-88615595D01*
X70804819Y-70046904D02*
X71614342Y-70046904D01*
X71614342Y-70046904D02*
X71709580Y-69999285D01*
X71709580Y-69999285D02*
X71757200Y-69951666D01*
X71757200Y-69951666D02*
X71804819Y-69856428D01*
X71804819Y-69856428D02*
X71804819Y-69665952D01*
X71804819Y-69665952D02*
X71757200Y-69570714D01*
X71757200Y-69570714D02*
X71709580Y-69523095D01*
X71709580Y-69523095D02*
X71614342Y-69475476D01*
X71614342Y-69475476D02*
X70804819Y-69475476D01*
X70804819Y-68523095D02*
X70804819Y-68999285D01*
X70804819Y-68999285D02*
X71281009Y-69046904D01*
X71281009Y-69046904D02*
X71233390Y-68999285D01*
X71233390Y-68999285D02*
X71185771Y-68904047D01*
X71185771Y-68904047D02*
X71185771Y-68665952D01*
X71185771Y-68665952D02*
X71233390Y-68570714D01*
X71233390Y-68570714D02*
X71281009Y-68523095D01*
X71281009Y-68523095D02*
X71376247Y-68475476D01*
X71376247Y-68475476D02*
X71614342Y-68475476D01*
X71614342Y-68475476D02*
X71709580Y-68523095D01*
X71709580Y-68523095D02*
X71757200Y-68570714D01*
X71757200Y-68570714D02*
X71804819Y-68665952D01*
X71804819Y-68665952D02*
X71804819Y-68904047D01*
X71804819Y-68904047D02*
X71757200Y-68999285D01*
X71757200Y-68999285D02*
X71709580Y-69046904D01*
X108889580Y-95124166D02*
X108937200Y-95171785D01*
X108937200Y-95171785D02*
X108984819Y-95314642D01*
X108984819Y-95314642D02*
X108984819Y-95409880D01*
X108984819Y-95409880D02*
X108937200Y-95552737D01*
X108937200Y-95552737D02*
X108841961Y-95647975D01*
X108841961Y-95647975D02*
X108746723Y-95695594D01*
X108746723Y-95695594D02*
X108556247Y-95743213D01*
X108556247Y-95743213D02*
X108413390Y-95743213D01*
X108413390Y-95743213D02*
X108222914Y-95695594D01*
X108222914Y-95695594D02*
X108127676Y-95647975D01*
X108127676Y-95647975D02*
X108032438Y-95552737D01*
X108032438Y-95552737D02*
X107984819Y-95409880D01*
X107984819Y-95409880D02*
X107984819Y-95314642D01*
X107984819Y-95314642D02*
X108032438Y-95171785D01*
X108032438Y-95171785D02*
X108080057Y-95124166D01*
X108984819Y-94647975D02*
X108984819Y-94457499D01*
X108984819Y-94457499D02*
X108937200Y-94362261D01*
X108937200Y-94362261D02*
X108889580Y-94314642D01*
X108889580Y-94314642D02*
X108746723Y-94219404D01*
X108746723Y-94219404D02*
X108556247Y-94171785D01*
X108556247Y-94171785D02*
X108175295Y-94171785D01*
X108175295Y-94171785D02*
X108080057Y-94219404D01*
X108080057Y-94219404D02*
X108032438Y-94267023D01*
X108032438Y-94267023D02*
X107984819Y-94362261D01*
X107984819Y-94362261D02*
X107984819Y-94552737D01*
X107984819Y-94552737D02*
X108032438Y-94647975D01*
X108032438Y-94647975D02*
X108080057Y-94695594D01*
X108080057Y-94695594D02*
X108175295Y-94743213D01*
X108175295Y-94743213D02*
X108413390Y-94743213D01*
X108413390Y-94743213D02*
X108508628Y-94695594D01*
X108508628Y-94695594D02*
X108556247Y-94647975D01*
X108556247Y-94647975D02*
X108603866Y-94552737D01*
X108603866Y-94552737D02*
X108603866Y-94362261D01*
X108603866Y-94362261D02*
X108556247Y-94267023D01*
X108556247Y-94267023D02*
X108508628Y-94219404D01*
X108508628Y-94219404D02*
X108413390Y-94171785D01*
X115864819Y-53673333D02*
X116579104Y-53673333D01*
X116579104Y-53673333D02*
X116721961Y-53720952D01*
X116721961Y-53720952D02*
X116817200Y-53816190D01*
X116817200Y-53816190D02*
X116864819Y-53959047D01*
X116864819Y-53959047D02*
X116864819Y-54054285D01*
X116864819Y-52673333D02*
X116864819Y-53244761D01*
X116864819Y-52959047D02*
X115864819Y-52959047D01*
X115864819Y-52959047D02*
X116007676Y-53054285D01*
X116007676Y-53054285D02*
X116102914Y-53149523D01*
X116102914Y-53149523D02*
X116150533Y-53244761D01*
X53503095Y-64159819D02*
X53503095Y-64969342D01*
X53503095Y-64969342D02*
X53550714Y-65064580D01*
X53550714Y-65064580D02*
X53598333Y-65112200D01*
X53598333Y-65112200D02*
X53693571Y-65159819D01*
X53693571Y-65159819D02*
X53884047Y-65159819D01*
X53884047Y-65159819D02*
X53979285Y-65112200D01*
X53979285Y-65112200D02*
X54026904Y-65064580D01*
X54026904Y-65064580D02*
X54074523Y-64969342D01*
X54074523Y-64969342D02*
X54074523Y-64159819D01*
X54979285Y-64493152D02*
X54979285Y-65159819D01*
X54741190Y-64112200D02*
X54503095Y-64826485D01*
X54503095Y-64826485D02*
X55122142Y-64826485D01*
X124293333Y-91109580D02*
X124245714Y-91157200D01*
X124245714Y-91157200D02*
X124102857Y-91204819D01*
X124102857Y-91204819D02*
X124007619Y-91204819D01*
X124007619Y-91204819D02*
X123864762Y-91157200D01*
X123864762Y-91157200D02*
X123769524Y-91061961D01*
X123769524Y-91061961D02*
X123721905Y-90966723D01*
X123721905Y-90966723D02*
X123674286Y-90776247D01*
X123674286Y-90776247D02*
X123674286Y-90633390D01*
X123674286Y-90633390D02*
X123721905Y-90442914D01*
X123721905Y-90442914D02*
X123769524Y-90347676D01*
X123769524Y-90347676D02*
X123864762Y-90252438D01*
X123864762Y-90252438D02*
X124007619Y-90204819D01*
X124007619Y-90204819D02*
X124102857Y-90204819D01*
X124102857Y-90204819D02*
X124245714Y-90252438D01*
X124245714Y-90252438D02*
X124293333Y-90300057D01*
X124864762Y-90633390D02*
X124769524Y-90585771D01*
X124769524Y-90585771D02*
X124721905Y-90538152D01*
X124721905Y-90538152D02*
X124674286Y-90442914D01*
X124674286Y-90442914D02*
X124674286Y-90395295D01*
X124674286Y-90395295D02*
X124721905Y-90300057D01*
X124721905Y-90300057D02*
X124769524Y-90252438D01*
X124769524Y-90252438D02*
X124864762Y-90204819D01*
X124864762Y-90204819D02*
X125055238Y-90204819D01*
X125055238Y-90204819D02*
X125150476Y-90252438D01*
X125150476Y-90252438D02*
X125198095Y-90300057D01*
X125198095Y-90300057D02*
X125245714Y-90395295D01*
X125245714Y-90395295D02*
X125245714Y-90442914D01*
X125245714Y-90442914D02*
X125198095Y-90538152D01*
X125198095Y-90538152D02*
X125150476Y-90585771D01*
X125150476Y-90585771D02*
X125055238Y-90633390D01*
X125055238Y-90633390D02*
X124864762Y-90633390D01*
X124864762Y-90633390D02*
X124769524Y-90681009D01*
X124769524Y-90681009D02*
X124721905Y-90728628D01*
X124721905Y-90728628D02*
X124674286Y-90823866D01*
X124674286Y-90823866D02*
X124674286Y-91014342D01*
X124674286Y-91014342D02*
X124721905Y-91109580D01*
X124721905Y-91109580D02*
X124769524Y-91157200D01*
X124769524Y-91157200D02*
X124864762Y-91204819D01*
X124864762Y-91204819D02*
X125055238Y-91204819D01*
X125055238Y-91204819D02*
X125150476Y-91157200D01*
X125150476Y-91157200D02*
X125198095Y-91109580D01*
X125198095Y-91109580D02*
X125245714Y-91014342D01*
X125245714Y-91014342D02*
X125245714Y-90823866D01*
X125245714Y-90823866D02*
X125198095Y-90728628D01*
X125198095Y-90728628D02*
X125150476Y-90681009D01*
X125150476Y-90681009D02*
X125055238Y-90633390D01*
X133858095Y-52249819D02*
X133858095Y-51249819D01*
X133858095Y-51726009D02*
X134429523Y-51726009D01*
X134429523Y-52249819D02*
X134429523Y-51249819D01*
X135429523Y-52249819D02*
X134858095Y-52249819D01*
X135143809Y-52249819D02*
X135143809Y-51249819D01*
X135143809Y-51249819D02*
X135048571Y-51392676D01*
X135048571Y-51392676D02*
X134953333Y-51487914D01*
X134953333Y-51487914D02*
X134858095Y-51535533D01*
X133858095Y-95429819D02*
X133858095Y-94429819D01*
X133858095Y-94906009D02*
X134429523Y-94906009D01*
X134429523Y-95429819D02*
X134429523Y-94429819D01*
X135334285Y-94763152D02*
X135334285Y-95429819D01*
X135096190Y-94382200D02*
X134858095Y-95096485D01*
X134858095Y-95096485D02*
X135477142Y-95096485D01*
X52713095Y-80006819D02*
X53284523Y-80006819D01*
X52998809Y-81006819D02*
X52998809Y-80006819D01*
X53617857Y-81006819D02*
X53617857Y-80006819D01*
X53617857Y-80006819D02*
X53998809Y-80006819D01*
X53998809Y-80006819D02*
X54094047Y-80054438D01*
X54094047Y-80054438D02*
X54141666Y-80102057D01*
X54141666Y-80102057D02*
X54189285Y-80197295D01*
X54189285Y-80197295D02*
X54189285Y-80340152D01*
X54189285Y-80340152D02*
X54141666Y-80435390D01*
X54141666Y-80435390D02*
X54094047Y-80483009D01*
X54094047Y-80483009D02*
X53998809Y-80530628D01*
X53998809Y-80530628D02*
X53617857Y-80530628D01*
X54570238Y-80102057D02*
X54617857Y-80054438D01*
X54617857Y-80054438D02*
X54713095Y-80006819D01*
X54713095Y-80006819D02*
X54951190Y-80006819D01*
X54951190Y-80006819D02*
X55046428Y-80054438D01*
X55046428Y-80054438D02*
X55094047Y-80102057D01*
X55094047Y-80102057D02*
X55141666Y-80197295D01*
X55141666Y-80197295D02*
X55141666Y-80292533D01*
X55141666Y-80292533D02*
X55094047Y-80435390D01*
X55094047Y-80435390D02*
X54522619Y-81006819D01*
X54522619Y-81006819D02*
X55141666Y-81006819D01*
X119049580Y-90689166D02*
X119097200Y-90736785D01*
X119097200Y-90736785D02*
X119144819Y-90879642D01*
X119144819Y-90879642D02*
X119144819Y-90974880D01*
X119144819Y-90974880D02*
X119097200Y-91117737D01*
X119097200Y-91117737D02*
X119001961Y-91212975D01*
X119001961Y-91212975D02*
X118906723Y-91260594D01*
X118906723Y-91260594D02*
X118716247Y-91308213D01*
X118716247Y-91308213D02*
X118573390Y-91308213D01*
X118573390Y-91308213D02*
X118382914Y-91260594D01*
X118382914Y-91260594D02*
X118287676Y-91212975D01*
X118287676Y-91212975D02*
X118192438Y-91117737D01*
X118192438Y-91117737D02*
X118144819Y-90974880D01*
X118144819Y-90974880D02*
X118144819Y-90879642D01*
X118144819Y-90879642D02*
X118192438Y-90736785D01*
X118192438Y-90736785D02*
X118240057Y-90689166D01*
X119144819Y-89736785D02*
X119144819Y-90308213D01*
X119144819Y-90022499D02*
X118144819Y-90022499D01*
X118144819Y-90022499D02*
X118287676Y-90117737D01*
X118287676Y-90117737D02*
X118382914Y-90212975D01*
X118382914Y-90212975D02*
X118430533Y-90308213D01*
X124293333Y-82444819D02*
X123960000Y-81968628D01*
X123721905Y-82444819D02*
X123721905Y-81444819D01*
X123721905Y-81444819D02*
X124102857Y-81444819D01*
X124102857Y-81444819D02*
X124198095Y-81492438D01*
X124198095Y-81492438D02*
X124245714Y-81540057D01*
X124245714Y-81540057D02*
X124293333Y-81635295D01*
X124293333Y-81635295D02*
X124293333Y-81778152D01*
X124293333Y-81778152D02*
X124245714Y-81873390D01*
X124245714Y-81873390D02*
X124198095Y-81921009D01*
X124198095Y-81921009D02*
X124102857Y-81968628D01*
X124102857Y-81968628D02*
X123721905Y-81968628D01*
X125198095Y-81444819D02*
X124721905Y-81444819D01*
X124721905Y-81444819D02*
X124674286Y-81921009D01*
X124674286Y-81921009D02*
X124721905Y-81873390D01*
X124721905Y-81873390D02*
X124817143Y-81825771D01*
X124817143Y-81825771D02*
X125055238Y-81825771D01*
X125055238Y-81825771D02*
X125150476Y-81873390D01*
X125150476Y-81873390D02*
X125198095Y-81921009D01*
X125198095Y-81921009D02*
X125245714Y-82016247D01*
X125245714Y-82016247D02*
X125245714Y-82254342D01*
X125245714Y-82254342D02*
X125198095Y-82349580D01*
X125198095Y-82349580D02*
X125150476Y-82397200D01*
X125150476Y-82397200D02*
X125055238Y-82444819D01*
X125055238Y-82444819D02*
X124817143Y-82444819D01*
X124817143Y-82444819D02*
X124721905Y-82397200D01*
X124721905Y-82397200D02*
X124674286Y-82349580D01*
X113969580Y-90689166D02*
X114017200Y-90736785D01*
X114017200Y-90736785D02*
X114064819Y-90879642D01*
X114064819Y-90879642D02*
X114064819Y-90974880D01*
X114064819Y-90974880D02*
X114017200Y-91117737D01*
X114017200Y-91117737D02*
X113921961Y-91212975D01*
X113921961Y-91212975D02*
X113826723Y-91260594D01*
X113826723Y-91260594D02*
X113636247Y-91308213D01*
X113636247Y-91308213D02*
X113493390Y-91308213D01*
X113493390Y-91308213D02*
X113302914Y-91260594D01*
X113302914Y-91260594D02*
X113207676Y-91212975D01*
X113207676Y-91212975D02*
X113112438Y-91117737D01*
X113112438Y-91117737D02*
X113064819Y-90974880D01*
X113064819Y-90974880D02*
X113064819Y-90879642D01*
X113064819Y-90879642D02*
X113112438Y-90736785D01*
X113112438Y-90736785D02*
X113160057Y-90689166D01*
X113160057Y-90308213D02*
X113112438Y-90260594D01*
X113112438Y-90260594D02*
X113064819Y-90165356D01*
X113064819Y-90165356D02*
X113064819Y-89927261D01*
X113064819Y-89927261D02*
X113112438Y-89832023D01*
X113112438Y-89832023D02*
X113160057Y-89784404D01*
X113160057Y-89784404D02*
X113255295Y-89736785D01*
X113255295Y-89736785D02*
X113350533Y-89736785D01*
X113350533Y-89736785D02*
X113493390Y-89784404D01*
X113493390Y-89784404D02*
X114064819Y-90355832D01*
X114064819Y-90355832D02*
X114064819Y-89736785D01*
X39378095Y-77466819D02*
X39949523Y-77466819D01*
X39663809Y-78466819D02*
X39663809Y-77466819D01*
X40282857Y-78466819D02*
X40282857Y-77466819D01*
X40282857Y-77466819D02*
X40663809Y-77466819D01*
X40663809Y-77466819D02*
X40759047Y-77514438D01*
X40759047Y-77514438D02*
X40806666Y-77562057D01*
X40806666Y-77562057D02*
X40854285Y-77657295D01*
X40854285Y-77657295D02*
X40854285Y-77800152D01*
X40854285Y-77800152D02*
X40806666Y-77895390D01*
X40806666Y-77895390D02*
X40759047Y-77943009D01*
X40759047Y-77943009D02*
X40663809Y-77990628D01*
X40663809Y-77990628D02*
X40282857Y-77990628D01*
X41711428Y-77466819D02*
X41520952Y-77466819D01*
X41520952Y-77466819D02*
X41425714Y-77514438D01*
X41425714Y-77514438D02*
X41378095Y-77562057D01*
X41378095Y-77562057D02*
X41282857Y-77704914D01*
X41282857Y-77704914D02*
X41235238Y-77895390D01*
X41235238Y-77895390D02*
X41235238Y-78276342D01*
X41235238Y-78276342D02*
X41282857Y-78371580D01*
X41282857Y-78371580D02*
X41330476Y-78419200D01*
X41330476Y-78419200D02*
X41425714Y-78466819D01*
X41425714Y-78466819D02*
X41616190Y-78466819D01*
X41616190Y-78466819D02*
X41711428Y-78419200D01*
X41711428Y-78419200D02*
X41759047Y-78371580D01*
X41759047Y-78371580D02*
X41806666Y-78276342D01*
X41806666Y-78276342D02*
X41806666Y-78038247D01*
X41806666Y-78038247D02*
X41759047Y-77943009D01*
X41759047Y-77943009D02*
X41711428Y-77895390D01*
X41711428Y-77895390D02*
X41616190Y-77847771D01*
X41616190Y-77847771D02*
X41425714Y-77847771D01*
X41425714Y-77847771D02*
X41330476Y-77895390D01*
X41330476Y-77895390D02*
X41282857Y-77943009D01*
X41282857Y-77943009D02*
X41235238Y-78038247D01*
X113215595Y-87149819D02*
X113215595Y-87959342D01*
X113215595Y-87959342D02*
X113263214Y-88054580D01*
X113263214Y-88054580D02*
X113310833Y-88102200D01*
X113310833Y-88102200D02*
X113406071Y-88149819D01*
X113406071Y-88149819D02*
X113596547Y-88149819D01*
X113596547Y-88149819D02*
X113691785Y-88102200D01*
X113691785Y-88102200D02*
X113739404Y-88054580D01*
X113739404Y-88054580D02*
X113787023Y-87959342D01*
X113787023Y-87959342D02*
X113787023Y-87149819D01*
X114691785Y-87149819D02*
X114501309Y-87149819D01*
X114501309Y-87149819D02*
X114406071Y-87197438D01*
X114406071Y-87197438D02*
X114358452Y-87245057D01*
X114358452Y-87245057D02*
X114263214Y-87387914D01*
X114263214Y-87387914D02*
X114215595Y-87578390D01*
X114215595Y-87578390D02*
X114215595Y-87959342D01*
X114215595Y-87959342D02*
X114263214Y-88054580D01*
X114263214Y-88054580D02*
X114310833Y-88102200D01*
X114310833Y-88102200D02*
X114406071Y-88149819D01*
X114406071Y-88149819D02*
X114596547Y-88149819D01*
X114596547Y-88149819D02*
X114691785Y-88102200D01*
X114691785Y-88102200D02*
X114739404Y-88054580D01*
X114739404Y-88054580D02*
X114787023Y-87959342D01*
X114787023Y-87959342D02*
X114787023Y-87721247D01*
X114787023Y-87721247D02*
X114739404Y-87626009D01*
X114739404Y-87626009D02*
X114691785Y-87578390D01*
X114691785Y-87578390D02*
X114596547Y-87530771D01*
X114596547Y-87530771D02*
X114406071Y-87530771D01*
X114406071Y-87530771D02*
X114310833Y-87578390D01*
X114310833Y-87578390D02*
X114263214Y-87626009D01*
X114263214Y-87626009D02*
X114215595Y-87721247D01*
X108889580Y-90520357D02*
X108937200Y-90567976D01*
X108937200Y-90567976D02*
X108984819Y-90710833D01*
X108984819Y-90710833D02*
X108984819Y-90806071D01*
X108984819Y-90806071D02*
X108937200Y-90948928D01*
X108937200Y-90948928D02*
X108841961Y-91044166D01*
X108841961Y-91044166D02*
X108746723Y-91091785D01*
X108746723Y-91091785D02*
X108556247Y-91139404D01*
X108556247Y-91139404D02*
X108413390Y-91139404D01*
X108413390Y-91139404D02*
X108222914Y-91091785D01*
X108222914Y-91091785D02*
X108127676Y-91044166D01*
X108127676Y-91044166D02*
X108032438Y-90948928D01*
X108032438Y-90948928D02*
X107984819Y-90806071D01*
X107984819Y-90806071D02*
X107984819Y-90710833D01*
X107984819Y-90710833D02*
X108032438Y-90567976D01*
X108032438Y-90567976D02*
X108080057Y-90520357D01*
X108984819Y-89567976D02*
X108984819Y-90139404D01*
X108984819Y-89853690D02*
X107984819Y-89853690D01*
X107984819Y-89853690D02*
X108127676Y-89948928D01*
X108127676Y-89948928D02*
X108222914Y-90044166D01*
X108222914Y-90044166D02*
X108270533Y-90139404D01*
X107984819Y-88948928D02*
X107984819Y-88853690D01*
X107984819Y-88853690D02*
X108032438Y-88758452D01*
X108032438Y-88758452D02*
X108080057Y-88710833D01*
X108080057Y-88710833D02*
X108175295Y-88663214D01*
X108175295Y-88663214D02*
X108365771Y-88615595D01*
X108365771Y-88615595D02*
X108603866Y-88615595D01*
X108603866Y-88615595D02*
X108794342Y-88663214D01*
X108794342Y-88663214D02*
X108889580Y-88710833D01*
X108889580Y-88710833D02*
X108937200Y-88758452D01*
X108937200Y-88758452D02*
X108984819Y-88853690D01*
X108984819Y-88853690D02*
X108984819Y-88948928D01*
X108984819Y-88948928D02*
X108937200Y-89044166D01*
X108937200Y-89044166D02*
X108889580Y-89091785D01*
X108889580Y-89091785D02*
X108794342Y-89139404D01*
X108794342Y-89139404D02*
X108603866Y-89187023D01*
X108603866Y-89187023D02*
X108365771Y-89187023D01*
X108365771Y-89187023D02*
X108175295Y-89139404D01*
X108175295Y-89139404D02*
X108080057Y-89091785D01*
X108080057Y-89091785D02*
X108032438Y-89044166D01*
X108032438Y-89044166D02*
X107984819Y-88948928D01*
X110269580Y-76426666D02*
X110317200Y-76474285D01*
X110317200Y-76474285D02*
X110364819Y-76617142D01*
X110364819Y-76617142D02*
X110364819Y-76712380D01*
X110364819Y-76712380D02*
X110317200Y-76855237D01*
X110317200Y-76855237D02*
X110221961Y-76950475D01*
X110221961Y-76950475D02*
X110126723Y-76998094D01*
X110126723Y-76998094D02*
X109936247Y-77045713D01*
X109936247Y-77045713D02*
X109793390Y-77045713D01*
X109793390Y-77045713D02*
X109602914Y-76998094D01*
X109602914Y-76998094D02*
X109507676Y-76950475D01*
X109507676Y-76950475D02*
X109412438Y-76855237D01*
X109412438Y-76855237D02*
X109364819Y-76712380D01*
X109364819Y-76712380D02*
X109364819Y-76617142D01*
X109364819Y-76617142D02*
X109412438Y-76474285D01*
X109412438Y-76474285D02*
X109460057Y-76426666D01*
X109698152Y-75569523D02*
X110364819Y-75569523D01*
X109317200Y-75807618D02*
X110031485Y-76045713D01*
X110031485Y-76045713D02*
X110031485Y-75426666D01*
X122730833Y-97569580D02*
X122683214Y-97617200D01*
X122683214Y-97617200D02*
X122540357Y-97664819D01*
X122540357Y-97664819D02*
X122445119Y-97664819D01*
X122445119Y-97664819D02*
X122302262Y-97617200D01*
X122302262Y-97617200D02*
X122207024Y-97521961D01*
X122207024Y-97521961D02*
X122159405Y-97426723D01*
X122159405Y-97426723D02*
X122111786Y-97236247D01*
X122111786Y-97236247D02*
X122111786Y-97093390D01*
X122111786Y-97093390D02*
X122159405Y-96902914D01*
X122159405Y-96902914D02*
X122207024Y-96807676D01*
X122207024Y-96807676D02*
X122302262Y-96712438D01*
X122302262Y-96712438D02*
X122445119Y-96664819D01*
X122445119Y-96664819D02*
X122540357Y-96664819D01*
X122540357Y-96664819D02*
X122683214Y-96712438D01*
X122683214Y-96712438D02*
X122730833Y-96760057D01*
X123587976Y-96664819D02*
X123397500Y-96664819D01*
X123397500Y-96664819D02*
X123302262Y-96712438D01*
X123302262Y-96712438D02*
X123254643Y-96760057D01*
X123254643Y-96760057D02*
X123159405Y-96902914D01*
X123159405Y-96902914D02*
X123111786Y-97093390D01*
X123111786Y-97093390D02*
X123111786Y-97474342D01*
X123111786Y-97474342D02*
X123159405Y-97569580D01*
X123159405Y-97569580D02*
X123207024Y-97617200D01*
X123207024Y-97617200D02*
X123302262Y-97664819D01*
X123302262Y-97664819D02*
X123492738Y-97664819D01*
X123492738Y-97664819D02*
X123587976Y-97617200D01*
X123587976Y-97617200D02*
X123635595Y-97569580D01*
X123635595Y-97569580D02*
X123683214Y-97474342D01*
X123683214Y-97474342D02*
X123683214Y-97236247D01*
X123683214Y-97236247D02*
X123635595Y-97141009D01*
X123635595Y-97141009D02*
X123587976Y-97093390D01*
X123587976Y-97093390D02*
X123492738Y-97045771D01*
X123492738Y-97045771D02*
X123302262Y-97045771D01*
X123302262Y-97045771D02*
X123207024Y-97093390D01*
X123207024Y-97093390D02*
X123159405Y-97141009D01*
X123159405Y-97141009D02*
X123111786Y-97236247D01*
X30353095Y-52884819D02*
X30353095Y-51884819D01*
X30353095Y-52361009D02*
X30924523Y-52361009D01*
X30924523Y-52884819D02*
X30924523Y-51884819D01*
X31353095Y-51980057D02*
X31400714Y-51932438D01*
X31400714Y-51932438D02*
X31495952Y-51884819D01*
X31495952Y-51884819D02*
X31734047Y-51884819D01*
X31734047Y-51884819D02*
X31829285Y-51932438D01*
X31829285Y-51932438D02*
X31876904Y-51980057D01*
X31876904Y-51980057D02*
X31924523Y-52075295D01*
X31924523Y-52075295D02*
X31924523Y-52170533D01*
X31924523Y-52170533D02*
X31876904Y-52313390D01*
X31876904Y-52313390D02*
X31305476Y-52884819D01*
X31305476Y-52884819D02*
X31924523Y-52884819D01*
X114044819Y-68746666D02*
X113568628Y-69079999D01*
X114044819Y-69318094D02*
X113044819Y-69318094D01*
X113044819Y-69318094D02*
X113044819Y-68937142D01*
X113044819Y-68937142D02*
X113092438Y-68841904D01*
X113092438Y-68841904D02*
X113140057Y-68794285D01*
X113140057Y-68794285D02*
X113235295Y-68746666D01*
X113235295Y-68746666D02*
X113378152Y-68746666D01*
X113378152Y-68746666D02*
X113473390Y-68794285D01*
X113473390Y-68794285D02*
X113521009Y-68841904D01*
X113521009Y-68841904D02*
X113568628Y-68937142D01*
X113568628Y-68937142D02*
X113568628Y-69318094D01*
X113044819Y-68413332D02*
X113044819Y-67794285D01*
X113044819Y-67794285D02*
X113425771Y-68127618D01*
X113425771Y-68127618D02*
X113425771Y-67984761D01*
X113425771Y-67984761D02*
X113473390Y-67889523D01*
X113473390Y-67889523D02*
X113521009Y-67841904D01*
X113521009Y-67841904D02*
X113616247Y-67794285D01*
X113616247Y-67794285D02*
X113854342Y-67794285D01*
X113854342Y-67794285D02*
X113949580Y-67841904D01*
X113949580Y-67841904D02*
X113997200Y-67889523D01*
X113997200Y-67889523D02*
X114044819Y-67984761D01*
X114044819Y-67984761D02*
X114044819Y-68270475D01*
X114044819Y-68270475D02*
X113997200Y-68365713D01*
X113997200Y-68365713D02*
X113949580Y-68413332D01*
X136826666Y-89384819D02*
X136826666Y-90099104D01*
X136826666Y-90099104D02*
X136779047Y-90241961D01*
X136779047Y-90241961D02*
X136683809Y-90337200D01*
X136683809Y-90337200D02*
X136540952Y-90384819D01*
X136540952Y-90384819D02*
X136445714Y-90384819D01*
X137255238Y-89480057D02*
X137302857Y-89432438D01*
X137302857Y-89432438D02*
X137398095Y-89384819D01*
X137398095Y-89384819D02*
X137636190Y-89384819D01*
X137636190Y-89384819D02*
X137731428Y-89432438D01*
X137731428Y-89432438D02*
X137779047Y-89480057D01*
X137779047Y-89480057D02*
X137826666Y-89575295D01*
X137826666Y-89575295D02*
X137826666Y-89670533D01*
X137826666Y-89670533D02*
X137779047Y-89813390D01*
X137779047Y-89813390D02*
X137207619Y-90384819D01*
X137207619Y-90384819D02*
X137826666Y-90384819D01*
X30353095Y-95429819D02*
X30353095Y-94429819D01*
X30353095Y-94906009D02*
X30924523Y-94906009D01*
X30924523Y-95429819D02*
X30924523Y-94429819D01*
X31305476Y-94429819D02*
X31924523Y-94429819D01*
X31924523Y-94429819D02*
X31591190Y-94810771D01*
X31591190Y-94810771D02*
X31734047Y-94810771D01*
X31734047Y-94810771D02*
X31829285Y-94858390D01*
X31829285Y-94858390D02*
X31876904Y-94906009D01*
X31876904Y-94906009D02*
X31924523Y-95001247D01*
X31924523Y-95001247D02*
X31924523Y-95239342D01*
X31924523Y-95239342D02*
X31876904Y-95334580D01*
X31876904Y-95334580D02*
X31829285Y-95382200D01*
X31829285Y-95382200D02*
X31734047Y-95429819D01*
X31734047Y-95429819D02*
X31448333Y-95429819D01*
X31448333Y-95429819D02*
X31353095Y-95382200D01*
X31353095Y-95382200D02*
X31305476Y-95334580D01*
X36203095Y-55876819D02*
X36774523Y-55876819D01*
X36488809Y-56876819D02*
X36488809Y-55876819D01*
X37107857Y-56876819D02*
X37107857Y-55876819D01*
X37107857Y-55876819D02*
X37488809Y-55876819D01*
X37488809Y-55876819D02*
X37584047Y-55924438D01*
X37584047Y-55924438D02*
X37631666Y-55972057D01*
X37631666Y-55972057D02*
X37679285Y-56067295D01*
X37679285Y-56067295D02*
X37679285Y-56210152D01*
X37679285Y-56210152D02*
X37631666Y-56305390D01*
X37631666Y-56305390D02*
X37584047Y-56353009D01*
X37584047Y-56353009D02*
X37488809Y-56400628D01*
X37488809Y-56400628D02*
X37107857Y-56400628D01*
X38631666Y-56876819D02*
X38060238Y-56876819D01*
X38345952Y-56876819D02*
X38345952Y-55876819D01*
X38345952Y-55876819D02*
X38250714Y-56019676D01*
X38250714Y-56019676D02*
X38155476Y-56114914D01*
X38155476Y-56114914D02*
X38060238Y-56162533D01*
X119124819Y-68746666D02*
X118648628Y-69079999D01*
X119124819Y-69318094D02*
X118124819Y-69318094D01*
X118124819Y-69318094D02*
X118124819Y-68937142D01*
X118124819Y-68937142D02*
X118172438Y-68841904D01*
X118172438Y-68841904D02*
X118220057Y-68794285D01*
X118220057Y-68794285D02*
X118315295Y-68746666D01*
X118315295Y-68746666D02*
X118458152Y-68746666D01*
X118458152Y-68746666D02*
X118553390Y-68794285D01*
X118553390Y-68794285D02*
X118601009Y-68841904D01*
X118601009Y-68841904D02*
X118648628Y-68937142D01*
X118648628Y-68937142D02*
X118648628Y-69318094D01*
X118124819Y-67889523D02*
X118124819Y-68079999D01*
X118124819Y-68079999D02*
X118172438Y-68175237D01*
X118172438Y-68175237D02*
X118220057Y-68222856D01*
X118220057Y-68222856D02*
X118362914Y-68318094D01*
X118362914Y-68318094D02*
X118553390Y-68365713D01*
X118553390Y-68365713D02*
X118934342Y-68365713D01*
X118934342Y-68365713D02*
X119029580Y-68318094D01*
X119029580Y-68318094D02*
X119077200Y-68270475D01*
X119077200Y-68270475D02*
X119124819Y-68175237D01*
X119124819Y-68175237D02*
X119124819Y-67984761D01*
X119124819Y-67984761D02*
X119077200Y-67889523D01*
X119077200Y-67889523D02*
X119029580Y-67841904D01*
X119029580Y-67841904D02*
X118934342Y-67794285D01*
X118934342Y-67794285D02*
X118696247Y-67794285D01*
X118696247Y-67794285D02*
X118601009Y-67841904D01*
X118601009Y-67841904D02*
X118553390Y-67889523D01*
X118553390Y-67889523D02*
X118505771Y-67984761D01*
X118505771Y-67984761D02*
X118505771Y-68175237D01*
X118505771Y-68175237D02*
X118553390Y-68270475D01*
X118553390Y-68270475D02*
X118601009Y-68318094D01*
X118601009Y-68318094D02*
X118696247Y-68365713D01*
%TO.C,TP3*%
D11*
X59620000Y-81280000D02*
G75*
G02*
X57220000Y-81280000I-1200000J0D01*
G01*
X57220000Y-81280000D02*
G75*
G02*
X59620000Y-81280000I1200000J0D01*
G01*
%TO.C,TP7*%
X42475000Y-86995000D02*
G75*
G02*
X40075000Y-86995000I-1200000J0D01*
G01*
X40075000Y-86995000D02*
G75*
G02*
X42475000Y-86995000I1200000J0D01*
G01*
%TO.C,TP4*%
X65970000Y-66040000D02*
G75*
G02*
X63570000Y-66040000I-1200000J0D01*
G01*
X63570000Y-66040000D02*
G75*
G02*
X65970000Y-66040000I1200000J0D01*
G01*
%TO.C,C11*%
X103230000Y-94246248D02*
X103230000Y-95668752D01*
X105050000Y-94246248D02*
X105050000Y-95668752D01*
D12*
%TO.C,*%
G36*
X104605666Y-62526333D02*
G01*
X104563333Y-62568666D01*
X104520999Y-62526333D01*
X104563333Y-62483999D01*
X104605666Y-62526333D01*
G37*
G36*
X105536999Y-59732333D02*
G01*
X105494666Y-59774666D01*
X105452333Y-59732333D01*
X105494666Y-59689999D01*
X105536999Y-59732333D01*
G37*
G36*
X107145666Y-66674999D02*
G01*
X107103333Y-66717333D01*
X107060999Y-66674999D01*
X107103333Y-66632666D01*
X107145666Y-66674999D01*
G37*
G36*
X108246333Y-78951666D02*
G01*
X108203999Y-78993999D01*
X108161666Y-78951666D01*
X108203999Y-78909333D01*
X108246333Y-78951666D01*
G37*
G36*
X108669666Y-72770999D02*
G01*
X108627333Y-72813333D01*
X108584999Y-72770999D01*
X108627333Y-72728666D01*
X108669666Y-72770999D01*
G37*
G36*
X109770333Y-66082333D02*
G01*
X109727999Y-66124666D01*
X109685666Y-66082333D01*
X109727999Y-66039999D01*
X109770333Y-66082333D01*
G37*
G36*
X113664999Y-60155666D02*
G01*
X113622666Y-60197999D01*
X113580333Y-60155666D01*
X113622666Y-60113333D01*
X113664999Y-60155666D01*
G37*
G36*
X113749666Y-78358999D02*
G01*
X113707333Y-78401333D01*
X113664999Y-78358999D01*
X113707333Y-78316666D01*
X113749666Y-78358999D01*
G37*
G36*
X114511666Y-69468999D02*
G01*
X114469333Y-69511333D01*
X114426999Y-69468999D01*
X114469333Y-69426666D01*
X114511666Y-69468999D01*
G37*
G36*
X114765666Y-74125666D02*
G01*
X114723333Y-74167999D01*
X114680999Y-74125666D01*
X114723333Y-74083333D01*
X114765666Y-74125666D01*
G37*
G36*
X115019666Y-84708999D02*
G01*
X114977333Y-84751333D01*
X114934999Y-84708999D01*
X114977333Y-84666666D01*
X115019666Y-84708999D01*
G37*
G36*
X115273666Y-75226333D02*
G01*
X115231333Y-75268666D01*
X115188999Y-75226333D01*
X115231333Y-75183999D01*
X115273666Y-75226333D01*
G37*
G36*
X115612333Y-82338333D02*
G01*
X115569999Y-82380666D01*
X115527666Y-82338333D01*
X115569999Y-82295999D01*
X115612333Y-82338333D01*
G37*
G36*
X116458999Y-53212999D02*
G01*
X116416666Y-53255333D01*
X116374333Y-53212999D01*
X116416666Y-53170666D01*
X116458999Y-53212999D01*
G37*
G36*
X117559666Y-75564999D02*
G01*
X117517333Y-75607333D01*
X117474999Y-75564999D01*
X117517333Y-75522666D01*
X117559666Y-75564999D01*
G37*
G36*
X120776999Y-87841666D02*
G01*
X120734666Y-87883999D01*
X120692333Y-87841666D01*
X120734666Y-87799333D01*
X120776999Y-87841666D01*
G37*
G36*
X121877666Y-61933666D02*
G01*
X121835333Y-61975999D01*
X121792999Y-61933666D01*
X121835333Y-61891333D01*
X121877666Y-61933666D01*
G37*
G36*
X122216333Y-61679666D02*
G01*
X122173999Y-61721999D01*
X122131666Y-61679666D01*
X122173999Y-61637333D01*
X122216333Y-61679666D01*
G37*
G36*
X126788333Y-71331666D02*
G01*
X126745999Y-71373999D01*
X126703666Y-71331666D01*
X126745999Y-71289333D01*
X126788333Y-71331666D01*
G37*
G36*
X128312333Y-80644999D02*
G01*
X128269999Y-80687333D01*
X128227666Y-80644999D01*
X128269999Y-80602666D01*
X128312333Y-80644999D01*
G37*
G36*
X128566333Y-78274333D02*
G01*
X128523999Y-78316666D01*
X128481666Y-78274333D01*
X128523999Y-78231999D01*
X128566333Y-78274333D01*
G37*
G36*
X128650999Y-78866999D02*
G01*
X128608666Y-78909333D01*
X128566333Y-78866999D01*
X128608666Y-78824666D01*
X128650999Y-78866999D01*
G37*
G36*
X131021666Y-77935666D02*
G01*
X130979333Y-77977999D01*
X130936999Y-77935666D01*
X130979333Y-77893333D01*
X131021666Y-77935666D01*
G37*
G36*
X133307666Y-71500999D02*
G01*
X133265333Y-71543333D01*
X133222999Y-71500999D01*
X133265333Y-71458666D01*
X133307666Y-71500999D01*
G37*
G36*
X134323666Y-60494333D02*
G01*
X134281333Y-60536666D01*
X134238999Y-60494333D01*
X134281333Y-60451999D01*
X134323666Y-60494333D01*
G37*
G36*
X105000777Y-72164221D02*
G01*
X104989155Y-72214556D01*
X104944333Y-72220666D01*
X104874642Y-72189688D01*
X104887888Y-72164221D01*
X104988368Y-72154088D01*
X105000777Y-72164221D01*
G37*
G36*
X117785444Y-76058888D02*
G01*
X117773821Y-76109222D01*
X117728999Y-76115333D01*
X117659309Y-76084354D01*
X117672555Y-76058888D01*
X117773034Y-76048755D01*
X117785444Y-76058888D01*
G37*
G36*
X120240777Y-76143555D02*
G01*
X120250910Y-76244034D01*
X120240777Y-76256444D01*
X120190443Y-76244821D01*
X120184333Y-76199999D01*
X120215311Y-76130309D01*
X120240777Y-76143555D01*
G37*
G36*
X120833444Y-79276221D02*
G01*
X120821821Y-79326556D01*
X120776999Y-79332666D01*
X120707309Y-79301688D01*
X120720555Y-79276221D01*
X120821034Y-79266088D01*
X120833444Y-79276221D01*
G37*
G36*
X121680110Y-62004221D02*
G01*
X121668488Y-62054556D01*
X121623666Y-62060666D01*
X121553976Y-62029688D01*
X121567221Y-62004221D01*
X121667701Y-61994088D01*
X121680110Y-62004221D01*
G37*
G36*
X122442110Y-71910221D02*
G01*
X122452243Y-72010701D01*
X122442110Y-72023110D01*
X122391776Y-72011488D01*
X122385666Y-71966666D01*
X122416644Y-71896976D01*
X122442110Y-71910221D01*
G37*
G36*
X129554110Y-76058888D02*
G01*
X129564243Y-76159368D01*
X129554110Y-76171777D01*
X129503776Y-76160155D01*
X129497666Y-76115333D01*
X129528644Y-76045642D01*
X129554110Y-76058888D01*
G37*
G36*
X138613444Y-72079555D02*
G01*
X138601821Y-72129889D01*
X138556999Y-72135999D01*
X138487309Y-72105021D01*
X138500555Y-72079555D01*
X138601034Y-72069422D01*
X138613444Y-72079555D01*
G37*
G36*
X105211777Y-59353351D02*
G01*
X105191182Y-59450353D01*
X105075805Y-59505707D01*
X104962839Y-59464800D01*
X104944333Y-59393666D01*
X105005198Y-59286910D01*
X105092499Y-59282784D01*
X105211777Y-59353351D01*
G37*
G36*
X113712142Y-59746560D02*
G01*
X113697304Y-59812602D01*
X113628982Y-59931776D01*
X113584803Y-59911812D01*
X113580333Y-59864329D01*
X113641824Y-59749520D01*
X113664029Y-59732932D01*
X113712142Y-59746560D01*
G37*
G36*
X136583817Y-67354991D02*
G01*
X136535505Y-67417244D01*
X136464317Y-67470748D01*
X136482082Y-67385910D01*
X136488109Y-67369848D01*
X136555182Y-67266170D01*
X136593314Y-67265425D01*
X136583817Y-67354991D01*
G37*
G36*
X105113666Y-59689999D02*
G01*
X105247629Y-59793563D01*
X105282999Y-59862311D01*
X105236459Y-59937251D01*
X105121291Y-59886670D01*
X105050166Y-59817352D01*
X104952826Y-59677936D01*
X104986591Y-59638773D01*
X105113666Y-59689999D01*
G37*
G36*
X119565103Y-58728689D02*
G01*
X119549333Y-58758666D01*
X119469558Y-58839523D01*
X119454672Y-58843333D01*
X119448896Y-58788642D01*
X119464666Y-58758666D01*
X119544440Y-58677809D01*
X119559326Y-58673999D01*
X119565103Y-58728689D01*
G37*
G36*
X136778890Y-77005898D02*
G01*
X137021180Y-77113745D01*
X137263317Y-77249772D01*
X137436923Y-77378207D01*
X137468033Y-77413566D01*
X137575543Y-77451370D01*
X137610349Y-77437132D01*
X137725213Y-77438922D01*
X137749527Y-77464920D01*
X137860580Y-77512879D01*
X137921500Y-77500808D01*
X138055381Y-77526271D01*
X138223845Y-77650905D01*
X138245997Y-77673839D01*
X138407706Y-77821275D01*
X138534773Y-77892209D01*
X138545541Y-77893333D01*
X138598345Y-77973873D01*
X138630266Y-78217218D01*
X138641631Y-78625950D01*
X138641666Y-78655333D01*
X138637312Y-78990913D01*
X138625651Y-79251086D01*
X138608781Y-79398073D01*
X138599333Y-79417333D01*
X138558109Y-79351903D01*
X138556999Y-79332666D01*
X138489877Y-79254483D01*
X138448254Y-79247999D01*
X138335906Y-79181371D01*
X138204415Y-79018334D01*
X138188326Y-78992067D01*
X138012969Y-78765864D01*
X137811635Y-78589900D01*
X137599866Y-78441628D01*
X137442632Y-78316666D01*
X137274177Y-78173349D01*
X137187234Y-78103678D01*
X137079605Y-78020333D01*
X138472333Y-78020333D01*
X138514666Y-78062666D01*
X138556999Y-78020333D01*
X138514666Y-77977999D01*
X138472333Y-78020333D01*
X137079605Y-78020333D01*
X136896946Y-77878887D01*
X136722047Y-77738166D01*
X136642272Y-77664233D01*
X136637357Y-77639806D01*
X136642755Y-77639333D01*
X136646745Y-77574602D01*
X136582930Y-77416107D01*
X136569507Y-77389537D01*
X136462519Y-77145566D01*
X136460534Y-77011669D01*
X136565561Y-76963508D01*
X136604826Y-76961999D01*
X136778890Y-77005898D01*
G37*
G36*
X110257289Y-71351672D02*
G01*
X110243838Y-71426436D01*
X110236715Y-71521407D01*
X110346666Y-71532454D01*
X110406133Y-71522457D01*
X110583118Y-71516658D01*
X110666350Y-71554687D01*
X110770758Y-71597750D01*
X110984609Y-71624115D01*
X111116874Y-71627999D01*
X111402013Y-71664309D01*
X111631117Y-71757940D01*
X111767708Y-71885945D01*
X111775313Y-72025376D01*
X111768334Y-72037847D01*
X111654316Y-72084302D01*
X111374232Y-72126743D01*
X110931304Y-72164968D01*
X110328758Y-72198773D01*
X109569816Y-72227957D01*
X108657701Y-72252318D01*
X108203999Y-72261544D01*
X107662758Y-72273734D01*
X107171453Y-72288776D01*
X106758057Y-72305496D01*
X106450541Y-72322716D01*
X106276875Y-72339260D01*
X106256666Y-72343429D01*
X106068666Y-72352838D01*
X105981021Y-72322308D01*
X105834535Y-72284519D01*
X105598032Y-72275189D01*
X105515115Y-72279458D01*
X105281359Y-72284580D01*
X105154046Y-72235407D01*
X105118474Y-72178333D01*
X105198333Y-72178333D01*
X105240666Y-72220666D01*
X105282999Y-72178333D01*
X105240666Y-72135999D01*
X105198333Y-72178333D01*
X105118474Y-72178333D01*
X105072420Y-72104440D01*
X105059137Y-72073083D01*
X104940566Y-71767593D01*
X104908225Y-71584340D01*
X104979605Y-71490804D01*
X105172198Y-71454466D01*
X105396759Y-71445439D01*
X105714279Y-71434983D01*
X105992006Y-71421737D01*
X106129666Y-71412004D01*
X106420781Y-71394260D01*
X106813266Y-71383748D01*
X107259429Y-71380238D01*
X107711577Y-71383503D01*
X108122018Y-71393314D01*
X108443059Y-71409443D01*
X108584999Y-71423760D01*
X108875782Y-71461860D01*
X109135061Y-71487943D01*
X109192999Y-71491786D01*
X109384700Y-71521795D01*
X109482276Y-71565721D01*
X109639062Y-71627468D01*
X109808649Y-71585432D01*
X109887676Y-71495633D01*
X109971568Y-71408087D01*
X110023735Y-71415963D01*
X110102183Y-71409815D01*
X110108999Y-71378996D01*
X110174445Y-71293529D01*
X110202724Y-71289333D01*
X110257289Y-71351672D01*
G37*
G36*
X105383484Y-66228544D02*
G01*
X105582502Y-66288007D01*
X105848320Y-66369182D01*
X106042251Y-66416177D01*
X106116574Y-66419980D01*
X106194100Y-66442794D01*
X106265612Y-66502517D01*
X106408769Y-66593104D01*
X106650606Y-66700150D01*
X106827033Y-66763363D01*
X107102561Y-66865856D01*
X107324512Y-66970912D01*
X107406333Y-67024544D01*
X107560666Y-67120662D01*
X107639166Y-67140666D01*
X107732613Y-67200606D01*
X107738333Y-67230654D01*
X107806464Y-67296820D01*
X107886499Y-67300054D01*
X108021800Y-67330545D01*
X108286776Y-67434147D01*
X108662783Y-67602264D01*
X109131178Y-67826300D01*
X109673318Y-68097660D01*
X110139069Y-68338574D01*
X110329558Y-68422898D01*
X110450685Y-68448258D01*
X110459350Y-68445271D01*
X110507379Y-68493941D01*
X110549216Y-68656881D01*
X110550519Y-68665530D01*
X110574601Y-68839221D01*
X110581315Y-68908175D01*
X110581169Y-68907991D01*
X110504647Y-68878442D01*
X110317536Y-68815406D01*
X110193666Y-68775256D01*
X109927636Y-68691280D01*
X109568873Y-68579655D01*
X109186674Y-68461920D01*
X109114166Y-68439733D01*
X108799646Y-68335300D01*
X108558630Y-68239444D01*
X108428392Y-68167674D01*
X108415666Y-68149134D01*
X108348188Y-68078239D01*
X108304511Y-68071999D01*
X108171594Y-68037128D01*
X107944602Y-67947100D01*
X107749819Y-67858030D01*
X107497525Y-67750404D01*
X107303363Y-67693179D01*
X107225974Y-67693693D01*
X107151054Y-67684719D01*
X107145666Y-67657061D01*
X107072106Y-67583464D01*
X106886588Y-67498581D01*
X106785833Y-67465686D01*
X106557780Y-67389894D01*
X106408096Y-67323076D01*
X106383666Y-67304176D01*
X106285429Y-67252288D01*
X106073676Y-67175112D01*
X105851487Y-67106313D01*
X105541800Y-67012171D01*
X105264431Y-66919951D01*
X105131820Y-66870484D01*
X104901140Y-66788477D01*
X104734476Y-66744302D01*
X104584058Y-66692654D01*
X104473840Y-66620272D01*
X104446387Y-66561927D01*
X104494191Y-66547999D01*
X104585586Y-66476986D01*
X104633074Y-66367669D01*
X104716765Y-66236584D01*
X104801965Y-66234053D01*
X104955898Y-66231551D01*
X105002689Y-66201776D01*
X105130848Y-66180962D01*
X105383484Y-66228544D01*
G37*
G36*
X105842806Y-59941152D02*
G01*
X105849362Y-59965166D01*
X105939462Y-60090999D01*
X106008874Y-60113333D01*
X106117503Y-60161082D01*
X106129666Y-60197999D01*
X106198364Y-60272827D01*
X106258424Y-60282666D01*
X106361870Y-60338975D01*
X106547475Y-60486981D01*
X106782383Y-60695305D01*
X107033736Y-60932567D01*
X107268678Y-61167385D01*
X107454352Y-61368379D01*
X107557901Y-61504171D01*
X107568999Y-61534342D01*
X107624408Y-61619037D01*
X107772644Y-61792526D01*
X107986722Y-62023945D01*
X108098166Y-62139597D01*
X108333138Y-62386761D01*
X108514538Y-62589549D01*
X108615402Y-62717259D01*
X108627333Y-62742175D01*
X108680817Y-62835525D01*
X108824701Y-63023621D01*
X109034128Y-63277152D01*
X109284239Y-63566808D01*
X109550180Y-63863278D01*
X109807094Y-64137252D01*
X109833833Y-64164857D01*
X110023891Y-64368364D01*
X110154677Y-64523765D01*
X110194653Y-64588965D01*
X110249687Y-64670614D01*
X110395792Y-64842340D01*
X110605908Y-65072900D01*
X110702653Y-65175479D01*
X111006400Y-65517744D01*
X111172291Y-65761770D01*
X111200353Y-65907612D01*
X111093033Y-65955333D01*
X110944652Y-65895601D01*
X110870999Y-65828333D01*
X110719295Y-65720371D01*
X110634854Y-65701333D01*
X110546173Y-65677385D01*
X110552615Y-65652828D01*
X110521912Y-65573604D01*
X110396362Y-65408596D01*
X110201659Y-65190952D01*
X110164560Y-65152167D01*
X109883955Y-64853235D01*
X109593250Y-64530551D01*
X109389333Y-64294081D01*
X109134394Y-63999092D01*
X108855282Y-63691595D01*
X108711999Y-63540740D01*
X108463908Y-63273956D01*
X108218011Y-62990509D01*
X108119333Y-62868942D01*
X107940847Y-62660958D01*
X107683730Y-62385843D01*
X107393433Y-62091691D01*
X107284064Y-61985109D01*
X107014180Y-61725336D01*
X106777793Y-61497766D01*
X106610447Y-61336617D01*
X106564397Y-61292248D01*
X106434036Y-61159694D01*
X106237167Y-60952056D01*
X106061504Y-60763082D01*
X105860426Y-60557489D01*
X105698083Y-60414402D01*
X105617004Y-60367333D01*
X105561244Y-60293628D01*
X105537030Y-60115570D01*
X105536999Y-60108336D01*
X105559150Y-59943894D01*
X105613217Y-59896881D01*
X105617968Y-59899381D01*
X105664093Y-60009523D01*
X105651243Y-60073711D01*
X105656433Y-60180780D01*
X105697274Y-60197999D01*
X105774220Y-60126037D01*
X105800821Y-60007499D01*
X105815202Y-59892909D01*
X105842806Y-59941152D01*
G37*
G36*
X132811926Y-80945521D02*
G01*
X133053666Y-81116983D01*
X133269690Y-81287518D01*
X133434259Y-81405115D01*
X133498166Y-81439495D01*
X133582833Y-81456388D01*
X133672795Y-81469816D01*
X133807136Y-81485503D01*
X134019848Y-81568333D01*
X134159849Y-81730039D01*
X134183128Y-81916803D01*
X134176462Y-81937118D01*
X134169543Y-82025743D01*
X134218515Y-82012326D01*
X134312594Y-82033268D01*
X134367653Y-82131876D01*
X134460465Y-82301306D01*
X134625435Y-82512971D01*
X134691422Y-82584423D01*
X134921056Y-82836048D01*
X135144587Y-83103619D01*
X135180265Y-83149484D01*
X135365914Y-83370431D01*
X135612651Y-83636597D01*
X135793925Y-83818749D01*
X135996917Y-84029305D01*
X136138692Y-84203322D01*
X136186333Y-84295707D01*
X136257267Y-84392179D01*
X136361949Y-84438841D01*
X136524286Y-84547152D01*
X136580747Y-84649892D01*
X136684837Y-84813180D01*
X136828464Y-84924483D01*
X136979941Y-85042719D01*
X137032999Y-85146639D01*
X137080966Y-85249843D01*
X137113014Y-85259333D01*
X137202573Y-85320537D01*
X137362260Y-85481421D01*
X137558388Y-85707887D01*
X137568862Y-85720707D01*
X137762151Y-85939812D01*
X137918749Y-86084196D01*
X138007040Y-86125056D01*
X138010337Y-86122874D01*
X138042098Y-86135015D01*
X138024468Y-86207521D01*
X138017434Y-86310873D01*
X138095644Y-86304296D01*
X138200722Y-86322263D01*
X138218333Y-86393274D01*
X138264397Y-86511593D01*
X138309047Y-86529333D01*
X138461773Y-86589834D01*
X138563493Y-86780544D01*
X138619613Y-87115273D01*
X138632737Y-87356550D01*
X138635487Y-87653857D01*
X138626195Y-87871484D01*
X138606850Y-87967342D01*
X138603805Y-87968666D01*
X138558236Y-87903312D01*
X138556999Y-87883999D01*
X138509504Y-87811134D01*
X138493499Y-87811445D01*
X138348231Y-87791810D01*
X138153693Y-87716718D01*
X137976321Y-87618251D01*
X137882549Y-87528490D01*
X137879666Y-87515018D01*
X137825109Y-87379563D01*
X137694131Y-87217339D01*
X137535772Y-87075762D01*
X137399071Y-87002244D01*
X137353461Y-87006251D01*
X137301342Y-87011491D01*
X137324446Y-86960573D01*
X137306140Y-86838488D01*
X137167674Y-86642666D01*
X137062361Y-86529374D01*
X136828308Y-86284631D01*
X136606727Y-86038899D01*
X136524999Y-85942494D01*
X136356903Y-85743127D01*
X136134699Y-85487258D01*
X135897072Y-85218544D01*
X135682706Y-84980638D01*
X135530285Y-84817195D01*
X135506983Y-84793666D01*
X135324928Y-84608796D01*
X135076131Y-84349235D01*
X134808138Y-84065242D01*
X134568497Y-83807071D01*
X134450666Y-83677149D01*
X134241167Y-83452957D01*
X133980437Y-83187987D01*
X133823691Y-83034702D01*
X133554658Y-82771460D01*
X133248470Y-82464312D01*
X133042925Y-82253666D01*
X132798131Y-81999666D01*
X132799666Y-81999666D01*
X132841999Y-82041999D01*
X132884333Y-81999666D01*
X132841999Y-81957333D01*
X132799666Y-81999666D01*
X132798131Y-81999666D01*
X132794968Y-81996384D01*
X132558590Y-81751325D01*
X132407141Y-81594491D01*
X132264470Y-81419829D01*
X132246312Y-81304972D01*
X132277740Y-81260058D01*
X132365632Y-81092012D01*
X132376333Y-81015274D01*
X132431185Y-80872686D01*
X132582835Y-80850404D01*
X132811926Y-80945521D01*
G37*
G36*
X116527196Y-62658073D02*
G01*
X116797666Y-62771311D01*
X117038943Y-62940570D01*
X117226551Y-63126798D01*
X117323703Y-63289587D01*
X117326175Y-63351833D01*
X117372691Y-63409836D01*
X117415483Y-63415333D01*
X117542820Y-63478309D01*
X117728000Y-63640141D01*
X117932878Y-63860182D01*
X118119312Y-64097786D01*
X118240583Y-64294597D01*
X118398642Y-64518027D01*
X118574924Y-64675562D01*
X118850938Y-64897026D01*
X119029958Y-65130573D01*
X119080849Y-65299166D01*
X119152734Y-65424445D01*
X119246952Y-65447333D01*
X119433421Y-65504724D01*
X119557648Y-65594743D01*
X119680399Y-65684475D01*
X119740260Y-65636549D01*
X119819433Y-65569858D01*
X119856606Y-65581094D01*
X119983208Y-65578617D01*
X120046188Y-65541248D01*
X120178235Y-65481166D01*
X120426412Y-65405837D01*
X120740247Y-65330324D01*
X120783313Y-65321263D01*
X121120944Y-65247262D01*
X121168499Y-65235666D01*
X123655666Y-65235666D01*
X123697999Y-65277999D01*
X123740333Y-65235666D01*
X123697999Y-65193333D01*
X123655666Y-65235666D01*
X121168499Y-65235666D01*
X121418373Y-65174736D01*
X121614833Y-65118565D01*
X121623666Y-65115476D01*
X122052560Y-64967586D01*
X122416414Y-64859561D01*
X122769784Y-64779642D01*
X123167223Y-64716069D01*
X123663288Y-64657082D01*
X123833392Y-64639154D01*
X124139820Y-64613532D01*
X124319010Y-64619756D01*
X124411002Y-64663371D01*
X124446922Y-64724118D01*
X124457388Y-64901649D01*
X124387427Y-65068308D01*
X124271989Y-65162486D01*
X124199506Y-65160223D01*
X124094279Y-65156933D01*
X124078999Y-65186120D01*
X124008022Y-65258330D01*
X123847517Y-65299202D01*
X123676121Y-65297244D01*
X123585157Y-65258290D01*
X123481042Y-65252582D01*
X123388946Y-65346080D01*
X123209107Y-65489528D01*
X122916605Y-65608457D01*
X122568013Y-65683964D01*
X122327163Y-65700860D01*
X122125865Y-65722558D01*
X122011990Y-65774346D01*
X122010463Y-65776620D01*
X121901048Y-65850330D01*
X121730299Y-65909254D01*
X121518506Y-65978870D01*
X121236290Y-66093139D01*
X121073333Y-66166843D01*
X120803780Y-66285481D01*
X120573649Y-66371635D01*
X120480666Y-66397051D01*
X120360281Y-66458654D01*
X120333590Y-66614733D01*
X120338854Y-66676939D01*
X120384477Y-66872821D01*
X120450246Y-66978695D01*
X120550388Y-67083325D01*
X120642746Y-67240428D01*
X120700020Y-67390842D01*
X120694911Y-67475408D01*
X120681264Y-67479333D01*
X120661997Y-67526691D01*
X120722571Y-67606333D01*
X120884882Y-67711558D01*
X120978782Y-67733333D01*
X121088856Y-67812601D01*
X121163019Y-68026649D01*
X121232703Y-68253711D01*
X121328040Y-68410684D01*
X121336189Y-68418016D01*
X121438459Y-68582517D01*
X121454333Y-68675033D01*
X121491847Y-68806882D01*
X121538999Y-68833999D01*
X121614807Y-68902272D01*
X121623666Y-68956792D01*
X121687782Y-69109214D01*
X121731532Y-69147292D01*
X121855308Y-69264734D01*
X121979120Y-69426666D01*
X122133810Y-69638099D01*
X122321776Y-69867127D01*
X122336920Y-69884335D01*
X122478330Y-70069505D01*
X122551992Y-70216050D01*
X122554999Y-70237113D01*
X122619766Y-70359163D01*
X122652830Y-70376498D01*
X122719853Y-70468529D01*
X122754110Y-70641716D01*
X122751973Y-70823900D01*
X122709812Y-70942923D01*
X122681999Y-70956623D01*
X122678011Y-70987362D01*
X122766666Y-71035333D01*
X122876007Y-71091184D01*
X122831777Y-71111553D01*
X122787833Y-71114048D01*
X122663075Y-71189408D01*
X122639666Y-71289333D01*
X122578967Y-71433043D01*
X122491499Y-71461240D01*
X122388856Y-71470931D01*
X122434198Y-71516042D01*
X122492170Y-71550489D01*
X122662879Y-71596185D01*
X122772640Y-71536068D01*
X122775095Y-71407768D01*
X122774273Y-71303918D01*
X122804601Y-71289333D01*
X122900444Y-71356950D01*
X122920756Y-71514739D01*
X122879246Y-71649166D01*
X122727250Y-71767806D01*
X122456130Y-71772220D01*
X122216333Y-71712666D01*
X122097169Y-71661756D01*
X122110499Y-71636439D01*
X122185723Y-71554709D01*
X122216321Y-71361303D01*
X122216333Y-71357066D01*
X122203180Y-71183162D01*
X122154917Y-71155153D01*
X122114733Y-71187733D01*
X121974121Y-71281335D01*
X121887827Y-71252485D01*
X121877666Y-71201126D01*
X121824802Y-71078699D01*
X121719554Y-70943205D01*
X121574763Y-70753712D01*
X121423919Y-70508037D01*
X121402054Y-70467129D01*
X121228602Y-70190449D01*
X121021560Y-69930444D01*
X121005116Y-69912971D01*
X120860330Y-69722954D01*
X120794550Y-69557380D01*
X120795353Y-69524755D01*
X120751051Y-69380365D01*
X120651903Y-69297229D01*
X120508558Y-69169210D01*
X120356187Y-68953765D01*
X120311333Y-68871250D01*
X120156371Y-68594362D01*
X119986914Y-68337456D01*
X119952653Y-68292236D01*
X119838585Y-68117132D01*
X119801655Y-67995353D01*
X119805716Y-67983477D01*
X119775511Y-67904566D01*
X119698729Y-67863718D01*
X119563374Y-67766330D01*
X119393137Y-67578911D01*
X119317304Y-67476622D01*
X119072241Y-67226453D01*
X118797046Y-67142593D01*
X118491066Y-67225030D01*
X118174323Y-67454568D01*
X118025217Y-67522339D01*
X117955570Y-67515669D01*
X117833017Y-67545460D01*
X117676451Y-67672911D01*
X117659225Y-67692076D01*
X117510837Y-67824882D01*
X117397271Y-67862870D01*
X117387871Y-67858811D01*
X117311638Y-67867897D01*
X117305666Y-67897669D01*
X117237617Y-67978244D01*
X117184713Y-67987333D01*
X117021221Y-68040979D01*
X116948606Y-68093166D01*
X116680039Y-68284862D01*
X116402809Y-68396386D01*
X116290815Y-68410666D01*
X116152675Y-68449631D01*
X116120333Y-68504391D01*
X116059891Y-68563896D01*
X116006474Y-68554424D01*
X115874713Y-68580603D01*
X115776116Y-68672366D01*
X115640316Y-68799887D01*
X115546311Y-68833999D01*
X115473996Y-68880373D01*
X115485333Y-68918666D01*
X115460732Y-68991371D01*
X115285048Y-69025674D01*
X115128082Y-69026508D01*
X115020795Y-69093284D01*
X114974182Y-69182594D01*
X114859934Y-69353887D01*
X114761837Y-69428715D01*
X114646377Y-69473799D01*
X114641126Y-69409818D01*
X114649630Y-69386292D01*
X114639452Y-69283810D01*
X114511666Y-69257333D01*
X114376525Y-69224822D01*
X114375969Y-69122467D01*
X114437928Y-68932670D01*
X114478872Y-68783800D01*
X114544222Y-68629038D01*
X114605511Y-68579999D01*
X114672524Y-68511288D01*
X114680999Y-68452999D01*
X114748772Y-68340751D01*
X114807999Y-68325999D01*
X114920598Y-68269139D01*
X114935200Y-68220166D01*
X115005757Y-68130662D01*
X115189674Y-68001560D01*
X115422034Y-67873791D01*
X115704640Y-67733592D01*
X115903180Y-67630361D01*
X116069142Y-67533293D01*
X116254011Y-67411582D01*
X116509275Y-67234423D01*
X116619328Y-67157427D01*
X116927216Y-66957660D01*
X117232376Y-66785101D01*
X117467005Y-66677820D01*
X117758297Y-66556585D01*
X118020997Y-66415483D01*
X118229804Y-66273891D01*
X118359420Y-66151184D01*
X118384546Y-66066738D01*
X118300499Y-66039464D01*
X118204445Y-65974356D01*
X118070196Y-65817762D01*
X117940695Y-65626825D01*
X117858883Y-65458687D01*
X117855520Y-65447333D01*
X117753720Y-65211649D01*
X117604968Y-65004115D01*
X117457107Y-64891328D01*
X117455770Y-64890896D01*
X117342084Y-64832593D01*
X117334663Y-64797446D01*
X117315017Y-64701623D01*
X117177891Y-64508340D01*
X116933287Y-64231590D01*
X116920336Y-64217846D01*
X116804772Y-64061661D01*
X116774362Y-63950910D01*
X116727394Y-63860091D01*
X116588192Y-63770404D01*
X116430614Y-63655024D01*
X116374333Y-63539151D01*
X116333739Y-63450119D01*
X116289666Y-63457666D01*
X116217183Y-63438472D01*
X116204999Y-63377996D01*
X116163726Y-63262110D01*
X116126038Y-63245999D01*
X116032468Y-63175710D01*
X115985497Y-63016483D01*
X116000333Y-62845776D01*
X116034819Y-62781352D01*
X116245502Y-62650176D01*
X116527196Y-62658073D01*
G37*
G36*
X128725533Y-64897974D02*
G01*
X128818704Y-64949063D01*
X128820333Y-64957112D01*
X128882868Y-65067048D01*
X129032156Y-65216667D01*
X129210717Y-65356935D01*
X129361071Y-65438815D01*
X129391833Y-65444657D01*
X129490346Y-65494822D01*
X129497666Y-65522352D01*
X129566750Y-65603651D01*
X129737754Y-65710207D01*
X129786978Y-65734660D01*
X130004131Y-65873230D01*
X130263089Y-66087858D01*
X130443145Y-66264754D01*
X130662229Y-66495400D01*
X130855168Y-66691780D01*
X130958166Y-66790930D01*
X131075318Y-66937490D01*
X131106333Y-67029825D01*
X131163836Y-67090584D01*
X131302313Y-67059973D01*
X131374977Y-67013666D01*
X132206999Y-67013666D01*
X132249333Y-67055999D01*
X132291666Y-67013666D01*
X132249333Y-66971333D01*
X132206999Y-67013666D01*
X131374977Y-67013666D01*
X131470712Y-66952656D01*
X131496581Y-66928999D01*
X131952999Y-66928999D01*
X131995333Y-66971333D01*
X132037666Y-66928999D01*
X131995333Y-66886666D01*
X131952999Y-66928999D01*
X131496581Y-66928999D01*
X131514547Y-66912570D01*
X131689125Y-66814982D01*
X131749436Y-66801999D01*
X133900333Y-66801999D01*
X133931311Y-66871689D01*
X133956777Y-66858444D01*
X133966910Y-66757964D01*
X133956777Y-66745555D01*
X133906443Y-66757177D01*
X133900333Y-66801999D01*
X131749436Y-66801999D01*
X131810880Y-66788772D01*
X132047888Y-66766941D01*
X132206999Y-66748699D01*
X132373977Y-66738836D01*
X132671637Y-66731742D01*
X133061351Y-66727384D01*
X133504492Y-66725729D01*
X133962431Y-66726743D01*
X134396540Y-66730395D01*
X134768192Y-66736650D01*
X135038759Y-66745477D01*
X135127999Y-66751189D01*
X135467475Y-66797148D01*
X135738098Y-66862914D01*
X135901577Y-66937448D01*
X135932333Y-66983056D01*
X135982730Y-67030959D01*
X136004526Y-67021375D01*
X136118029Y-67033608D01*
X136237359Y-67105429D01*
X136345309Y-67198003D01*
X136313115Y-67209251D01*
X136214624Y-67183939D01*
X136048587Y-67178560D01*
X135976794Y-67221888D01*
X135987909Y-67301965D01*
X136026114Y-67309999D01*
X136117697Y-67325643D01*
X136079015Y-67363136D01*
X135945261Y-67408325D01*
X135751630Y-67447055D01*
X135657295Y-67458332D01*
X135425664Y-67495160D01*
X135275201Y-67547363D01*
X135253578Y-67566298D01*
X135150489Y-67617833D01*
X134991695Y-67622823D01*
X134861329Y-67585914D01*
X134831666Y-67543003D01*
X134770653Y-67521377D01*
X134669163Y-67560344D01*
X134523966Y-67602142D01*
X134464180Y-67542156D01*
X134422977Y-67494348D01*
X134414755Y-67521666D01*
X134332071Y-67562991D01*
X134114180Y-67592463D01*
X133795033Y-67605926D01*
X133722755Y-67606333D01*
X133399729Y-67613814D01*
X133147768Y-67633693D01*
X133009884Y-67662123D01*
X132997500Y-67671214D01*
X132903245Y-67699295D01*
X132880969Y-67688920D01*
X132760686Y-67692018D01*
X132570579Y-67763003D01*
X132552357Y-67772206D01*
X132306372Y-67865562D01*
X132084204Y-67902666D01*
X131912592Y-67936538D01*
X131875259Y-68014218D01*
X131988164Y-68099804D01*
X131995333Y-68102617D01*
X132107703Y-68200908D01*
X132122333Y-68254385D01*
X132175960Y-68387224D01*
X132287869Y-68533624D01*
X132458899Y-68755068D01*
X132623366Y-69032067D01*
X132757085Y-69314518D01*
X132835876Y-69552320D01*
X132841808Y-69681269D01*
X132858467Y-69856802D01*
X132932015Y-69970253D01*
X133022848Y-70126619D01*
X133023254Y-70230464D01*
X133026114Y-70366215D01*
X133058745Y-70403471D01*
X133107325Y-70499383D01*
X133097867Y-70524311D01*
X133122047Y-70610194D01*
X133171081Y-70638939D01*
X133244143Y-70744365D01*
X133285464Y-70946484D01*
X133291228Y-71174975D01*
X133257623Y-71359517D01*
X133213558Y-71422168D01*
X133178525Y-71522701D01*
X133203903Y-71572037D01*
X133259891Y-71720315D01*
X133294051Y-71944158D01*
X133294743Y-71954919D01*
X133332713Y-72205051D01*
X133399086Y-72402618D01*
X133448121Y-72611294D01*
X133433651Y-72731864D01*
X133426910Y-72865782D01*
X133471294Y-72897999D01*
X133558139Y-72952727D01*
X133561666Y-72973607D01*
X133492464Y-73071523D01*
X133325245Y-73096116D01*
X133180666Y-73061567D01*
X133092179Y-73008389D01*
X133131277Y-72988617D01*
X133210991Y-72957271D01*
X133202028Y-72933473D01*
X133098994Y-72930200D01*
X132976251Y-72978785D01*
X132842698Y-73023229D01*
X132799666Y-72995520D01*
X132729165Y-72914032D01*
X132630333Y-72873467D01*
X132505515Y-72789821D01*
X132461647Y-72599295D01*
X132460527Y-72546092D01*
X132436909Y-72256029D01*
X132382210Y-71966666D01*
X132331417Y-71713126D01*
X132284641Y-71380539D01*
X132262547Y-71162333D01*
X132217964Y-70840008D01*
X132147642Y-70550010D01*
X132093564Y-70410965D01*
X132017433Y-70207262D01*
X132010219Y-70053516D01*
X132011091Y-70051131D01*
X131987921Y-69951189D01*
X131919724Y-69934666D01*
X131815886Y-69859458D01*
X131777760Y-69650412D01*
X131791252Y-69455444D01*
X131734477Y-69372755D01*
X131664252Y-69324236D01*
X131560456Y-69188554D01*
X131529666Y-69036462D01*
X131501318Y-68891147D01*
X131439300Y-68879855D01*
X131351357Y-68856640D01*
X131302426Y-68757851D01*
X131239808Y-68616225D01*
X131191464Y-68579999D01*
X131054436Y-68612808D01*
X130858136Y-68691743D01*
X130664384Y-68787568D01*
X130535003Y-68871044D01*
X130513666Y-68900549D01*
X130446237Y-68977566D01*
X130278318Y-69090191D01*
X130217333Y-69124411D01*
X130029644Y-69240427D01*
X129927335Y-69332726D01*
X129920999Y-69349626D01*
X129851356Y-69424695D01*
X129751666Y-69468999D01*
X129610976Y-69572763D01*
X129575648Y-69665205D01*
X129555226Y-69744847D01*
X129525099Y-69698351D01*
X129462417Y-69646839D01*
X129349708Y-69735421D01*
X129341283Y-69744701D01*
X129177627Y-69897575D01*
X128958830Y-70069399D01*
X128925170Y-70093323D01*
X128755728Y-70243593D01*
X128699581Y-70365693D01*
X128705911Y-70385640D01*
X128720021Y-70440315D01*
X128693953Y-70422656D01*
X128600582Y-70441687D01*
X128428569Y-70554603D01*
X128258937Y-70697823D01*
X128047261Y-70879748D01*
X127877287Y-71002285D01*
X127802651Y-71035333D01*
X127708948Y-71061177D01*
X127571100Y-71155508D01*
X127352721Y-71343523D01*
X127336377Y-71358231D01*
X127200787Y-71429441D01*
X127136520Y-71422217D01*
X127046307Y-71444394D01*
X127011528Y-71501485D01*
X126896402Y-71599389D01*
X126706361Y-71623973D01*
X126521341Y-71570433D01*
X126473976Y-71533776D01*
X126342380Y-71483360D01*
X126238051Y-71547473D01*
X126229570Y-71678897D01*
X126208015Y-71780782D01*
X126140800Y-71797333D01*
X126044384Y-71743888D01*
X126050865Y-71627999D01*
X126055613Y-71492991D01*
X126018406Y-71458666D01*
X125943844Y-71394003D01*
X125941666Y-71373999D01*
X126012578Y-71305209D01*
X126110999Y-71289333D01*
X126248580Y-71253876D01*
X126280333Y-71204666D01*
X126215903Y-71122459D01*
X126195666Y-71119999D01*
X126113452Y-71056263D01*
X126110999Y-71036281D01*
X126182921Y-70980064D01*
X126327605Y-70970489D01*
X126485160Y-71014983D01*
X126507517Y-71128032D01*
X126504864Y-71138874D01*
X126505008Y-71263566D01*
X126539602Y-71289333D01*
X126580526Y-71351206D01*
X126567456Y-71409803D01*
X126579195Y-71499370D01*
X126675947Y-71500947D01*
X126839901Y-71472591D01*
X126894166Y-71465144D01*
X126955890Y-71401902D01*
X126905850Y-71267016D01*
X126822442Y-71166204D01*
X126735196Y-71005177D01*
X126738736Y-70896730D01*
X126743802Y-70801415D01*
X126662293Y-70811582D01*
X126552636Y-70809042D01*
X126546336Y-70726934D01*
X126618999Y-70654333D01*
X126693460Y-70533377D01*
X126703817Y-70458836D01*
X126770835Y-70335733D01*
X126942426Y-70175448D01*
X127084817Y-70075058D01*
X127297999Y-69929138D01*
X127436212Y-69812962D01*
X127465666Y-69769299D01*
X127535974Y-69733597D01*
X127669315Y-69743078D01*
X127822691Y-69744042D01*
X127860770Y-69648126D01*
X127859815Y-69634616D01*
X127905962Y-69487975D01*
X127964284Y-69445961D01*
X128039290Y-69451993D01*
X128023387Y-69499379D01*
X128024174Y-69559197D01*
X128097768Y-69543062D01*
X128207246Y-69450323D01*
X128219134Y-69395865D01*
X128224739Y-69173939D01*
X128306423Y-69088458D01*
X128315761Y-69087999D01*
X128439478Y-69040444D01*
X128572159Y-68960999D01*
X128650999Y-68960999D01*
X128693333Y-69003333D01*
X128735666Y-68960999D01*
X128693333Y-68918666D01*
X128650999Y-68960999D01*
X128572159Y-68960999D01*
X128632458Y-68924894D01*
X128834099Y-68782026D01*
X128983801Y-68652517D01*
X129009536Y-68622333D01*
X129066421Y-68588103D01*
X129073036Y-68620005D01*
X129113531Y-68618979D01*
X129210085Y-68504740D01*
X129218245Y-68493005D01*
X129368526Y-68305648D01*
X129493412Y-68187027D01*
X129643069Y-68064889D01*
X129835219Y-67894201D01*
X129858556Y-67872590D01*
X130045490Y-67739471D01*
X130199701Y-67698509D01*
X130218390Y-67703120D01*
X130326478Y-67698829D01*
X130344333Y-67657724D01*
X130281723Y-67568385D01*
X130254669Y-67563999D01*
X130205822Y-67511367D01*
X130220963Y-67473459D01*
X130213650Y-67349387D01*
X130141336Y-67240625D01*
X129724074Y-66811787D01*
X129404051Y-66502807D01*
X129184806Y-66316898D01*
X129069877Y-66257272D01*
X129060956Y-66259933D01*
X129004622Y-66226943D01*
X128989666Y-66129663D01*
X128953107Y-65989425D01*
X128900002Y-65955333D01*
X128849627Y-66007290D01*
X128863063Y-66040642D01*
X128839825Y-66073834D01*
X128700513Y-66027864D01*
X128698726Y-66027051D01*
X128540903Y-65932738D01*
X128481666Y-65857076D01*
X128413307Y-65793140D01*
X128360554Y-65785999D01*
X128253869Y-65714188D01*
X128212388Y-65603163D01*
X128127978Y-65447756D01*
X128029408Y-65397849D01*
X127865659Y-65352480D01*
X127845258Y-65268035D01*
X127886807Y-65217602D01*
X128156647Y-65217602D01*
X128177248Y-65264917D01*
X128262498Y-65355811D01*
X128311508Y-65337165D01*
X128312333Y-65325329D01*
X128252196Y-65253717D01*
X128214584Y-65227581D01*
X128156647Y-65217602D01*
X127886807Y-65217602D01*
X127967175Y-65120049D01*
X128015785Y-65073946D01*
X128295194Y-64901440D01*
X128533207Y-64871309D01*
X128725533Y-64897974D01*
G37*
G36*
X116282088Y-53220047D02*
G01*
X116259048Y-53297666D01*
X116272814Y-53402081D01*
X116376990Y-53424666D01*
X116513179Y-53392514D01*
X116543666Y-53349058D01*
X116611498Y-53252753D01*
X116752725Y-53210078D01*
X116873938Y-53245485D01*
X116885029Y-53259696D01*
X116973774Y-53343268D01*
X116997632Y-53347231D01*
X117176084Y-53350179D01*
X117210973Y-53403499D01*
X117212034Y-53576959D01*
X117269254Y-53648023D01*
X117303184Y-53637867D01*
X117382413Y-53667351D01*
X117434356Y-53782259D01*
X117533643Y-53953455D01*
X117719445Y-54136196D01*
X117776865Y-54178567D01*
X117976044Y-54353467D01*
X118105555Y-54537650D01*
X118120538Y-54579511D01*
X118183817Y-54732295D01*
X118240472Y-54779333D01*
X118318940Y-54849050D01*
X118363999Y-54948666D01*
X118464137Y-55086083D01*
X118553149Y-55117999D01*
X118643305Y-55143099D01*
X118635909Y-55170644D01*
X118656807Y-55256305D01*
X118771996Y-55408600D01*
X118833465Y-55473491D01*
X118988932Y-55663044D01*
X119070149Y-55829265D01*
X119073844Y-55865345D01*
X119060748Y-55957927D01*
X119033064Y-55888069D01*
X119025303Y-55858833D01*
X118950583Y-55756692D01*
X118836177Y-55704954D01*
X118753363Y-55728402D01*
X118744999Y-55761363D01*
X118801172Y-55843059D01*
X118937091Y-55987402D01*
X119103856Y-56146929D01*
X119252566Y-56274180D01*
X119318677Y-56318170D01*
X119404398Y-56414851D01*
X119522906Y-56614175D01*
X119646170Y-56860751D01*
X119746159Y-57099185D01*
X119791699Y-57252894D01*
X119851012Y-57436515D01*
X119967216Y-57704203D01*
X120091613Y-57952759D01*
X120227764Y-58230971D01*
X120322514Y-58468662D01*
X120353666Y-58601251D01*
X120391509Y-58732224D01*
X120438333Y-58758666D01*
X120511450Y-58828680D01*
X120525692Y-58906833D01*
X120559071Y-59051065D01*
X120633040Y-59194100D01*
X120715440Y-59291806D01*
X120774112Y-59300052D01*
X120784276Y-59261681D01*
X120808546Y-59244263D01*
X120858227Y-59363293D01*
X120865342Y-59386412D01*
X120902407Y-59587977D01*
X120887316Y-59716993D01*
X120891587Y-59759634D01*
X120933251Y-59740417D01*
X121018958Y-59747005D01*
X121030999Y-59799064D01*
X121098611Y-59925429D01*
X121221499Y-60018346D01*
X121312607Y-60076831D01*
X121263833Y-60076275D01*
X121137866Y-60077418D01*
X121135104Y-60169944D01*
X121248713Y-60318952D01*
X121331546Y-60421764D01*
X121327332Y-60451999D01*
X121333155Y-60500547D01*
X121399904Y-60578999D01*
X121542899Y-60683092D01*
X121617618Y-60705999D01*
X121704768Y-60756961D01*
X121708333Y-60776495D01*
X121782578Y-60801953D01*
X121970310Y-60799622D01*
X122219023Y-60775178D01*
X122476208Y-60734296D01*
X122689361Y-60682653D01*
X122738953Y-60665080D01*
X122891610Y-60541881D01*
X122934007Y-60468992D01*
X122993719Y-60381731D01*
X123054182Y-60437733D01*
X123163097Y-60507073D01*
X123359964Y-60562294D01*
X123587013Y-60595939D01*
X123786475Y-60600553D01*
X123900579Y-60568680D01*
X123909666Y-60548137D01*
X123981891Y-60505992D01*
X124184833Y-60546507D01*
X124389256Y-60585012D01*
X124709617Y-60619777D01*
X125092523Y-60645665D01*
X125302139Y-60654017D01*
X125741479Y-60676861D01*
X126033962Y-60714421D01*
X126169565Y-60765289D01*
X126177028Y-60777086D01*
X126276937Y-60853613D01*
X126408340Y-60875333D01*
X126624788Y-60930813D01*
X126740195Y-61008623D01*
X126847625Y-61097061D01*
X126904182Y-61057216D01*
X126924345Y-61009376D01*
X126976964Y-60931645D01*
X127069530Y-60957700D01*
X127189520Y-61045419D01*
X127385936Y-61165094D01*
X127552692Y-61213999D01*
X127707875Y-61283271D01*
X127754934Y-61353117D01*
X127822420Y-61446591D01*
X127858738Y-61441816D01*
X127949722Y-61451548D01*
X128032126Y-61514364D01*
X128206956Y-61618112D01*
X128308013Y-61637333D01*
X128489520Y-61698578D01*
X128566333Y-61764333D01*
X128727767Y-61872752D01*
X128820333Y-61891333D01*
X129000987Y-61952392D01*
X129066982Y-62009476D01*
X129213635Y-62105151D01*
X129438206Y-62178637D01*
X129458349Y-62182646D01*
X129652595Y-62240739D01*
X129749267Y-62312087D01*
X129751666Y-62323499D01*
X129802131Y-62373731D01*
X129825404Y-62363753D01*
X129934288Y-62380816D01*
X130092359Y-62485757D01*
X130205553Y-62585533D01*
X130288130Y-62633005D01*
X130390796Y-62628708D01*
X130564253Y-62573180D01*
X130785656Y-62493092D01*
X131104345Y-62391190D01*
X131500615Y-62281167D01*
X131868333Y-62191573D01*
X132243619Y-62103307D01*
X132613986Y-62008410D01*
X132895696Y-61928480D01*
X133194443Y-61853544D01*
X133476730Y-61810619D01*
X133557429Y-61806666D01*
X133801017Y-61780620D01*
X133983008Y-61723065D01*
X134133040Y-61682664D01*
X134405816Y-61643686D01*
X134754804Y-61612023D01*
X134952275Y-61600341D01*
X135309149Y-61579500D01*
X135601049Y-61555599D01*
X135787406Y-61532312D01*
X135830837Y-61520733D01*
X135936168Y-61501531D01*
X136175924Y-61478566D01*
X136515324Y-61454624D01*
X136919586Y-61432491D01*
X136951504Y-61430984D01*
X137390157Y-61407762D01*
X137796790Y-61381318D01*
X138125115Y-61354965D01*
X138324166Y-61332751D01*
X138641666Y-61283782D01*
X138641666Y-61926224D01*
X138631272Y-62248937D01*
X138603090Y-62474200D01*
X138561623Y-62567854D01*
X138556999Y-62568666D01*
X138474776Y-62519927D01*
X138472487Y-62505166D01*
X138397511Y-62473137D01*
X138206862Y-62463159D01*
X137952279Y-62471847D01*
X137685499Y-62495816D01*
X137458262Y-62531681D01*
X137322306Y-62576057D01*
X137315704Y-62580848D01*
X137199180Y-62609396D01*
X137162540Y-62572777D01*
X137051320Y-62500198D01*
X136900625Y-62489472D01*
X136792236Y-62539370D01*
X136778999Y-62578536D01*
X136709315Y-62634282D01*
X136524157Y-62617696D01*
X136259366Y-62532454D01*
X136235943Y-62522832D01*
X136124040Y-62495278D01*
X136135107Y-62554278D01*
X136121344Y-62632314D01*
X135986718Y-62653333D01*
X135815847Y-62620645D01*
X135746474Y-62561423D01*
X135663961Y-62514340D01*
X135452964Y-62522128D01*
X135252792Y-62553674D01*
X134953377Y-62595028D01*
X134783602Y-62582370D01*
X134724431Y-62539750D01*
X134639619Y-62505693D01*
X134533707Y-62606037D01*
X134438291Y-62709594D01*
X134315269Y-62774900D01*
X134114530Y-62820494D01*
X133857999Y-62856022D01*
X133630618Y-62895668D01*
X133476999Y-62938475D01*
X133302902Y-62967224D01*
X133095999Y-62963091D01*
X132881154Y-62967674D01*
X132741941Y-63012397D01*
X132589759Y-63042470D01*
X132344881Y-63005590D01*
X132321157Y-62999258D01*
X132051190Y-62954419D01*
X131917448Y-62993683D01*
X131780621Y-63063456D01*
X131626958Y-63068688D01*
X131534220Y-63010720D01*
X131529666Y-62987002D01*
X131477339Y-62937452D01*
X131441555Y-62951794D01*
X131387347Y-63067398D01*
X131397289Y-63147291D01*
X131393010Y-63338224D01*
X131359696Y-63415333D01*
X131291939Y-63492630D01*
X131276962Y-63479392D01*
X131229328Y-63471544D01*
X131118764Y-63552002D01*
X130989684Y-63678111D01*
X130886502Y-63807215D01*
X130852333Y-63887209D01*
X130797784Y-64015049D01*
X130652666Y-64026141D01*
X130444771Y-63924834D01*
X130286914Y-63798736D01*
X130054925Y-63603307D01*
X129833763Y-63443876D01*
X129759043Y-63399716D01*
X129584903Y-63288333D01*
X131275666Y-63288333D01*
X131317999Y-63330666D01*
X131360333Y-63288333D01*
X131317999Y-63245999D01*
X131275666Y-63288333D01*
X129584903Y-63288333D01*
X129536014Y-63257063D01*
X129471732Y-63203666D01*
X130513666Y-63203666D01*
X130555999Y-63245999D01*
X130598333Y-63203666D01*
X130555999Y-63161333D01*
X130513666Y-63203666D01*
X129471732Y-63203666D01*
X129390074Y-63135835D01*
X129191961Y-63028322D01*
X129070002Y-63035707D01*
X128938130Y-63047594D01*
X128904999Y-63013295D01*
X128826034Y-62912194D01*
X128600611Y-62775864D01*
X128245935Y-62612524D01*
X127779213Y-62430390D01*
X127423333Y-62305624D01*
X127070499Y-62183180D01*
X126781162Y-62076253D01*
X126693612Y-62040424D01*
X128772387Y-62040424D01*
X128855610Y-62053982D01*
X128965424Y-62038415D01*
X128966735Y-62009513D01*
X128853418Y-61989302D01*
X128804458Y-62002829D01*
X128772387Y-62040424D01*
X126693612Y-62040424D01*
X126590789Y-61998345D01*
X126534333Y-61967136D01*
X126428388Y-61903403D01*
X126290896Y-61851340D01*
X126152859Y-61824726D01*
X126146931Y-61880259D01*
X126154515Y-61893246D01*
X126165123Y-61965436D01*
X126101618Y-61955233D01*
X126008716Y-61862180D01*
X126006293Y-61813868D01*
X125954497Y-61742973D01*
X125836960Y-61731786D01*
X125427927Y-61743092D01*
X125166454Y-61691441D01*
X125041981Y-61574473D01*
X125034865Y-61552666D01*
X124999110Y-61496221D01*
X125207888Y-61496221D01*
X125219510Y-61546556D01*
X125264333Y-61552666D01*
X125334023Y-61521688D01*
X125320777Y-61496221D01*
X125220297Y-61486088D01*
X125207888Y-61496221D01*
X124999110Y-61496221D01*
X124947684Y-61415037D01*
X124868461Y-61383333D01*
X124788177Y-61426288D01*
X124797689Y-61466418D01*
X124753571Y-61510117D01*
X124558863Y-61521936D01*
X124358185Y-61511668D01*
X124093844Y-61498538D01*
X123991788Y-61513054D01*
X124036666Y-61551174D01*
X124122944Y-61601249D01*
X124067407Y-61618223D01*
X123924396Y-61614424D01*
X123720400Y-61586397D01*
X123604403Y-61537263D01*
X123601046Y-61532785D01*
X123505312Y-61506075D01*
X123465167Y-61523413D01*
X123321181Y-61560523D01*
X123088347Y-61574161D01*
X122824036Y-61566936D01*
X122585614Y-61541456D01*
X122430451Y-61500329D01*
X122402137Y-61475079D01*
X122322215Y-61462805D01*
X122153009Y-61539531D01*
X122064716Y-61595319D01*
X121824238Y-61726798D01*
X121682695Y-61728762D01*
X121673365Y-61720898D01*
X121549097Y-61641063D01*
X121492818Y-61684086D01*
X121508750Y-61765293D01*
X121510281Y-61854581D01*
X121421426Y-61840901D01*
X121303136Y-61736145D01*
X121284999Y-61670607D01*
X121228275Y-61568811D01*
X121097656Y-61569950D01*
X120952474Y-61672436D01*
X120946332Y-61679666D01*
X120794018Y-61792276D01*
X120664213Y-61780251D01*
X120607700Y-61648880D01*
X120607666Y-61644388D01*
X120568290Y-61495821D01*
X120520334Y-61453000D01*
X120478023Y-61359439D01*
X120527790Y-61151984D01*
X120578119Y-60931661D01*
X120527583Y-60752438D01*
X120459565Y-60644872D01*
X120299318Y-60382599D01*
X120230629Y-60198336D01*
X120261489Y-60115625D01*
X120279183Y-60113333D01*
X120287541Y-60057767D01*
X120201738Y-59918313D01*
X120149525Y-59852836D01*
X120008806Y-59655473D01*
X119934027Y-59491868D01*
X119930333Y-59464024D01*
X119880806Y-59308726D01*
X119769189Y-59130847D01*
X119665864Y-58937080D01*
X119648221Y-58772352D01*
X119615239Y-58598347D01*
X119472161Y-58413525D01*
X119325918Y-58247243D01*
X119305480Y-58208333D01*
X119337666Y-58208333D01*
X119379999Y-58250666D01*
X119422333Y-58208333D01*
X119379999Y-58165999D01*
X119337666Y-58208333D01*
X119305480Y-58208333D01*
X119255536Y-58113252D01*
X119254462Y-58102499D01*
X119186432Y-58003402D01*
X119147166Y-57995369D01*
X119087182Y-57976147D01*
X119150447Y-57924845D01*
X119204919Y-57804023D01*
X119173025Y-57618871D01*
X119074879Y-57436724D01*
X118977958Y-57347333D01*
X118864395Y-57219650D01*
X118736776Y-56999059D01*
X118629443Y-56754922D01*
X118576738Y-56556601D01*
X118575666Y-56534788D01*
X118526279Y-56384120D01*
X118409106Y-56199088D01*
X118309273Y-56038482D01*
X118293601Y-55936816D01*
X118296217Y-55933670D01*
X118284903Y-55884338D01*
X118250010Y-55879999D01*
X118160503Y-55809511D01*
X118039182Y-55628813D01*
X117960732Y-55477833D01*
X117833261Y-55235571D01*
X117715787Y-55058720D01*
X117665499Y-55007959D01*
X117576614Y-54874361D01*
X117559666Y-54773030D01*
X117483086Y-54609893D01*
X117347999Y-54525333D01*
X117191042Y-54437937D01*
X117136333Y-54361074D01*
X117070605Y-54256984D01*
X116984534Y-54196050D01*
X116864419Y-54163753D01*
X116821398Y-54269525D01*
X116819294Y-54293248D01*
X116751032Y-54472404D01*
X116674759Y-54545050D01*
X116562980Y-54684334D01*
X116543666Y-54778543D01*
X116503813Y-54938868D01*
X116458999Y-54990999D01*
X116392861Y-55108001D01*
X116374333Y-55244999D01*
X116341827Y-55422675D01*
X116288285Y-55499853D01*
X116239443Y-55601321D01*
X116250948Y-55631849D01*
X116238466Y-55705578D01*
X116209996Y-55710666D01*
X116130030Y-55778976D01*
X116120333Y-55835091D01*
X116080904Y-55983137D01*
X115982383Y-56201910D01*
X115942204Y-56276659D01*
X115848822Y-56480566D01*
X115833413Y-56605274D01*
X115850136Y-56622489D01*
X115882451Y-56711154D01*
X115823297Y-56868789D01*
X115754931Y-57065652D01*
X115755091Y-57202867D01*
X115735077Y-57305208D01*
X115684891Y-57320629D01*
X115621252Y-57340384D01*
X115696999Y-57403999D01*
X115773752Y-57470358D01*
X115708291Y-57487369D01*
X115628399Y-57552174D01*
X115636843Y-57657915D01*
X115640066Y-57815754D01*
X115603003Y-57875432D01*
X115563252Y-57977059D01*
X115574911Y-58004614D01*
X115560574Y-58064091D01*
X115518299Y-58062264D01*
X115432804Y-58118300D01*
X115388894Y-58287244D01*
X115290379Y-58716445D01*
X115096083Y-59108923D01*
X114991205Y-59245499D01*
X114901098Y-59376601D01*
X114914674Y-59435678D01*
X114920241Y-59435999D01*
X115001132Y-59501333D01*
X115013263Y-59647716D01*
X114954958Y-59800721D01*
X114929132Y-59831333D01*
X114829874Y-59989737D01*
X114814920Y-60038767D01*
X114789586Y-60140646D01*
X114742942Y-60282594D01*
X114661851Y-60501320D01*
X114533180Y-60833535D01*
X114502600Y-60911672D01*
X114410647Y-61185730D01*
X114400787Y-61340318D01*
X114436233Y-61389039D01*
X114490179Y-61489421D01*
X114425677Y-61593192D01*
X114290006Y-61637333D01*
X114207479Y-61681359D01*
X114217625Y-61725708D01*
X114221771Y-61861771D01*
X114191844Y-61916208D01*
X114148936Y-62036194D01*
X114091600Y-62287304D01*
X114027335Y-62632756D01*
X113963850Y-63034333D01*
X113892379Y-63503066D01*
X113814179Y-63978478D01*
X113739889Y-64397631D01*
X113691926Y-64642999D01*
X113622309Y-65004729D01*
X113564424Y-65358507D01*
X113533828Y-65600030D01*
X113502034Y-65843582D01*
X113463024Y-66015288D01*
X113450073Y-66045274D01*
X113425408Y-66162025D01*
X113398672Y-66416652D01*
X113371522Y-66777737D01*
X113345611Y-67213864D01*
X113322595Y-67693616D01*
X113304128Y-68185575D01*
X113291866Y-68658325D01*
X113287464Y-69080449D01*
X113287557Y-69130333D01*
X113306742Y-69565052D01*
X113356856Y-70051036D01*
X113430992Y-70552482D01*
X113522240Y-71033588D01*
X113623693Y-71458551D01*
X113728442Y-71791570D01*
X113829580Y-71996842D01*
X113844062Y-72014456D01*
X113962201Y-72175084D01*
X114003666Y-72284111D01*
X114034040Y-72425721D01*
X114102405Y-72617321D01*
X114174808Y-72803865D01*
X114208238Y-72912110D01*
X114280714Y-73029665D01*
X114422677Y-73013547D01*
X114489980Y-72966794D01*
X114705724Y-72824887D01*
X114991862Y-72728039D01*
X115266369Y-72675192D01*
X115479508Y-72624151D01*
X115608660Y-72561305D01*
X115617005Y-72551381D01*
X115722603Y-72491774D01*
X115927963Y-72431770D01*
X116168841Y-72383951D01*
X116380991Y-72360900D01*
X116500167Y-72375199D01*
X116503256Y-72377812D01*
X116582078Y-72363835D01*
X116621571Y-72316273D01*
X116744312Y-72233984D01*
X116961612Y-72170370D01*
X117019134Y-72161166D01*
X117240255Y-72116616D01*
X117378194Y-72060961D01*
X117392062Y-72047228D01*
X117488522Y-72009332D01*
X117727509Y-71980603D01*
X118113732Y-71960928D01*
X118651904Y-71950193D01*
X119346735Y-71948285D01*
X120202936Y-71955090D01*
X120842651Y-71964043D01*
X121164226Y-71981894D01*
X121447601Y-72019357D01*
X121593783Y-72056066D01*
X121828038Y-72093423D01*
X121917569Y-72053349D01*
X122045423Y-72028480D01*
X122222306Y-72141180D01*
X122440668Y-72263599D01*
X122594867Y-72269772D01*
X122766649Y-72257826D01*
X123018583Y-72277038D01*
X123300522Y-72318562D01*
X123562319Y-72373550D01*
X123753826Y-72433156D01*
X123824999Y-72486787D01*
X123899661Y-72535639D01*
X124084832Y-72557355D01*
X124142499Y-72557009D01*
X124553172Y-72586135D01*
X124974667Y-72682661D01*
X125333066Y-72827280D01*
X125447018Y-72897732D01*
X125607746Y-72998196D01*
X125689096Y-72991475D01*
X125718980Y-72938517D01*
X125818496Y-72864413D01*
X125972794Y-72893583D01*
X126116356Y-73010133D01*
X126136373Y-73039781D01*
X126265740Y-73126172D01*
X126416536Y-73151999D01*
X126557963Y-73179351D01*
X126576666Y-73236666D01*
X126599709Y-73310248D01*
X126677502Y-73330756D01*
X127073990Y-73360111D01*
X127356328Y-73395976D01*
X127579686Y-73447161D01*
X127740833Y-73500593D01*
X127941726Y-73598238D01*
X128051433Y-73698505D01*
X128058333Y-73723050D01*
X128126535Y-73817178D01*
X128185333Y-73829333D01*
X128298004Y-73875050D01*
X128312333Y-73913999D01*
X128380468Y-73990114D01*
X128433285Y-73998666D01*
X128591638Y-74054410D01*
X128672290Y-74116719D01*
X128814804Y-74218009D01*
X129049620Y-74347438D01*
X129207505Y-74423048D01*
X129502465Y-74591331D01*
X129771137Y-74801625D01*
X129863663Y-74897662D01*
X130031471Y-75072851D01*
X130170205Y-75174065D01*
X130205242Y-75183999D01*
X130316665Y-75249790D01*
X130444980Y-75408897D01*
X130449881Y-75416833D01*
X130588309Y-75609605D01*
X130792254Y-75856201D01*
X130939204Y-76019028D01*
X131117730Y-76233014D01*
X131226670Y-76411396D01*
X131244080Y-76498855D01*
X131270533Y-76620323D01*
X131323345Y-76656002D01*
X131425316Y-76769482D01*
X131444999Y-76865617D01*
X131513087Y-77028922D01*
X131593166Y-77085988D01*
X131694570Y-77139033D01*
X131656975Y-77203633D01*
X131590677Y-77254366D01*
X131491304Y-77345406D01*
X131531751Y-77399115D01*
X131571663Y-77415821D01*
X131724491Y-77389920D01*
X131891651Y-77244488D01*
X132172766Y-76937310D01*
X132394983Y-76743918D01*
X132543823Y-76676181D01*
X132575470Y-76684086D01*
X132624533Y-76670752D01*
X132612134Y-76613364D01*
X132637658Y-76478420D01*
X132763489Y-76295543D01*
X132809413Y-76246697D01*
X132963161Y-76077710D01*
X133047905Y-75954953D01*
X133053666Y-75934545D01*
X133116289Y-75900111D01*
X133180666Y-75915381D01*
X133290058Y-75903598D01*
X133307666Y-75846748D01*
X133370485Y-75710402D01*
X133476999Y-75607333D01*
X133607953Y-75481338D01*
X133647235Y-75398142D01*
X133701393Y-75294908D01*
X133841825Y-75111521D01*
X134019055Y-74908833D01*
X134202453Y-74704375D01*
X134322458Y-74559579D01*
X134352971Y-74506666D01*
X134380955Y-74454738D01*
X134496944Y-74326224D01*
X134533137Y-74289498D01*
X134727334Y-74073710D01*
X134890037Y-73859071D01*
X134890449Y-73858443D01*
X135061625Y-73673931D01*
X135231558Y-73568150D01*
X135398361Y-73439563D01*
X135543888Y-73222466D01*
X135560421Y-73185639D01*
X135683084Y-72976513D01*
X135824155Y-72847660D01*
X135852660Y-72836559D01*
X135987107Y-72774763D01*
X136016999Y-72731154D01*
X136069474Y-72633886D01*
X136199103Y-72473019D01*
X136233355Y-72435274D01*
X136362412Y-72275157D01*
X136411243Y-72170737D01*
X136407109Y-72159220D01*
X136428730Y-72074439D01*
X136545998Y-71922234D01*
X136721057Y-71739347D01*
X136916052Y-71562521D01*
X137093128Y-71428499D01*
X137214428Y-71374025D01*
X137216106Y-71373999D01*
X137345652Y-71317093D01*
X137371666Y-71246999D01*
X137422166Y-71134404D01*
X137465391Y-71119999D01*
X137522220Y-71058494D01*
X137510771Y-70994015D01*
X137515635Y-70896003D01*
X137560506Y-70888181D01*
X137643017Y-70830038D01*
X137707038Y-70661734D01*
X137708536Y-70654333D01*
X137789712Y-70457038D01*
X137903743Y-70412092D01*
X138026651Y-70364585D01*
X138048999Y-70301262D01*
X138005435Y-70221113D01*
X137964333Y-70230999D01*
X137885434Y-70245698D01*
X137879666Y-70229948D01*
X137930519Y-70130997D01*
X138038101Y-70026033D01*
X138134948Y-69976200D01*
X138153001Y-69982224D01*
X138181885Y-69937198D01*
X138199396Y-69774595D01*
X138200118Y-69753628D01*
X138229376Y-69551231D01*
X138289373Y-69435137D01*
X138290990Y-69434088D01*
X138371335Y-69320538D01*
X138432465Y-69150651D01*
X138497156Y-68953259D01*
X138549895Y-68924312D01*
X138590697Y-69063904D01*
X138619577Y-69372133D01*
X138636551Y-69849093D01*
X138641666Y-70442666D01*
X138637071Y-71024999D01*
X138623706Y-71477542D01*
X138602201Y-71788949D01*
X138573187Y-71947873D01*
X138556999Y-71966666D01*
X138482427Y-71897861D01*
X138472333Y-71836328D01*
X138451387Y-71752242D01*
X138363544Y-71806619D01*
X138354219Y-71815161D01*
X138269727Y-71928796D01*
X138266898Y-71975452D01*
X138223210Y-72042792D01*
X138088678Y-72121803D01*
X137933918Y-72225264D01*
X137879666Y-72316983D01*
X137821662Y-72416180D01*
X137674912Y-72584464D01*
X137480309Y-72781982D01*
X137278745Y-72968880D01*
X137111114Y-73105306D01*
X137022856Y-73151999D01*
X136962903Y-73223519D01*
X136913565Y-73363666D01*
X136830877Y-73522598D01*
X136735053Y-73575333D01*
X136623342Y-73616077D01*
X136609666Y-73649790D01*
X136554938Y-73746641D01*
X136413535Y-73919389D01*
X136270999Y-74073220D01*
X136086861Y-74275738D01*
X135963861Y-74435485D01*
X135932333Y-74501139D01*
X135859111Y-74566910D01*
X135699499Y-74606875D01*
X135526065Y-74661641D01*
X135491544Y-74781832D01*
X135491544Y-74781833D01*
X135472025Y-74906084D01*
X135428044Y-74929999D01*
X135349658Y-74998517D01*
X135339666Y-75056999D01*
X135275513Y-75169329D01*
X135219721Y-75183999D01*
X135107549Y-75255240D01*
X135014739Y-75416833D01*
X134954692Y-75544696D01*
X134923619Y-75540943D01*
X134923017Y-75534011D01*
X134866471Y-75527298D01*
X134725239Y-75622959D01*
X134543026Y-75787769D01*
X134325510Y-76026999D01*
X134247877Y-76175404D01*
X134267859Y-76219627D01*
X134306777Y-76273442D01*
X134238999Y-76285987D01*
X134123974Y-76352620D01*
X133956474Y-76517959D01*
X133773944Y-76737225D01*
X133613826Y-76965638D01*
X133516830Y-77149658D01*
X133401246Y-77267719D01*
X133213057Y-77345183D01*
X132983401Y-77453558D01*
X132829393Y-77604356D01*
X132694662Y-77753250D01*
X132578262Y-77808666D01*
X132470718Y-77869752D01*
X132458668Y-77914499D01*
X132393840Y-78026177D01*
X132234301Y-78178452D01*
X132164666Y-78231999D01*
X131981919Y-78398040D01*
X131878880Y-78556359D01*
X131870663Y-78596829D01*
X131840888Y-78706998D01*
X131804833Y-78712604D01*
X131685286Y-78710926D01*
X131541178Y-78750783D01*
X131393348Y-78853360D01*
X131385116Y-78994959D01*
X131389633Y-79109652D01*
X131347101Y-79112822D01*
X131230517Y-79124922D01*
X131100997Y-79210494D01*
X130979940Y-79290181D01*
X130936999Y-79261121D01*
X130873928Y-79168736D01*
X130843274Y-79163333D01*
X130784574Y-79224104D01*
X130794606Y-79280750D01*
X130784680Y-79363217D01*
X130676665Y-79355541D01*
X130543133Y-79364572D01*
X130513666Y-79458772D01*
X130451419Y-79610794D01*
X130301999Y-79771126D01*
X130153129Y-79923377D01*
X130090341Y-80057402D01*
X130090333Y-80058478D01*
X130032321Y-80162660D01*
X129897781Y-80162103D01*
X129768599Y-80077732D01*
X129684704Y-80018828D01*
X129666999Y-80077732D01*
X129611636Y-80173022D01*
X129582333Y-80179333D01*
X129504763Y-80111893D01*
X129497666Y-80066996D01*
X129435846Y-79991849D01*
X129238719Y-79992723D01*
X129225315Y-79994632D01*
X128951379Y-80078717D01*
X128776931Y-80220734D01*
X128735666Y-80342618D01*
X128671342Y-80429621D01*
X128646002Y-80433333D01*
X128593736Y-80382270D01*
X128605197Y-80354279D01*
X128575777Y-80306826D01*
X128447166Y-80298190D01*
X128284376Y-80325822D01*
X128175156Y-80371125D01*
X128046515Y-80410170D01*
X127810699Y-80452064D01*
X127628404Y-80475343D01*
X127258008Y-80522861D01*
X127027933Y-80573927D01*
X126909290Y-80638484D01*
X126873188Y-80726479D01*
X126872999Y-80735371D01*
X126812109Y-80844103D01*
X126763901Y-80856666D01*
X126625798Y-80893261D01*
X126408688Y-80985169D01*
X126319401Y-81029243D01*
X126007742Y-81154217D01*
X125665990Y-81242700D01*
X125602999Y-81252641D01*
X125337235Y-81299640D01*
X125126644Y-81356694D01*
X125079712Y-81376229D01*
X124901016Y-81386226D01*
X124810446Y-81322017D01*
X124683726Y-81242073D01*
X124518947Y-81265063D01*
X124444733Y-81293524D01*
X124256028Y-81359468D01*
X124142499Y-81378338D01*
X124080487Y-81427319D01*
X124078999Y-81444071D01*
X124020697Y-81514772D01*
X123886496Y-81503944D01*
X123737456Y-81429641D01*
X123636060Y-81313114D01*
X123522644Y-81197616D01*
X123333067Y-81105483D01*
X123127251Y-81053735D01*
X122965115Y-81059391D01*
X122909640Y-81106790D01*
X122822484Y-81128758D01*
X122634089Y-81093019D01*
X122540791Y-81063320D01*
X122312149Y-80999221D01*
X122148970Y-80983198D01*
X122118927Y-80991539D01*
X121995411Y-80988006D01*
X121852776Y-80922471D01*
X121653277Y-80824116D01*
X121522563Y-80771999D01*
X123994333Y-80771999D01*
X124025311Y-80841689D01*
X124050777Y-80828444D01*
X124050803Y-80828184D01*
X124343850Y-80828184D01*
X124388760Y-80846965D01*
X124476169Y-80850715D01*
X124646664Y-80821008D01*
X124713999Y-80771999D01*
X124719192Y-80700180D01*
X124586590Y-80722297D01*
X124459999Y-80771999D01*
X124343850Y-80828184D01*
X124050803Y-80828184D01*
X124060910Y-80727964D01*
X124050777Y-80715555D01*
X124000443Y-80727177D01*
X123994333Y-80771999D01*
X121522563Y-80771999D01*
X121333096Y-80696457D01*
X121199364Y-80648491D01*
X125096621Y-80648491D01*
X125139139Y-80710296D01*
X125306767Y-80742854D01*
X125348999Y-80743777D01*
X125492076Y-80729666D01*
X125941666Y-80729666D01*
X125983999Y-80771999D01*
X126026333Y-80729666D01*
X125983999Y-80687333D01*
X125941666Y-80729666D01*
X125492076Y-80729666D01*
X125527432Y-80726179D01*
X125602983Y-80683785D01*
X125602999Y-80683096D01*
X125602352Y-80682454D01*
X126127169Y-80682454D01*
X126137209Y-80743125D01*
X126153333Y-80771999D01*
X126262669Y-80841209D01*
X126412970Y-80851487D01*
X126521300Y-80803920D01*
X126534333Y-80767002D01*
X126585359Y-80714663D01*
X126613149Y-80726050D01*
X126722338Y-80716288D01*
X126742790Y-80692524D01*
X126699792Y-80652885D01*
X126536607Y-80640558D01*
X126300289Y-80656311D01*
X126127169Y-80682454D01*
X125602352Y-80682454D01*
X125532108Y-80612758D01*
X125374200Y-80570755D01*
X125211428Y-80577908D01*
X125200833Y-80581168D01*
X125096621Y-80648491D01*
X121199364Y-80648491D01*
X120935187Y-80553738D01*
X120502505Y-80410208D01*
X120078005Y-80280113D01*
X119704641Y-80177700D01*
X119425368Y-80117215D01*
X119424443Y-80117067D01*
X119221371Y-80059016D01*
X119114611Y-80000548D01*
X118951118Y-79891135D01*
X118713356Y-79761165D01*
X118448720Y-79632771D01*
X118204606Y-79528089D01*
X118028412Y-79469251D01*
X117971559Y-79466736D01*
X117901888Y-79454043D01*
X117898333Y-79431522D01*
X117827243Y-79352457D01*
X117649857Y-79253489D01*
X117580833Y-79223922D01*
X117329641Y-79094576D01*
X117124948Y-78941940D01*
X117102044Y-78918396D01*
X116911609Y-78784388D01*
X116738006Y-78739999D01*
X116531938Y-78704783D01*
X116306651Y-78618382D01*
X116121642Y-78509673D01*
X116036412Y-78407528D01*
X116035666Y-78399158D01*
X115967106Y-78325847D01*
X115909383Y-78316666D01*
X115769045Y-78251287D01*
X115677350Y-78147333D01*
X115568584Y-78015272D01*
X115501650Y-77977999D01*
X115394784Y-77928900D01*
X115202275Y-77802677D01*
X115198092Y-77799607D01*
X118236999Y-77799607D01*
X118296240Y-77888989D01*
X118321666Y-77893333D01*
X118390456Y-77964245D01*
X118406333Y-78062666D01*
X118466626Y-78205427D01*
X118556827Y-78231999D01*
X118746010Y-78278380D01*
X118874327Y-78345727D01*
X119031853Y-78429516D01*
X119296480Y-78547603D01*
X119615989Y-78676920D01*
X119676333Y-78700001D01*
X120055670Y-78856170D01*
X120349750Y-79001922D01*
X120534928Y-79123702D01*
X120587556Y-79207954D01*
X120580766Y-79218455D01*
X120491197Y-79208529D01*
X120287575Y-79153035D01*
X120013993Y-79066928D01*
X119714544Y-78965163D01*
X119433324Y-78862695D01*
X119214426Y-78774479D01*
X119104833Y-78717871D01*
X119013373Y-78683985D01*
X118998999Y-78732289D01*
X119067873Y-78840122D01*
X119147166Y-78884647D01*
X119294511Y-78959570D01*
X119337666Y-78997355D01*
X119467592Y-79098579D01*
X119718756Y-79237077D01*
X120051854Y-79396273D01*
X120427580Y-79559589D01*
X120806630Y-79710447D01*
X121149700Y-79832270D01*
X121417486Y-79908481D01*
X121538999Y-79925811D01*
X121767391Y-79965955D01*
X121999099Y-80055926D01*
X122198088Y-80134976D01*
X122340748Y-80149476D01*
X122345443Y-80147905D01*
X122497391Y-80154529D01*
X122562241Y-80183808D01*
X122769607Y-80246231D01*
X123016726Y-80238628D01*
X123229489Y-80170513D01*
X123321452Y-80086346D01*
X123321699Y-80085795D01*
X123538135Y-80085795D01*
X123592793Y-80180769D01*
X123639192Y-80197601D01*
X123888609Y-80216256D01*
X124243637Y-80204523D01*
X124644313Y-80167498D01*
X125030673Y-80110276D01*
X125267035Y-80059248D01*
X125555811Y-79995814D01*
X125721018Y-79992391D01*
X125791578Y-80038240D01*
X125845369Y-80083681D01*
X125855703Y-80021296D01*
X125924047Y-79940160D01*
X126068128Y-79945952D01*
X126285981Y-79953894D01*
X126366449Y-79878443D01*
X126309650Y-79735036D01*
X126115701Y-79539110D01*
X126064745Y-79498300D01*
X125636781Y-79151189D01*
X125352126Y-78885552D01*
X125207575Y-78697959D01*
X125199926Y-78584985D01*
X125205376Y-78578823D01*
X125307304Y-78568785D01*
X125479202Y-78687353D01*
X125624568Y-78826547D01*
X125815349Y-79011651D01*
X125959571Y-79134235D01*
X126011683Y-79163936D01*
X126099317Y-79218414D01*
X126264980Y-79358150D01*
X126406894Y-79490054D01*
X126612693Y-79676144D01*
X126759603Y-79760740D01*
X126903784Y-79766591D01*
X127021865Y-79739157D01*
X127238111Y-79703106D01*
X127388836Y-79718965D01*
X127395218Y-79722454D01*
X127451956Y-79731310D01*
X127431417Y-79684414D01*
X127426649Y-79597337D01*
X127460669Y-79586666D01*
X127544820Y-79653535D01*
X127551629Y-79692499D01*
X127576864Y-79748485D01*
X127615129Y-79705922D01*
X127721636Y-79629982D01*
X127939486Y-79521523D01*
X128206499Y-79410020D01*
X128474118Y-79295429D01*
X128664849Y-79191487D01*
X128736962Y-79121430D01*
X128772265Y-79105472D01*
X128817025Y-79160881D01*
X128908433Y-79240941D01*
X128949589Y-79231632D01*
X128955241Y-79123186D01*
X128882975Y-78953997D01*
X128767280Y-78789965D01*
X128678215Y-78713082D01*
X128602434Y-78596699D01*
X128612817Y-78367492D01*
X128617070Y-78343977D01*
X128633355Y-78101196D01*
X128561880Y-77973693D01*
X128556328Y-77970024D01*
X128488149Y-77908576D01*
X128548145Y-77894629D01*
X128614038Y-77851687D01*
X128575017Y-77740226D01*
X128509950Y-77556781D01*
X128455122Y-77301959D01*
X128447943Y-77253393D01*
X128395652Y-76936719D01*
X128329162Y-76627564D01*
X128260866Y-76376445D01*
X128203157Y-76233877D01*
X128195451Y-76224229D01*
X128081274Y-76216923D01*
X127882291Y-76290506D01*
X127646858Y-76421265D01*
X127423329Y-76585485D01*
X127380302Y-76623984D01*
X127215167Y-76758762D01*
X127103924Y-76814025D01*
X127087637Y-76809748D01*
X127045704Y-76829299D01*
X127042333Y-76863221D01*
X126975716Y-76954725D01*
X126935634Y-76961999D01*
X126807063Y-77015595D01*
X126629996Y-77147240D01*
X126600663Y-77173666D01*
X126438016Y-77312467D01*
X126329929Y-77383079D01*
X126319848Y-77385333D01*
X126216706Y-77441136D01*
X126074375Y-77575023D01*
X125936643Y-77736709D01*
X125847295Y-77875907D01*
X125839632Y-77936822D01*
X125823117Y-77952233D01*
X125708833Y-77901822D01*
X125568554Y-77846075D01*
X125521629Y-77900603D01*
X125518333Y-77966787D01*
X125441970Y-78120007D01*
X125222825Y-78319684D01*
X125059484Y-78435433D01*
X124813209Y-78592157D01*
X124621057Y-78702089D01*
X124529843Y-78739999D01*
X124439000Y-78800314D01*
X124289007Y-78953338D01*
X124205525Y-79051445D01*
X124016354Y-79277610D01*
X123844551Y-79473049D01*
X123798167Y-79522777D01*
X123698074Y-79666326D01*
X123730439Y-79785425D01*
X123745034Y-79803998D01*
X123799267Y-79901145D01*
X123717425Y-79925333D01*
X123586422Y-79977182D01*
X123538135Y-80085795D01*
X123321699Y-80085795D01*
X123389413Y-79934596D01*
X123366413Y-79828990D01*
X123234538Y-79691561D01*
X123229704Y-79687056D01*
X123111756Y-79531182D01*
X123124000Y-79355808D01*
X123140797Y-79308399D01*
X123181075Y-79126969D01*
X123128314Y-79058104D01*
X123074711Y-78960762D01*
X123029148Y-78731531D01*
X122993959Y-78407760D01*
X122971476Y-78026797D01*
X122964032Y-77625992D01*
X122973961Y-77242691D01*
X122979720Y-77173666D01*
X123655666Y-77173666D01*
X123697999Y-77215999D01*
X123740333Y-77173666D01*
X123697999Y-77131333D01*
X123655666Y-77173666D01*
X122979720Y-77173666D01*
X122997381Y-76961999D01*
X123052910Y-76480478D01*
X123083826Y-76142635D01*
X123090800Y-75924712D01*
X123074502Y-75802952D01*
X123035602Y-75753598D01*
X123031523Y-75752063D01*
X122989149Y-75659591D01*
X122960466Y-75444855D01*
X122951741Y-75161068D01*
X122942401Y-74845672D01*
X122909645Y-74658480D01*
X122868988Y-74616049D01*
X122794558Y-74555082D01*
X122726973Y-74382501D01*
X122719082Y-74349134D01*
X122641819Y-74116809D01*
X122540454Y-73947932D01*
X122536857Y-73944238D01*
X122444528Y-73884590D01*
X122337706Y-73917581D01*
X122170035Y-74059516D01*
X122147079Y-74081339D01*
X121982479Y-74256243D01*
X121887173Y-74391585D01*
X121877666Y-74422736D01*
X121807166Y-74492185D01*
X121717511Y-74506666D01*
X121567330Y-74583393D01*
X121504231Y-74718333D01*
X121438336Y-74876845D01*
X121374100Y-74929999D01*
X121260539Y-74984169D01*
X121148983Y-75078166D01*
X120987903Y-75225530D01*
X120770029Y-75409202D01*
X120707960Y-75459166D01*
X120545015Y-75597613D01*
X120468535Y-75681000D01*
X120471943Y-75691999D01*
X120456550Y-75745459D01*
X120349959Y-75879571D01*
X120293085Y-75941715D01*
X119993438Y-76263597D01*
X119795222Y-76489228D01*
X119679755Y-76641715D01*
X119628354Y-76744164D01*
X119622184Y-76771486D01*
X119548680Y-76906092D01*
X119407861Y-77050526D01*
X119229773Y-77197796D01*
X119108406Y-77299096D01*
X118965073Y-77377133D01*
X118917906Y-77385333D01*
X118832817Y-77447611D01*
X118829666Y-77469999D01*
X118760906Y-77544681D01*
X118700009Y-77554666D01*
X118557398Y-77622923D01*
X118523668Y-77676320D01*
X118420084Y-77759040D01*
X118356992Y-77751928D01*
X118252605Y-77759518D01*
X118236999Y-77799607D01*
X115198092Y-77799607D01*
X114968294Y-77630940D01*
X114737007Y-77445298D01*
X114643937Y-77364166D01*
X114463389Y-77249905D01*
X114332073Y-77215999D01*
X114189680Y-77145180D01*
X114130666Y-77046666D01*
X114054200Y-76909822D01*
X113996893Y-76877333D01*
X113893346Y-76800309D01*
X113776428Y-76595452D01*
X113659858Y-76302078D01*
X113557355Y-75959506D01*
X113482638Y-75607054D01*
X113450363Y-75310999D01*
X113426203Y-74978038D01*
X113387665Y-74686076D01*
X113345557Y-74506666D01*
X113299537Y-74304150D01*
X113305598Y-74203085D01*
X114557285Y-74203085D01*
X114608049Y-74251677D01*
X114628740Y-74252666D01*
X114707844Y-74321240D01*
X114701721Y-74464333D01*
X114702236Y-74626863D01*
X114755796Y-74675999D01*
X114830273Y-74747476D01*
X114850333Y-74861230D01*
X114908113Y-75042367D01*
X115066289Y-75311892D01*
X115302117Y-75641959D01*
X115592851Y-76004725D01*
X115915745Y-76372344D01*
X116248056Y-76716972D01*
X116567036Y-77010764D01*
X116684918Y-77107120D01*
X116903685Y-77258410D01*
X117016360Y-77284328D01*
X117029667Y-77185781D01*
X117021359Y-77152499D01*
X116970350Y-76950213D01*
X116912623Y-76693536D01*
X116864509Y-76458030D01*
X116842958Y-76326999D01*
X116799992Y-76036915D01*
X116722097Y-75643452D01*
X116621725Y-75205800D01*
X116540133Y-74887666D01*
X116482240Y-74591333D01*
X117051666Y-74591333D01*
X117082644Y-74661023D01*
X117108110Y-74647777D01*
X117118243Y-74547297D01*
X117108110Y-74534888D01*
X117057776Y-74546510D01*
X117051666Y-74591333D01*
X116482240Y-74591333D01*
X116431732Y-74332798D01*
X116418457Y-73847453D01*
X116418459Y-73847438D01*
X116424529Y-73541053D01*
X116360421Y-73377241D01*
X116201708Y-73335540D01*
X115923963Y-73395487D01*
X115890991Y-73405573D01*
X115317327Y-73604146D01*
X114908042Y-73792309D01*
X114664927Y-73969160D01*
X114606151Y-74053262D01*
X114557285Y-74203085D01*
X113305598Y-74203085D01*
X113307140Y-74177381D01*
X113302661Y-74125666D01*
X113410999Y-74125666D01*
X113453333Y-74167999D01*
X113495666Y-74125666D01*
X113453333Y-74083333D01*
X113410999Y-74125666D01*
X113302661Y-74125666D01*
X113300626Y-74102168D01*
X113260546Y-74113997D01*
X113204895Y-74098975D01*
X113214604Y-74008338D01*
X113212539Y-73956333D01*
X113326333Y-73956333D01*
X113368666Y-73998666D01*
X113410999Y-73956333D01*
X113368666Y-73913999D01*
X113326333Y-73956333D01*
X113212539Y-73956333D01*
X113208331Y-73850341D01*
X113164064Y-73791366D01*
X113111828Y-73674935D01*
X113123534Y-73527810D01*
X113133824Y-73370239D01*
X113088238Y-73321333D01*
X113041074Y-73273475D01*
X116959393Y-73273475D01*
X117031670Y-73421789D01*
X117119444Y-73680272D01*
X117207069Y-73992646D01*
X117278897Y-74302635D01*
X117319280Y-74553963D01*
X117321012Y-74574037D01*
X117359227Y-74760792D01*
X117424098Y-74847355D01*
X117429508Y-74848025D01*
X117440383Y-74890960D01*
X117352984Y-74975025D01*
X117245590Y-75066987D01*
X117273913Y-75097174D01*
X117334796Y-75099333D01*
X117433999Y-75131702D01*
X117403316Y-75247499D01*
X117363405Y-75435067D01*
X117407002Y-75615813D01*
X117508954Y-75732347D01*
X117618964Y-75739538D01*
X117713504Y-75713268D01*
X117687316Y-75772643D01*
X117635749Y-75836522D01*
X117552876Y-76023736D01*
X117524061Y-76270373D01*
X117524632Y-76284666D01*
X117538587Y-76584732D01*
X117549635Y-76856166D01*
X117582714Y-77063545D01*
X117668600Y-77117220D01*
X117818418Y-77019077D01*
X117916512Y-76918369D01*
X118063013Y-76758432D01*
X118292646Y-76509215D01*
X118573282Y-76205485D01*
X118872790Y-75882009D01*
X119159038Y-75573556D01*
X119212951Y-75515563D01*
X119314009Y-75378513D01*
X119331315Y-75296039D01*
X119256949Y-75308596D01*
X119252999Y-75310999D01*
X119174980Y-75304286D01*
X119168333Y-75273663D01*
X119225479Y-75187397D01*
X119246855Y-75183999D01*
X119334438Y-75127882D01*
X119515344Y-74974984D01*
X119763384Y-74748491D01*
X120052371Y-74471585D01*
X120059776Y-74464333D01*
X120353819Y-74185606D01*
X120613139Y-73957141D01*
X120809851Y-73802356D01*
X120916069Y-73744673D01*
X120916629Y-73744666D01*
X121052242Y-73686704D01*
X121223664Y-73544709D01*
X121247176Y-73520131D01*
X121440554Y-73311474D01*
X122984047Y-73311474D01*
X123058653Y-73444559D01*
X123090055Y-73483999D01*
X123175930Y-73637199D01*
X123277769Y-73888812D01*
X123342279Y-74083333D01*
X123451318Y-74444047D01*
X123566788Y-74825034D01*
X123613736Y-74979577D01*
X123701176Y-75277423D01*
X123765686Y-75532238D01*
X123827791Y-75828983D01*
X123862178Y-76008122D01*
X123865981Y-76171945D01*
X123834637Y-76236376D01*
X123806744Y-76333847D01*
X123797907Y-76539004D01*
X123806255Y-76791495D01*
X123829923Y-77030970D01*
X123864137Y-77189362D01*
X123838445Y-77301908D01*
X123805253Y-77321359D01*
X123758322Y-77396810D01*
X123806852Y-77500304D01*
X123913675Y-77554604D01*
X123917516Y-77554666D01*
X124026373Y-77500457D01*
X124193862Y-77365845D01*
X124240876Y-77321833D01*
X124612811Y-76981776D01*
X124884934Y-76777363D01*
X125058019Y-76708014D01*
X125059858Y-76707999D01*
X125167868Y-76662175D01*
X125179666Y-76627400D01*
X125243985Y-76537701D01*
X125408866Y-76395031D01*
X125546565Y-76294368D01*
X125840429Y-76071283D01*
X126016986Y-75918644D01*
X129089894Y-75918644D01*
X129111139Y-76174139D01*
X129179753Y-76513246D01*
X129279722Y-76858876D01*
X129371738Y-77152474D01*
X129428330Y-77379784D01*
X129439067Y-77497756D01*
X129435922Y-77503520D01*
X129439115Y-77599120D01*
X129475824Y-77658453D01*
X129550023Y-77808649D01*
X129628999Y-78048476D01*
X129689749Y-78300528D01*
X129709161Y-78443666D01*
X129752478Y-78593126D01*
X129834382Y-78687362D01*
X129909114Y-78674473D01*
X129910610Y-78672143D01*
X130022175Y-78601743D01*
X130230194Y-78537172D01*
X130281027Y-78526681D01*
X130511563Y-78451051D01*
X130598195Y-78344006D01*
X130598333Y-78339210D01*
X130620728Y-78256984D01*
X130713970Y-78307370D01*
X130727271Y-78318274D01*
X130819061Y-78380049D01*
X130812852Y-78313155D01*
X130802879Y-78286308D01*
X130804382Y-78175966D01*
X130927941Y-78147333D01*
X131078421Y-78085203D01*
X131133776Y-77927534D01*
X131096140Y-77717405D01*
X130967643Y-77497895D01*
X130891834Y-77417626D01*
X130769959Y-77277742D01*
X130741809Y-77186184D01*
X130744669Y-77182551D01*
X130711251Y-77145961D01*
X130564063Y-77131333D01*
X130405042Y-77102769D01*
X130251943Y-77035399D01*
X130144753Y-76956705D01*
X130123458Y-76894168D01*
X130190118Y-76874332D01*
X130218664Y-76838563D01*
X130132666Y-76768499D01*
X129986322Y-76635993D01*
X129935377Y-76539467D01*
X129859105Y-76392752D01*
X129822313Y-76360668D01*
X129750344Y-76288533D01*
X129749900Y-76275200D01*
X129729153Y-76135745D01*
X129620323Y-75999196D01*
X129498934Y-75945999D01*
X129341477Y-75880701D01*
X129226153Y-75761002D01*
X129147934Y-75655159D01*
X129110150Y-75667209D01*
X129094174Y-75818706D01*
X129089894Y-75918644D01*
X126016986Y-75918644D01*
X126137246Y-75814675D01*
X126224326Y-75731072D01*
X126445801Y-75543107D01*
X126615668Y-75464846D01*
X126661760Y-75468781D01*
X126770503Y-75469987D01*
X126788333Y-75434624D01*
X126846493Y-75406973D01*
X126952930Y-75454690D01*
X127105618Y-75510803D01*
X127248433Y-75438174D01*
X127277096Y-75413074D01*
X127484179Y-75295910D01*
X127641666Y-75261982D01*
X127759333Y-75244064D01*
X127719666Y-75208042D01*
X127564375Y-75112067D01*
X127406241Y-74963939D01*
X127305976Y-74824182D01*
X127295672Y-74785373D01*
X127220704Y-74696870D01*
X127028573Y-74589578D01*
X126766327Y-74486051D01*
X126534333Y-74420334D01*
X126302970Y-74357351D01*
X125982374Y-74257824D01*
X125645333Y-74144462D01*
X125146015Y-73976361D01*
X124629552Y-73814569D01*
X124145371Y-73673717D01*
X123742899Y-73568440D01*
X123570999Y-73530353D01*
X123324770Y-73453402D01*
X123133391Y-73347000D01*
X123126499Y-73341121D01*
X123009103Y-73267427D01*
X122984047Y-73311474D01*
X121440554Y-73311474D01*
X121455268Y-73295597D01*
X121279781Y-73172681D01*
X121061010Y-73090871D01*
X120898314Y-73089142D01*
X120743698Y-73093826D01*
X120692333Y-73055592D01*
X120617868Y-73007380D01*
X120434776Y-72983292D01*
X120395999Y-72982666D01*
X120200093Y-72964221D01*
X120102211Y-72918870D01*
X120099666Y-72909263D01*
X120020545Y-72881744D01*
X119805214Y-72861311D01*
X119486718Y-72849950D01*
X119104833Y-72849549D01*
X118633770Y-72869177D01*
X118173035Y-72911656D01*
X117749537Y-72971671D01*
X117390182Y-73043905D01*
X117121878Y-73123041D01*
X116971531Y-73203763D01*
X116959393Y-73273475D01*
X113041074Y-73273475D01*
X113010297Y-73242245D01*
X112938078Y-73027231D01*
X112880716Y-72709663D01*
X112856523Y-72474666D01*
X112821212Y-72174487D01*
X112773176Y-71903166D01*
X112752047Y-71694214D01*
X112805654Y-71627999D01*
X112857279Y-71569530D01*
X112819472Y-71419330D01*
X112783719Y-71238274D01*
X112817037Y-71163133D01*
X112839625Y-71060045D01*
X112799558Y-70855383D01*
X112772043Y-70770121D01*
X112704318Y-70546936D01*
X112678757Y-70396013D01*
X112683126Y-70370151D01*
X112696465Y-70238230D01*
X112669814Y-70008207D01*
X112616285Y-69741805D01*
X112548989Y-69500746D01*
X112481036Y-69346754D01*
X112461321Y-69325964D01*
X112409030Y-69247450D01*
X112498442Y-69143177D01*
X112517015Y-69128724D01*
X112603810Y-69036547D01*
X112576308Y-69003333D01*
X112514263Y-68959782D01*
X112552946Y-68857352D01*
X112583916Y-68641944D01*
X112550294Y-68553767D01*
X112502484Y-68406730D01*
X112515139Y-68346970D01*
X112560076Y-68363701D01*
X112564333Y-68401551D01*
X112610018Y-68468023D01*
X112641458Y-68457660D01*
X112697344Y-68352642D01*
X112677323Y-68217928D01*
X112600970Y-68137942D01*
X112567303Y-68137816D01*
X112520843Y-68073587D01*
X112499185Y-67874876D01*
X112499180Y-67574208D01*
X112517680Y-67204112D01*
X112551538Y-66797116D01*
X112597606Y-66385746D01*
X112652736Y-66002530D01*
X112713780Y-65679997D01*
X112777590Y-65450673D01*
X112837167Y-65349234D01*
X112888124Y-65289788D01*
X112859485Y-65279296D01*
X112809785Y-65202254D01*
X112775925Y-65006369D01*
X112767585Y-64847107D01*
X112743261Y-64569765D01*
X112686693Y-64387262D01*
X112653893Y-64349691D01*
X112593552Y-64272401D01*
X112643404Y-64223124D01*
X112700958Y-64104287D01*
X112689071Y-64000874D01*
X112680966Y-63870660D01*
X112719526Y-63838666D01*
X112771840Y-63765575D01*
X112784187Y-63589294D01*
X112783880Y-63584666D01*
X112790495Y-63406684D01*
X112830895Y-63330701D01*
X112831990Y-63330666D01*
X112865786Y-63268551D01*
X112851975Y-63211548D01*
X112850601Y-63065160D01*
X112899394Y-62830464D01*
X112937519Y-62705833D01*
X113005717Y-62450746D01*
X113028009Y-62247783D01*
X113019160Y-62189951D01*
X113021679Y-62079825D01*
X113063274Y-62060666D01*
X113146368Y-61992237D01*
X113156999Y-61933666D01*
X113207499Y-61821071D01*
X113250724Y-61806666D01*
X113306804Y-61744879D01*
X113294741Y-61677127D01*
X113297846Y-61536084D01*
X113354144Y-61292359D01*
X113448400Y-61007289D01*
X113543450Y-60729631D01*
X113598384Y-60517734D01*
X113601530Y-60416785D01*
X113601064Y-60416287D01*
X113618507Y-60334726D01*
X113700513Y-60255789D01*
X113815741Y-60097784D01*
X113936842Y-59804978D01*
X113983076Y-59647666D01*
X114850333Y-59647666D01*
X114892666Y-59689999D01*
X114934999Y-59647666D01*
X114892666Y-59605333D01*
X114850333Y-59647666D01*
X113983076Y-59647666D01*
X114052619Y-59411041D01*
X114151874Y-58949643D01*
X114170231Y-58843333D01*
X114230464Y-58552765D01*
X114284156Y-58363555D01*
X115047888Y-58363555D01*
X115059510Y-58413889D01*
X115104333Y-58419999D01*
X115174023Y-58389021D01*
X115160777Y-58363555D01*
X115060297Y-58353422D01*
X115047888Y-58363555D01*
X114284156Y-58363555D01*
X114303635Y-58294912D01*
X114324650Y-58238205D01*
X114377341Y-58063126D01*
X114373011Y-57970900D01*
X114385504Y-57878983D01*
X114423726Y-57784999D01*
X115527666Y-57784999D01*
X115569999Y-57827333D01*
X115612333Y-57784999D01*
X115569999Y-57742666D01*
X115527666Y-57784999D01*
X114423726Y-57784999D01*
X114463278Y-57687743D01*
X114547762Y-57518344D01*
X114684252Y-57228393D01*
X114787580Y-56948883D01*
X114817434Y-56833150D01*
X114871212Y-56646051D01*
X114933225Y-56558265D01*
X114939160Y-56557333D01*
X114998144Y-56487331D01*
X115008303Y-56409166D01*
X115054305Y-56099184D01*
X115142936Y-55858833D01*
X115176180Y-55674363D01*
X115162424Y-55594200D01*
X115166228Y-55439654D01*
X115233011Y-55255534D01*
X115291404Y-55096552D01*
X115263648Y-55033333D01*
X115218159Y-54980983D01*
X115232186Y-54947285D01*
X115328066Y-54894882D01*
X115355311Y-54904465D01*
X115436387Y-54878736D01*
X115501025Y-54732674D01*
X115527664Y-54515204D01*
X115527666Y-54513411D01*
X115561393Y-54400764D01*
X115612333Y-54398332D01*
X115684816Y-54379139D01*
X115696999Y-54318663D01*
X115736124Y-54202747D01*
X115771791Y-54186666D01*
X115851247Y-54116089D01*
X115904489Y-53996166D01*
X115962301Y-53883399D01*
X116006262Y-53912027D01*
X116090306Y-53980719D01*
X116111222Y-53974999D01*
X116374333Y-53974999D01*
X116416666Y-54017333D01*
X116458999Y-53974999D01*
X116416666Y-53932666D01*
X116374333Y-53974999D01*
X116111222Y-53974999D01*
X116127564Y-53970530D01*
X116204829Y-53866621D01*
X116139325Y-53782722D01*
X116032687Y-53763333D01*
X115914203Y-53741247D01*
X115925760Y-53644109D01*
X115951936Y-53592249D01*
X116006474Y-53428373D01*
X115997734Y-53347121D01*
X116022345Y-53259733D01*
X116085410Y-53221871D01*
X116243916Y-53175371D01*
X116282088Y-53220047D01*
G37*
%TO.C,U3*%
D11*
X48487500Y-78770000D02*
X50307500Y-78770000D01*
X48487500Y-78820000D02*
X48487500Y-78770000D01*
X48487500Y-81890000D02*
X48487500Y-81840000D01*
X50307500Y-78770000D02*
X50307500Y-78820000D01*
X50307500Y-79940000D02*
X50307500Y-80720000D01*
X50307500Y-81840000D02*
X50307500Y-81890000D01*
X50307500Y-81890000D02*
X48487500Y-81890000D01*
X47947500Y-78820000D02*
X47707500Y-78490000D01*
X48187500Y-78490000D01*
X47947500Y-78820000D01*
G36*
X47947500Y-78820000D02*
G01*
X47707500Y-78490000D01*
X48187500Y-78490000D01*
X47947500Y-78820000D01*
G37*
%TO.C,TP5*%
X32950000Y-62865000D02*
G75*
G02*
X30550000Y-62865000I-1200000J0D01*
G01*
X30550000Y-62865000D02*
G75*
G02*
X32950000Y-62865000I1200000J0D01*
G01*
%TO.C,C3*%
X115930000Y-76971252D02*
X115930000Y-75548748D01*
X117750000Y-76971252D02*
X117750000Y-75548748D01*
%TO.C,U2*%
X48752500Y-83850000D02*
X50572500Y-83850000D01*
X48752500Y-83900000D02*
X48752500Y-83850000D01*
X48752500Y-86970000D02*
X48752500Y-86920000D01*
X50572500Y-83850000D02*
X50572500Y-83900000D01*
X50572500Y-85020000D02*
X50572500Y-85800000D01*
X50572500Y-86920000D02*
X50572500Y-86970000D01*
X50572500Y-86970000D02*
X48752500Y-86970000D01*
X48212500Y-83900000D02*
X47972500Y-83570000D01*
X48452500Y-83570000D01*
X48212500Y-83900000D01*
G36*
X48212500Y-83900000D02*
G01*
X47972500Y-83570000D01*
X48452500Y-83570000D01*
X48212500Y-83900000D01*
G37*
%TO.C,J3*%
X36720000Y-54720000D02*
X36720000Y-53340000D01*
X38100000Y-54720000D02*
X36720000Y-54720000D01*
X39370000Y-51960000D02*
X42020000Y-51960000D01*
X39370000Y-54720000D02*
X39370000Y-51960000D01*
X39370000Y-54720000D02*
X42020000Y-54720000D01*
X42020000Y-54720000D02*
X42020000Y-51960000D01*
D12*
%TO.C,*%
G36*
X70426175Y-100360166D02*
G01*
X70426175Y-100510997D01*
X69822850Y-100510997D01*
X69219524Y-100510997D01*
X69219524Y-100360166D01*
X69219524Y-100209334D01*
X69822850Y-100209334D01*
X70426175Y-100209334D01*
X70426175Y-100360166D01*
G37*
G36*
X40327772Y-99319296D02*
G01*
X40375024Y-99389814D01*
X40380569Y-99485344D01*
X40365620Y-99613544D01*
X40295101Y-99660796D01*
X40199572Y-99666341D01*
X40071371Y-99651392D01*
X40024119Y-99580873D01*
X40018574Y-99485344D01*
X40033524Y-99357143D01*
X40104042Y-99309891D01*
X40199572Y-99304346D01*
X40327772Y-99319296D01*
G37*
G36*
X49034755Y-100840884D02*
G01*
X49139634Y-100913490D01*
X49176531Y-101025955D01*
X49151770Y-101100371D01*
X49048523Y-101190396D01*
X48915668Y-101228459D01*
X48810574Y-101198308D01*
X48809559Y-101197311D01*
X48762428Y-101078293D01*
X48790303Y-100941017D01*
X48878654Y-100846715D01*
X48894185Y-100840691D01*
X49034755Y-100840884D01*
G37*
G36*
X64644819Y-99315888D02*
G01*
X64688708Y-99377512D01*
X64694584Y-99481336D01*
X64680559Y-99611320D01*
X64612872Y-99660028D01*
X64509579Y-99666341D01*
X64381491Y-99653938D01*
X64339433Y-99594143D01*
X64343664Y-99500427D01*
X64386875Y-99371205D01*
X64501003Y-99319215D01*
X64528669Y-99315422D01*
X64644819Y-99315888D01*
G37*
G36*
X56492361Y-99161106D02*
G01*
X56524062Y-99203917D01*
X56509383Y-99281314D01*
X56451099Y-99446589D01*
X56358450Y-99679142D01*
X56240676Y-99958374D01*
X56107019Y-100263685D01*
X55966718Y-100574475D01*
X55829014Y-100870145D01*
X55703147Y-101130096D01*
X55598359Y-101333726D01*
X55523889Y-101460438D01*
X55498366Y-101490477D01*
X55384938Y-101532013D01*
X55311901Y-101463229D01*
X55302903Y-101441924D01*
X55314469Y-101354145D01*
X55372262Y-101181112D01*
X55466734Y-100943128D01*
X55588337Y-100660495D01*
X55727524Y-100353516D01*
X55874746Y-100042494D01*
X56020455Y-99747732D01*
X56155105Y-99489532D01*
X56269147Y-99288197D01*
X56353033Y-99164029D01*
X56388271Y-99133973D01*
X56492361Y-99161106D01*
G37*
G36*
X64754916Y-100386863D02*
G01*
X64754916Y-100866054D01*
X65011329Y-100884606D01*
X65176831Y-100906989D01*
X65252113Y-100953143D01*
X65267743Y-101023823D01*
X65259271Y-101077366D01*
X65219841Y-101113219D01*
X65128430Y-101135843D01*
X64964014Y-101149696D01*
X64705572Y-101159238D01*
X64618062Y-101161624D01*
X64320567Y-101166543D01*
X64123125Y-101161175D01*
X64005397Y-101143361D01*
X63947047Y-101110947D01*
X63933975Y-101089098D01*
X63926496Y-100965711D01*
X64022417Y-100894740D01*
X64215484Y-100872992D01*
X64453253Y-100872992D01*
X64453253Y-100541163D01*
X64447712Y-100348788D01*
X64424522Y-100248587D01*
X64373836Y-100212323D01*
X64337523Y-100209334D01*
X64143201Y-100176969D01*
X64042719Y-100084196D01*
X64030926Y-100021882D01*
X64046035Y-99957845D01*
X64109491Y-99923241D01*
X64248487Y-99909491D01*
X64392921Y-99907671D01*
X64754916Y-99907671D01*
X64754916Y-100386863D01*
G37*
G36*
X40440902Y-100390332D02*
G01*
X40440902Y-100872992D01*
X40644678Y-100872992D01*
X40813556Y-100902201D01*
X40931589Y-100975177D01*
X40970173Y-101069943D01*
X40955362Y-101111679D01*
X40878965Y-101140216D01*
X40702557Y-101161279D01*
X40446664Y-101172943D01*
X40284616Y-101174655D01*
X39986926Y-101171046D01*
X39790427Y-101158525D01*
X39675814Y-101134551D01*
X39623783Y-101096582D01*
X39619173Y-101087045D01*
X39612747Y-100964566D01*
X39710553Y-100894153D01*
X39901470Y-100872992D01*
X40139239Y-100872992D01*
X40139239Y-100544986D01*
X40136033Y-100356344D01*
X40114501Y-100256751D01*
X40056773Y-100214591D01*
X39944981Y-100198249D01*
X39943158Y-100198074D01*
X39796607Y-100162008D01*
X39734278Y-100076218D01*
X39727798Y-100043420D01*
X39725705Y-99968539D01*
X39764188Y-99927862D01*
X39869728Y-99911027D01*
X40068807Y-99907672D01*
X40074710Y-99907671D01*
X40440902Y-99907671D01*
X40440902Y-100390332D01*
G37*
G36*
X68080386Y-99314197D02*
G01*
X68139508Y-99326639D01*
X68180202Y-99357601D01*
X68206537Y-99427110D01*
X68222588Y-99555191D01*
X68232424Y-99761869D01*
X68240118Y-100067168D01*
X68240923Y-100103752D01*
X68257809Y-100872992D01*
X68455103Y-100872992D01*
X68642635Y-100902050D01*
X68748931Y-100980086D01*
X68755861Y-101091508D01*
X68711025Y-101130271D01*
X68600331Y-101155647D01*
X68406371Y-101169724D01*
X68111734Y-101174590D01*
X68062555Y-101174655D01*
X67773531Y-101173743D01*
X67584765Y-101168130D01*
X67475852Y-101153503D01*
X67426385Y-101125547D01*
X67415958Y-101079949D01*
X67420435Y-101038907D01*
X67458984Y-100943987D01*
X67561996Y-100897720D01*
X67665961Y-100884433D01*
X67892208Y-100865708D01*
X67892208Y-100270818D01*
X67892208Y-99675929D01*
X67711211Y-99636175D01*
X67564422Y-99569823D01*
X67523408Y-99477654D01*
X67586097Y-99387973D01*
X67733474Y-99332014D01*
X67920394Y-99310992D01*
X68080386Y-99314197D01*
G37*
G36*
X52654366Y-99878211D02*
G01*
X52808407Y-99937493D01*
X53029340Y-100107245D01*
X53147315Y-100338234D01*
X53171068Y-100541163D01*
X53122529Y-100819108D01*
X52975811Y-101027176D01*
X52772959Y-101150862D01*
X52514015Y-101225595D01*
X52279781Y-101206984D01*
X52085082Y-101129312D01*
X51883336Y-100971572D01*
X51761577Y-100793827D01*
X51693373Y-100631682D01*
X51684021Y-100506718D01*
X51686926Y-100496897D01*
X52005007Y-100496897D01*
X52007095Y-100652707D01*
X52093138Y-100791627D01*
X52224775Y-100872571D01*
X52398719Y-100923717D01*
X52549079Y-100905907D01*
X52656849Y-100862649D01*
X52797644Y-100743114D01*
X52855888Y-100576437D01*
X52835123Y-100400020D01*
X52738889Y-100251269D01*
X52591488Y-100172165D01*
X52380115Y-100161831D01*
X52203753Y-100228088D01*
X52074638Y-100347567D01*
X52005007Y-100496897D01*
X51686926Y-100496897D01*
X51729437Y-100353163D01*
X51733553Y-100342293D01*
X51884420Y-100100927D01*
X52107620Y-99935803D01*
X52373990Y-99857903D01*
X52654366Y-99878211D01*
G37*
G36*
X82308673Y-99926270D02*
G01*
X82321019Y-99931995D01*
X82544273Y-100093389D01*
X82679815Y-100306543D01*
X82726995Y-100544864D01*
X82685162Y-100781756D01*
X82553667Y-100990627D01*
X82350475Y-101136353D01*
X82055630Y-101225442D01*
X81781764Y-101198492D01*
X81606056Y-101116977D01*
X81372380Y-100925720D01*
X81254282Y-100705330D01*
X81249563Y-100564208D01*
X81527363Y-100564208D01*
X81578654Y-100692739D01*
X81704855Y-100819131D01*
X81864455Y-100909523D01*
X81979857Y-100933325D01*
X82121167Y-100896771D01*
X82272694Y-100808822D01*
X82273383Y-100808281D01*
X82390194Y-100673135D01*
X82432351Y-100541163D01*
X82379678Y-100393602D01*
X82248243Y-100257763D01*
X82077924Y-100167396D01*
X81968978Y-100149002D01*
X81815019Y-100196553D01*
X81663281Y-100313301D01*
X81555093Y-100460390D01*
X81527363Y-100564208D01*
X81249563Y-100564208D01*
X81246331Y-100467570D01*
X81343246Y-100210416D01*
X81524384Y-100014530D01*
X81763299Y-99893090D01*
X82033544Y-99859277D01*
X82308673Y-99926270D01*
G37*
G36*
X51119762Y-99891566D02*
G01*
X51285755Y-99927343D01*
X51364935Y-99977058D01*
X51389435Y-100074945D01*
X51391258Y-100180838D01*
X51380013Y-100340557D01*
X51334436Y-100415890D01*
X51260692Y-100439098D01*
X51138002Y-100412035D01*
X51090756Y-100333657D01*
X50997769Y-100212772D01*
X50840948Y-100158048D01*
X50656481Y-100168146D01*
X50480552Y-100241730D01*
X50359717Y-100360684D01*
X50288845Y-100546481D01*
X50318955Y-100706827D01*
X50431213Y-100830570D01*
X50606785Y-100906555D01*
X50826838Y-100923629D01*
X51072538Y-100870639D01*
X51159414Y-100834281D01*
X51333038Y-100781170D01*
X51444637Y-100805457D01*
X51476544Y-100899637D01*
X51460450Y-100962160D01*
X51355536Y-101081991D01*
X51166183Y-101168265D01*
X50925294Y-101215551D01*
X50665773Y-101218419D01*
X50420521Y-101171440D01*
X50351038Y-101145257D01*
X50148165Y-100998698D01*
X50027141Y-100789428D01*
X49991831Y-100546813D01*
X50046099Y-100300218D01*
X50193809Y-100079011D01*
X50208793Y-100064233D01*
X50450343Y-99915199D01*
X50766304Y-99860108D01*
X51119762Y-99891566D01*
G37*
G36*
X73437288Y-99868399D02*
G01*
X73633133Y-99931995D01*
X73847286Y-100089089D01*
X73993721Y-100307408D01*
X74046128Y-100541163D01*
X73991327Y-100785884D01*
X73844235Y-100991069D01*
X73630822Y-101141164D01*
X73377053Y-101220614D01*
X73108897Y-101213864D01*
X72985387Y-101176534D01*
X72867350Y-101098761D01*
X72728773Y-100967990D01*
X72692491Y-100926893D01*
X72570627Y-100706551D01*
X72558518Y-100564208D01*
X72839477Y-100564208D01*
X72890768Y-100692739D01*
X73016969Y-100819131D01*
X73176569Y-100909523D01*
X73291971Y-100933325D01*
X73433281Y-100896771D01*
X73584808Y-100808822D01*
X73585497Y-100808281D01*
X73702308Y-100673135D01*
X73744465Y-100541163D01*
X73691792Y-100393602D01*
X73560357Y-100257763D01*
X73390038Y-100167396D01*
X73281092Y-100149002D01*
X73127133Y-100196553D01*
X72975395Y-100313301D01*
X72867207Y-100460390D01*
X72839477Y-100564208D01*
X72558518Y-100564208D01*
X72551450Y-100481118D01*
X72619001Y-100267474D01*
X72757320Y-100082499D01*
X72950448Y-99943075D01*
X73182424Y-99866082D01*
X73437288Y-99868399D01*
G37*
G36*
X41882644Y-99481141D02*
G01*
X41925014Y-99579228D01*
X41937774Y-99681424D01*
X41956499Y-99907671D01*
X42286580Y-99907671D01*
X42496762Y-99918135D01*
X42612597Y-99953883D01*
X42653725Y-100004259D01*
X42647407Y-100111202D01*
X42529976Y-100178610D01*
X42299878Y-100207237D01*
X42232784Y-100208410D01*
X41943194Y-100209334D01*
X41961288Y-100556246D01*
X41979382Y-100903158D01*
X42190546Y-100894170D01*
X42410837Y-100880945D01*
X42612873Y-100864003D01*
X42756249Y-100860633D01*
X42815239Y-100900144D01*
X42824037Y-100961558D01*
X42784022Y-101056653D01*
X42650395Y-101130609D01*
X42582707Y-101153002D01*
X42255712Y-101221753D01*
X41999847Y-101205806D01*
X41806520Y-101109943D01*
X41717986Y-101026787D01*
X41670028Y-100929284D01*
X41650616Y-100779124D01*
X41647553Y-100603657D01*
X41644040Y-100394825D01*
X41625971Y-100275974D01*
X41582055Y-100216466D01*
X41500999Y-100185660D01*
X41492713Y-100183553D01*
X41378905Y-100115101D01*
X41361228Y-100019722D01*
X41437069Y-99939842D01*
X41509002Y-99919006D01*
X41602510Y-99878313D01*
X41647897Y-99769190D01*
X41659217Y-99677676D01*
X41686258Y-99525210D01*
X41745502Y-99462433D01*
X41798384Y-99455177D01*
X41882644Y-99481141D01*
G37*
G36*
X80103304Y-99457360D02*
G01*
X80173305Y-99568640D01*
X80199123Y-99741757D01*
X80206705Y-99837040D01*
X80248010Y-99886408D01*
X80352933Y-99904927D01*
X80528315Y-99907671D01*
X80720885Y-99919621D01*
X80858457Y-99950511D01*
X80899528Y-99977157D01*
X80897597Y-100064015D01*
X80800568Y-100140500D01*
X80633971Y-100193217D01*
X80457001Y-100209334D01*
X80194025Y-100209334D01*
X80212119Y-100556246D01*
X80230213Y-100903158D01*
X80441377Y-100894170D01*
X80659378Y-100880964D01*
X80857276Y-100864003D01*
X81010798Y-100868384D01*
X81086790Y-100913115D01*
X81087269Y-100914396D01*
X81063725Y-101003772D01*
X80949490Y-101086583D01*
X80774533Y-101155097D01*
X80568824Y-101201585D01*
X80362330Y-101218314D01*
X80185022Y-101197554D01*
X80109548Y-101166613D01*
X80000213Y-101087901D01*
X79936961Y-100992550D01*
X79907466Y-100846925D01*
X79899400Y-100617395D01*
X79899308Y-100592953D01*
X79894870Y-100387346D01*
X79875163Y-100271291D01*
X79828647Y-100213734D01*
X79747553Y-100184559D01*
X79629516Y-100115782D01*
X79594955Y-100016862D01*
X79646036Y-99929157D01*
X79732470Y-99896785D01*
X79833955Y-99851504D01*
X79880620Y-99731875D01*
X79887382Y-99677965D01*
X79934314Y-99506696D01*
X80014964Y-99434937D01*
X80103304Y-99457360D01*
G37*
G36*
X66655291Y-99921567D02*
G01*
X66859802Y-100058841D01*
X66998772Y-100257067D01*
X67047553Y-100494255D01*
X67047553Y-100691994D01*
X66459310Y-100694002D01*
X65871068Y-100696009D01*
X66021701Y-100821308D01*
X66135593Y-100896467D01*
X66262761Y-100922102D01*
X66452748Y-100907307D01*
X66474195Y-100904363D01*
X66730153Y-100870180D01*
X66890517Y-100856738D01*
X66979022Y-100866850D01*
X67019400Y-100903326D01*
X67035385Y-100968981D01*
X67035659Y-100970895D01*
X67028332Y-101063472D01*
X66962160Y-101127076D01*
X66817922Y-101170377D01*
X66576398Y-101202044D01*
X66509548Y-101208201D01*
X66180817Y-101204826D01*
X65981204Y-101150716D01*
X65772408Y-101001786D01*
X65628259Y-100792349D01*
X65562766Y-100555949D01*
X65582824Y-100386317D01*
X65871068Y-100386317D01*
X66278313Y-100388325D01*
X66482261Y-100381452D01*
X66628354Y-100361497D01*
X66685534Y-100332748D01*
X66685557Y-100332122D01*
X66632669Y-100253239D01*
X66503024Y-100185692D01*
X66340151Y-100150372D01*
X66304046Y-100149002D01*
X66149364Y-100187290D01*
X66013500Y-100267659D01*
X65871068Y-100386317D01*
X65582824Y-100386317D01*
X65589941Y-100326128D01*
X65613974Y-100271478D01*
X65715919Y-100139251D01*
X65866689Y-100005563D01*
X65895952Y-99984898D01*
X66148622Y-99873651D01*
X66409983Y-99856189D01*
X66655291Y-99921567D01*
G37*
G36*
X75378492Y-99925653D02*
G01*
X75544861Y-100043344D01*
X75639079Y-100239368D01*
X75674072Y-100524005D01*
X75675106Y-100598036D01*
X75695683Y-100790578D01*
X75749495Y-100917724D01*
X75762019Y-100930348D01*
X75832851Y-101030629D01*
X75794013Y-101110820D01*
X75656024Y-101161554D01*
X75487654Y-101174655D01*
X75308025Y-101167467D01*
X75219477Y-101138455D01*
X75192897Y-101076447D01*
X75192446Y-101061377D01*
X75236265Y-100928074D01*
X75282945Y-100872992D01*
X75347450Y-100754633D01*
X75371310Y-100573445D01*
X75352142Y-100381038D01*
X75310988Y-100265700D01*
X75197751Y-100167919D01*
X75028767Y-100159193D01*
X74886817Y-100211457D01*
X74807182Y-100313867D01*
X74767982Y-100483138D01*
X74770338Y-100672049D01*
X74815368Y-100833382D01*
X74870420Y-100902866D01*
X74953766Y-101003271D01*
X74928304Y-101089652D01*
X74805861Y-101150578D01*
X74598268Y-101174622D01*
X74589120Y-101174655D01*
X74387647Y-101162744D01*
X74279063Y-101122027D01*
X74245595Y-101075431D01*
X74257411Y-100958675D01*
X74307821Y-100902866D01*
X74364224Y-100805745D01*
X74399663Y-100640759D01*
X74411674Y-100452558D01*
X74397791Y-100285791D01*
X74355546Y-100185107D01*
X74347790Y-100179168D01*
X74295801Y-100093454D01*
X74287458Y-100033450D01*
X74304272Y-99977611D01*
X74369992Y-99939301D01*
X74507534Y-99911539D01*
X74739812Y-99887344D01*
X74777601Y-99884144D01*
X75127048Y-99876013D01*
X75378492Y-99925653D01*
G37*
G36*
X59410244Y-99854046D02*
G01*
X59613245Y-99893660D01*
X59769345Y-99972383D01*
X59857932Y-100055612D01*
X59905891Y-100153221D01*
X59925275Y-100303564D01*
X59928313Y-100478173D01*
X59932985Y-100689458D01*
X59953019Y-100809904D01*
X59997442Y-100869169D01*
X60054225Y-100891846D01*
X60151963Y-100960685D01*
X60158874Y-101034631D01*
X60117968Y-101104595D01*
X60010892Y-101142620D01*
X59836881Y-101158497D01*
X59587661Y-101175561D01*
X59332019Y-101201088D01*
X59264655Y-101209630D01*
X59069147Y-101222044D01*
X58929931Y-101184445D01*
X58827244Y-101115827D01*
X58687473Y-100950500D01*
X58659020Y-100796553D01*
X58980844Y-100796553D01*
X58987502Y-100863839D01*
X59096097Y-100926865D01*
X59293535Y-100909708D01*
X59436649Y-100867090D01*
X59588931Y-100787388D01*
X59625307Y-100708654D01*
X59549084Y-100650430D01*
X59396851Y-100631662D01*
X59206179Y-100655274D01*
X59058182Y-100715529D01*
X58980844Y-100796553D01*
X58659020Y-100796553D01*
X58655372Y-100776815D01*
X58720635Y-100611749D01*
X58872957Y-100472275D01*
X59102030Y-100375367D01*
X59296826Y-100342409D01*
X59507756Y-100312209D01*
X59604712Y-100272145D01*
X59592948Y-100230934D01*
X59477715Y-100197294D01*
X59264265Y-100179941D01*
X59198463Y-100179168D01*
X58987871Y-100175159D01*
X58871120Y-100157695D01*
X58821502Y-100118622D01*
X58812161Y-100061223D01*
X58865551Y-99960527D01*
X59004376Y-99890451D01*
X59196614Y-99853966D01*
X59410244Y-99854046D01*
G37*
G36*
X63412750Y-99876077D02*
G01*
X63556665Y-99964112D01*
X63650193Y-100052379D01*
X63654877Y-100116340D01*
X63601158Y-100180560D01*
X63506591Y-100246220D01*
X63404742Y-100218134D01*
X63380054Y-100203318D01*
X63286199Y-100164029D01*
X63187470Y-100184588D01*
X63040994Y-100273449D01*
X62898738Y-100388538D01*
X62836726Y-100505967D01*
X62824687Y-100643439D01*
X62824275Y-100866381D01*
X63110854Y-100884770D01*
X63287520Y-100904248D01*
X63373144Y-100942462D01*
X63397266Y-101013745D01*
X63397434Y-101023823D01*
X63388636Y-101078323D01*
X63347943Y-101114487D01*
X63253905Y-101137064D01*
X63085075Y-101150803D01*
X62820003Y-101160452D01*
X62774546Y-101161732D01*
X62495688Y-101168561D01*
X62316464Y-101167667D01*
X62215897Y-101154853D01*
X62173007Y-101125925D01*
X62166816Y-101076686D01*
X62171221Y-101041067D01*
X62228037Y-100927433D01*
X62356698Y-100884068D01*
X62452922Y-100864701D01*
X62502247Y-100814014D01*
X62520264Y-100700023D01*
X62522612Y-100543696D01*
X62517106Y-100354572D01*
X62491135Y-100252188D01*
X62430518Y-100202780D01*
X62371781Y-100184559D01*
X62247116Y-100110445D01*
X62220949Y-100027187D01*
X62237176Y-99955446D01*
X62305561Y-99919670D01*
X62455660Y-99908149D01*
X62522612Y-99907671D01*
X62694697Y-99918802D01*
X62803918Y-99947262D01*
X62824275Y-99969553D01*
X62869907Y-99988343D01*
X62985734Y-99947706D01*
X63002276Y-99939387D01*
X63226379Y-99857750D01*
X63412750Y-99876077D01*
G37*
G36*
X77424750Y-100081632D02*
G01*
X77425834Y-100400753D01*
X77431181Y-100619421D01*
X77443931Y-100757845D01*
X77467225Y-100836231D01*
X77504202Y-100874788D01*
X77550662Y-100891846D01*
X77648400Y-100960685D01*
X77655311Y-101034631D01*
X77614711Y-101104419D01*
X77508438Y-101142064D01*
X77333318Y-101157491D01*
X77094313Y-101172734D01*
X76857638Y-101195262D01*
X76791258Y-101203531D01*
X76518022Y-101197421D01*
X76354364Y-101148408D01*
X76155908Y-100997582D01*
X76028527Y-100775218D01*
X75995749Y-100553504D01*
X76279355Y-100553504D01*
X76332874Y-100731022D01*
X76468300Y-100857381D01*
X76653020Y-100919442D01*
X76854425Y-100904065D01*
X76988998Y-100839405D01*
X77096623Y-100702701D01*
X77115851Y-100533061D01*
X77059561Y-100363152D01*
X76940629Y-100225637D01*
X76771936Y-100153182D01*
X76716807Y-100149002D01*
X76569051Y-100194979D01*
X76419789Y-100307407D01*
X76310392Y-100448031D01*
X76279355Y-100553504D01*
X75995749Y-100553504D01*
X75990545Y-100518305D01*
X76000427Y-100433972D01*
X76102440Y-100188111D01*
X76287836Y-99998470D01*
X76526651Y-99882034D01*
X76788925Y-99855792D01*
X76953615Y-99893554D01*
X77072359Y-99928972D01*
X77116965Y-99898329D01*
X77123087Y-99819291D01*
X77076422Y-99682123D01*
X76987339Y-99584830D01*
X76895016Y-99510977D01*
X76897498Y-99458289D01*
X76968704Y-99396474D01*
X77118568Y-99326100D01*
X77255284Y-99304346D01*
X77424750Y-99304346D01*
X77424750Y-100081632D01*
G37*
G36*
X78535660Y-99854046D02*
G01*
X78738661Y-99893660D01*
X78894761Y-99972383D01*
X78983348Y-100055612D01*
X79031307Y-100153221D01*
X79050690Y-100303564D01*
X79053728Y-100478173D01*
X79058400Y-100689458D01*
X79078434Y-100809904D01*
X79122858Y-100869169D01*
X79179641Y-100891846D01*
X79277378Y-100960685D01*
X79284290Y-101034631D01*
X79243384Y-101104595D01*
X79136308Y-101142620D01*
X78962297Y-101158497D01*
X78708797Y-101176059D01*
X78445253Y-101202684D01*
X78377868Y-101211268D01*
X78194832Y-101227495D01*
X78074356Y-101201302D01*
X77961064Y-101115792D01*
X77913806Y-101069668D01*
X77788121Y-100900712D01*
X77778555Y-100796553D01*
X78106260Y-100796553D01*
X78112917Y-100863839D01*
X78221512Y-100926865D01*
X78418950Y-100909708D01*
X78562065Y-100867090D01*
X78714346Y-100787388D01*
X78750723Y-100708654D01*
X78674499Y-100650430D01*
X78522267Y-100631662D01*
X78331595Y-100655274D01*
X78183597Y-100715529D01*
X78106260Y-100796553D01*
X77778555Y-100796553D01*
X77773698Y-100743669D01*
X77872467Y-100581253D01*
X77979595Y-100480115D01*
X78138429Y-100378179D01*
X78326487Y-100335060D01*
X78460060Y-100329999D01*
X78649446Y-100319923D01*
X78732443Y-100287367D01*
X78736151Y-100254584D01*
X78656878Y-100206487D01*
X78462365Y-100182201D01*
X78323878Y-100179168D01*
X78113286Y-100175159D01*
X77996535Y-100157695D01*
X77946918Y-100118622D01*
X77937576Y-100061223D01*
X77990967Y-99960527D01*
X78129792Y-99890451D01*
X78322030Y-99853966D01*
X78535660Y-99854046D01*
G37*
G36*
X57938382Y-99884073D02*
G01*
X58198932Y-99906787D01*
X58360994Y-99931120D01*
X58446663Y-99963184D01*
X58478033Y-100009092D01*
X58480332Y-100033995D01*
X58432539Y-100153302D01*
X58379376Y-100199503D01*
X58327246Y-100254628D01*
X58292072Y-100365607D01*
X58269081Y-100555278D01*
X58255748Y-100790744D01*
X58239551Y-101113932D01*
X58218896Y-101338885D01*
X58187377Y-101488019D01*
X58138587Y-101583749D01*
X58066121Y-101648490D01*
X57999794Y-101686384D01*
X57844758Y-101738079D01*
X57645649Y-101768451D01*
X57442412Y-101776104D01*
X57274994Y-101759639D01*
X57183341Y-101717660D01*
X57181549Y-101715005D01*
X57176467Y-101617246D01*
X57265691Y-101533800D01*
X57422940Y-101483342D01*
X57517464Y-101476318D01*
X57748301Y-101461049D01*
X57880736Y-101408724D01*
X57933911Y-101309565D01*
X57937339Y-101261837D01*
X57926697Y-101168459D01*
X57871288Y-101149817D01*
X57755276Y-101184067D01*
X57491911Y-101216534D01*
X57237879Y-101130594D01*
X57078352Y-101008952D01*
X56917596Y-100782129D01*
X56886827Y-100611416D01*
X57172513Y-100611416D01*
X57273151Y-100756483D01*
X57301105Y-100785236D01*
X57476315Y-100909201D01*
X57649931Y-100916799D01*
X57803249Y-100839405D01*
X57911589Y-100704435D01*
X57937339Y-100541163D01*
X57889447Y-100342460D01*
X57766850Y-100210061D01*
X57601171Y-100155148D01*
X57424029Y-100188907D01*
X57278060Y-100307969D01*
X57174770Y-100474772D01*
X57172513Y-100611416D01*
X56886827Y-100611416D01*
X56871089Y-100524097D01*
X56941337Y-100249175D01*
X56944373Y-100242708D01*
X57052261Y-100065423D01*
X57190927Y-99949694D01*
X57382944Y-99887379D01*
X57650881Y-99870335D01*
X57938382Y-99884073D01*
G37*
G36*
X38811934Y-99883995D02*
G01*
X39057447Y-99908582D01*
X39254934Y-99939697D01*
X39375086Y-99972197D01*
X39396559Y-99986573D01*
X39383966Y-100065040D01*
X39311661Y-100147305D01*
X39254421Y-100208826D01*
X39215659Y-100299659D01*
X39190245Y-100444852D01*
X39173047Y-100669455D01*
X39163887Y-100868835D01*
X39150696Y-101151248D01*
X39133765Y-101340127D01*
X39106307Y-101462567D01*
X39061531Y-101545661D01*
X38992650Y-101616503D01*
X38972047Y-101634460D01*
X38842398Y-101722331D01*
X38688234Y-101765876D01*
X38462998Y-101777969D01*
X38453019Y-101777980D01*
X38220357Y-101765474D01*
X38095145Y-101726403D01*
X38068936Y-101694833D01*
X38075928Y-101582007D01*
X38187985Y-101506473D01*
X38393247Y-101475714D01*
X38416745Y-101475394D01*
X38632565Y-101459086D01*
X38756622Y-101403173D01*
X38814974Y-101294103D01*
X38820976Y-101265154D01*
X38811181Y-101174595D01*
X38751591Y-101169226D01*
X38434369Y-101217490D01*
X38177006Y-101166890D01*
X37964427Y-101013138D01*
X37890471Y-100924380D01*
X37803957Y-100727430D01*
X37778037Y-100500628D01*
X38085410Y-100500628D01*
X38104230Y-100678887D01*
X38207740Y-100824097D01*
X38387772Y-100921336D01*
X38563884Y-100903661D01*
X38677834Y-100839405D01*
X38789920Y-100699126D01*
X38814140Y-100525456D01*
X38762274Y-100353054D01*
X38646100Y-100216580D01*
X38477399Y-100150691D01*
X38443188Y-100149002D01*
X38267344Y-100199975D01*
X38143933Y-100329087D01*
X38085410Y-100500628D01*
X37778037Y-100500628D01*
X37776267Y-100485141D01*
X37810268Y-100255676D01*
X37852871Y-100161385D01*
X37974780Y-100013623D01*
X38134138Y-99920998D01*
X38354048Y-99876828D01*
X38657612Y-99874431D01*
X38811934Y-99883995D01*
G37*
G36*
X43403850Y-99317449D02*
G01*
X43444026Y-99376192D01*
X43456824Y-99512296D01*
X43457529Y-99594117D01*
X43457529Y-99883888D01*
X43794588Y-99880697D01*
X44051202Y-99901981D01*
X44221155Y-99982484D01*
X44318994Y-100138523D01*
X44359267Y-100386414D01*
X44362517Y-100517681D01*
X44370551Y-100729209D01*
X44397862Y-100840968D01*
X44447988Y-100872992D01*
X44542002Y-100918166D01*
X44559766Y-100948408D01*
X44570792Y-101068415D01*
X44493717Y-101140336D01*
X44316695Y-101171731D01*
X44205231Y-101174655D01*
X44015390Y-101169022D01*
X43917357Y-101145226D01*
X43882529Y-101092924D01*
X43879857Y-101056988D01*
X43923722Y-100933116D01*
X43974094Y-100886583D01*
X44034070Y-100812720D01*
X44053680Y-100664770D01*
X44049510Y-100542853D01*
X44007766Y-100305056D01*
X43919211Y-100177646D01*
X43781900Y-100158997D01*
X43653089Y-100211255D01*
X43540832Y-100298963D01*
X43486042Y-100426651D01*
X43468814Y-100564910D01*
X43469558Y-100749189D01*
X43514309Y-100859746D01*
X43571868Y-100911552D01*
X43654605Y-101010376D01*
X43659711Y-101085807D01*
X43580976Y-101143379D01*
X43428594Y-101174137D01*
X43246533Y-101178216D01*
X43078763Y-101155755D01*
X42969254Y-101106888D01*
X42952843Y-101083615D01*
X42970426Y-100981178D01*
X43036887Y-100918270D01*
X43092144Y-100870935D01*
X43127232Y-100795798D01*
X43146577Y-100667973D01*
X43154606Y-100462577D01*
X43155866Y-100249506D01*
X43153854Y-99975634D01*
X43144834Y-99799195D01*
X43124334Y-99696983D01*
X43087881Y-99645791D01*
X43035201Y-99623490D01*
X42937031Y-99553017D01*
X42914536Y-99485344D01*
X42970207Y-99386741D01*
X43125146Y-99324121D01*
X43321781Y-99305170D01*
X43403850Y-99317449D01*
G37*
G36*
X72126231Y-99372180D02*
G01*
X72292399Y-99425297D01*
X72346726Y-99514639D01*
X72344558Y-99535748D01*
X72305808Y-99594911D01*
X72201050Y-99630918D01*
X72005719Y-99651122D01*
X71948966Y-99654137D01*
X71740781Y-99668822D01*
X71626565Y-99694095D01*
X71579622Y-99739583D01*
X71572493Y-99789885D01*
X71589263Y-99860676D01*
X71659173Y-99895971D01*
X71811627Y-99907253D01*
X71874156Y-99907671D01*
X72055987Y-99914483D01*
X72146598Y-99942246D01*
X72175024Y-100001953D01*
X72175819Y-100021882D01*
X72135741Y-100130450D01*
X72006698Y-100190854D01*
X71778723Y-100209334D01*
X71572493Y-100209334D01*
X71572493Y-100537857D01*
X71572493Y-100866381D01*
X71859073Y-100884770D01*
X72035739Y-100904248D01*
X72121362Y-100942462D01*
X72145485Y-101013745D01*
X72145652Y-101023823D01*
X72136854Y-101078323D01*
X72096161Y-101114487D01*
X72002124Y-101137064D01*
X71833293Y-101150803D01*
X71568222Y-101160452D01*
X71522765Y-101161732D01*
X71243906Y-101168561D01*
X71064683Y-101167667D01*
X70964115Y-101154853D01*
X70921226Y-101125925D01*
X70915035Y-101076686D01*
X70919439Y-101041067D01*
X70976256Y-100927433D01*
X71104916Y-100884068D01*
X71200410Y-100865041D01*
X71249803Y-100815310D01*
X71268224Y-100703243D01*
X71270831Y-100537156D01*
X71264986Y-100345819D01*
X71240971Y-100246713D01*
X71189062Y-100211698D01*
X71157553Y-100209334D01*
X71040028Y-100174353D01*
X70951582Y-100094120D01*
X70925377Y-100005702D01*
X70944575Y-99971303D01*
X71046924Y-99917074D01*
X71116188Y-99898352D01*
X71222200Y-99821852D01*
X71283467Y-99682725D01*
X71370194Y-99503075D01*
X71527722Y-99397518D01*
X71773097Y-99356117D01*
X71846387Y-99354623D01*
X72126231Y-99372180D01*
G37*
G36*
X60714990Y-99315527D02*
G01*
X60755613Y-99367204D01*
X60770941Y-99489284D01*
X60772968Y-99638298D01*
X60776256Y-99826557D01*
X60792809Y-99917536D01*
X60832659Y-99934575D01*
X60889667Y-99909794D01*
X61120761Y-99848977D01*
X61375222Y-99879368D01*
X61614810Y-99988422D01*
X61801284Y-100163597D01*
X61837665Y-100220783D01*
X61905090Y-100436178D01*
X61906327Y-100679126D01*
X61842777Y-100890722D01*
X61820903Y-100926273D01*
X61690815Y-101049253D01*
X61506896Y-101150738D01*
X61306263Y-101218457D01*
X61126035Y-101240134D01*
X61003329Y-101203497D01*
X60997854Y-101198432D01*
X60922102Y-101177264D01*
X60764071Y-101160391D01*
X60611567Y-101153182D01*
X60407083Y-101141259D01*
X60294876Y-101112421D01*
X60246817Y-101057679D01*
X60240658Y-101034631D01*
X60270140Y-100930035D01*
X60345393Y-100891846D01*
X60402879Y-100868183D01*
X60439613Y-100818029D01*
X60460195Y-100718194D01*
X60464452Y-100636776D01*
X60787852Y-100636776D01*
X60871018Y-100798568D01*
X61014299Y-100893694D01*
X61178166Y-100912326D01*
X61364584Y-100876603D01*
X61512692Y-100800768D01*
X61542208Y-100770149D01*
X61613099Y-100587325D01*
X61566910Y-100397278D01*
X61486442Y-100288638D01*
X61305924Y-100171094D01*
X61107734Y-100167129D01*
X60915917Y-100277096D01*
X60912605Y-100280184D01*
X60799824Y-100452575D01*
X60787852Y-100636776D01*
X60464452Y-100636776D01*
X60469225Y-100545486D01*
X60471302Y-100276716D01*
X60471306Y-100256982D01*
X60469341Y-99981128D01*
X60460521Y-99802862D01*
X60440454Y-99699131D01*
X60404749Y-99646885D01*
X60350641Y-99623490D01*
X60252470Y-99553017D01*
X60229975Y-99485344D01*
X60285646Y-99386741D01*
X60440585Y-99324121D01*
X60637220Y-99305170D01*
X60714990Y-99315527D01*
G37*
G36*
X54714495Y-99882840D02*
G01*
X54820862Y-99957671D01*
X54883869Y-100077678D01*
X54915148Y-100275913D01*
X54920712Y-100464043D01*
X54928736Y-100697568D01*
X54955878Y-100833228D01*
X55006744Y-100892946D01*
X55011211Y-100894810D01*
X55085737Y-100976650D01*
X55101709Y-101052096D01*
X55082105Y-101132149D01*
X55002036Y-101167560D01*
X54860379Y-101174655D01*
X54619049Y-101174655D01*
X54619049Y-100661828D01*
X54613368Y-100390722D01*
X54592478Y-100228256D01*
X54550613Y-100162773D01*
X54482004Y-100182618D01*
X54412195Y-100243810D01*
X54348714Y-100363759D01*
X54318610Y-100533764D01*
X54322178Y-100709278D01*
X54359712Y-100845751D01*
X54407885Y-100894810D01*
X54482411Y-100976650D01*
X54498384Y-101052096D01*
X54478780Y-101132149D01*
X54398711Y-101167560D01*
X54257054Y-101174655D01*
X54015724Y-101174655D01*
X54015724Y-100661828D01*
X54011669Y-100404219D01*
X53997147Y-100246572D01*
X53968627Y-100168384D01*
X53927348Y-100149002D01*
X53826838Y-100201980D01*
X53754617Y-100335788D01*
X53716333Y-100512730D01*
X53717637Y-100695114D01*
X53764177Y-100845246D01*
X53814363Y-100902866D01*
X53895079Y-101003351D01*
X53868526Y-101091959D01*
X53748067Y-101153909D01*
X53568684Y-101174655D01*
X53396945Y-101161440D01*
X53280527Y-101128141D01*
X53259217Y-101110521D01*
X53264033Y-101021719D01*
X53315989Y-100939855D01*
X53385299Y-100792092D01*
X53412813Y-100582655D01*
X53398834Y-100362953D01*
X53343665Y-100184397D01*
X53311259Y-100137244D01*
X53250644Y-100030449D01*
X53266009Y-99974153D01*
X53359262Y-99936292D01*
X53525931Y-99905153D01*
X53727918Y-99883597D01*
X53927123Y-99874484D01*
X54085446Y-99880674D01*
X54164788Y-99905028D01*
X54165891Y-99906598D01*
X54245234Y-99935804D01*
X54317082Y-99907835D01*
X54520768Y-99850622D01*
X54714495Y-99882840D01*
G37*
G36*
X36493805Y-99348819D02*
G01*
X36802331Y-99514403D01*
X37060656Y-99754891D01*
X37250043Y-100055078D01*
X37351754Y-100399761D01*
X37363942Y-100571329D01*
X37317843Y-100876557D01*
X37194149Y-101186713D01*
X37014764Y-101458343D01*
X36830590Y-101629405D01*
X36624322Y-101748622D01*
X36488308Y-101774465D01*
X36415431Y-101706151D01*
X36397798Y-101581899D01*
X36387032Y-101402567D01*
X36364098Y-101263468D01*
X36365824Y-101170801D01*
X36448754Y-101103049D01*
X36539213Y-101065907D01*
X36736080Y-100936719D01*
X36847884Y-100734773D01*
X36863140Y-100482949D01*
X36855224Y-100436422D01*
X36814518Y-100225759D01*
X36780660Y-100037774D01*
X36746691Y-99903163D01*
X36686927Y-99859509D01*
X36587443Y-99872579D01*
X36403336Y-99896541D01*
X36151172Y-99907278D01*
X35882829Y-99904789D01*
X35650188Y-99889076D01*
X35546143Y-99872579D01*
X35436088Y-99861104D01*
X35381687Y-99915057D01*
X35352925Y-100037774D01*
X35314456Y-100250413D01*
X35278362Y-100436422D01*
X35275917Y-100694022D01*
X35371507Y-100906113D01*
X35553426Y-101049283D01*
X35592792Y-101065336D01*
X35740385Y-101144732D01*
X35781550Y-101232731D01*
X35715442Y-101320390D01*
X35592620Y-101341340D01*
X35457373Y-101294885D01*
X35392426Y-101238830D01*
X35280787Y-101145581D01*
X35193646Y-101115246D01*
X35141441Y-101133146D01*
X35167856Y-101160496D01*
X35246071Y-101245504D01*
X35305727Y-101340569D01*
X35419311Y-101451775D01*
X35556089Y-101476318D01*
X35684462Y-101493012D01*
X35730975Y-101563653D01*
X35734964Y-101627149D01*
X35699131Y-101748068D01*
X35591907Y-101772008D01*
X35413704Y-101698967D01*
X35302996Y-101629405D01*
X35092996Y-101426579D01*
X34919644Y-101147449D01*
X34804844Y-100835468D01*
X34769643Y-100571329D01*
X34826729Y-100200404D01*
X34987934Y-99866784D01*
X35238184Y-99589003D01*
X35562400Y-99385599D01*
X35801097Y-99303176D01*
X36153815Y-99273342D01*
X36493805Y-99348819D01*
G37*
G36*
X46884568Y-99651686D02*
G01*
X46898455Y-99833721D01*
X46921684Y-99918522D01*
X46967772Y-99929448D01*
X47029014Y-99901321D01*
X47170634Y-99864919D01*
X47357782Y-99861850D01*
X47393772Y-99865782D01*
X47654655Y-99952922D01*
X47855145Y-100120484D01*
X47980306Y-100342803D01*
X48015204Y-100594216D01*
X47954591Y-100829484D01*
X47840725Y-101008058D01*
X47686180Y-101125926D01*
X47470773Y-101190116D01*
X47174322Y-101207651D01*
X46902879Y-101195583D01*
X46662326Y-101172546D01*
X46475281Y-101143287D01*
X46368465Y-101112557D01*
X46353491Y-101097901D01*
X46317360Y-101079837D01*
X46268553Y-101109707D01*
X46155083Y-101154488D01*
X45985038Y-101173987D01*
X45951807Y-101173781D01*
X45727629Y-101180153D01*
X45495199Y-101204308D01*
X45478669Y-101206919D01*
X45290241Y-101219075D01*
X45147470Y-101169373D01*
X45071424Y-101115688D01*
X44979577Y-101030978D01*
X44929609Y-100935499D01*
X44909087Y-100790693D01*
X44905510Y-100601182D01*
X44900414Y-100387146D01*
X44879471Y-100263890D01*
X44834201Y-100201754D01*
X44784845Y-100179168D01*
X44686777Y-100099174D01*
X44664180Y-100024271D01*
X44683313Y-99951160D01*
X44760870Y-99916624D01*
X44927083Y-99907681D01*
X44935676Y-99907671D01*
X45207173Y-99907671D01*
X45207173Y-100386266D01*
X45210428Y-100628764D01*
X45224262Y-100777022D01*
X45254780Y-100857380D01*
X45308083Y-100896179D01*
X45326867Y-100902850D01*
X45466487Y-100905367D01*
X45613446Y-100861190D01*
X45720562Y-100791174D01*
X45774777Y-100687093D01*
X45798202Y-100506100D01*
X45798423Y-100502732D01*
X45803249Y-100330314D01*
X45777578Y-100240809D01*
X45705214Y-100197315D01*
X45658666Y-100184308D01*
X45537168Y-100120012D01*
X45520452Y-100041264D01*
X45569433Y-99971195D01*
X45698940Y-99932115D01*
X45826124Y-99919449D01*
X46112161Y-99901060D01*
X46112161Y-100372513D01*
X46116986Y-100621531D01*
X46135128Y-100777442D01*
X46172083Y-100867549D01*
X46220726Y-100911767D01*
X46343316Y-100946918D01*
X46431890Y-100904545D01*
X46481467Y-100847139D01*
X46512520Y-100746689D01*
X46528875Y-100578981D01*
X46529675Y-100541163D01*
X46896484Y-100541163D01*
X46945817Y-100739920D01*
X47073914Y-100873407D01*
X47250923Y-100928915D01*
X47446991Y-100893733D01*
X47560999Y-100824097D01*
X47670307Y-100671296D01*
X47686100Y-100494527D01*
X47621307Y-100326655D01*
X47488860Y-100200542D01*
X47301687Y-100149050D01*
X47295386Y-100149002D01*
X47089426Y-100201029D01*
X46948174Y-100340815D01*
X46896484Y-100541163D01*
X46529675Y-100541163D01*
X46534360Y-100319799D01*
X46534489Y-100255291D01*
X46532200Y-99985088D01*
X46521740Y-99809056D01*
X46497719Y-99700737D01*
X46454746Y-99633668D01*
X46398740Y-99588954D01*
X46313881Y-99495301D01*
X46339780Y-99415935D01*
X46466594Y-99361114D01*
X46635829Y-99341770D01*
X46866318Y-99334512D01*
X46884568Y-99651686D01*
G37*
%TO.C,C5*%
D11*
X122186248Y-95610000D02*
X123608752Y-95610000D01*
X122186248Y-97430000D02*
X123608752Y-97430000D01*
%TO.C,R1*%
X67670000Y-61782936D02*
X67670000Y-63237064D01*
X69490000Y-61782936D02*
X69490000Y-63237064D01*
%TO.C,U1*%
X49440000Y-53455000D02*
X49440000Y-54405000D01*
X49440000Y-63855000D02*
X49440000Y-62905000D01*
X50805000Y-53455000D02*
X49440000Y-53455000D01*
X50805000Y-63855000D02*
X49440000Y-63855000D01*
X46615000Y-54445000D02*
X46275000Y-53975000D01*
X46955000Y-53975000D01*
X46615000Y-54445000D01*
G36*
X46615000Y-54445000D02*
G01*
X46275000Y-53975000D01*
X46955000Y-53975000D01*
X46615000Y-54445000D01*
G37*
%TO.C,R4*%
X113390000Y-67852936D02*
X113390000Y-69307064D01*
X115210000Y-67852936D02*
X115210000Y-69307064D01*
%TO.C,C7*%
X125171252Y-80370000D02*
X123748748Y-80370000D01*
X125171252Y-82190000D02*
X123748748Y-82190000D01*
%TO.C,R7*%
X67670000Y-55152936D02*
X67670000Y-56607064D01*
X69490000Y-55152936D02*
X69490000Y-56607064D01*
%TO.C,R2*%
X123732936Y-85450000D02*
X125187064Y-85450000D01*
X123732936Y-87270000D02*
X125187064Y-87270000D01*
%TO.C,C12*%
X103230000Y-89166248D02*
X103230000Y-90588752D01*
X105050000Y-89166248D02*
X105050000Y-90588752D01*
%TO.C,U5*%
X72840000Y-44995000D02*
X72840000Y-51155000D01*
X72840000Y-44995000D02*
X91080000Y-44995000D01*
X72840000Y-69955000D02*
X72840000Y-70735000D01*
X72840000Y-70735000D02*
X73840000Y-70735000D01*
X91080000Y-44995000D02*
X91080000Y-51410000D01*
X91080000Y-69955000D02*
X91080000Y-70735000D01*
X91080000Y-70735000D02*
X90080000Y-70735000D01*
X72835000Y-51880000D02*
X72335000Y-51880000D01*
X72835000Y-51380000D01*
X72835000Y-51880000D01*
G36*
X72835000Y-51880000D02*
G01*
X72335000Y-51880000D01*
X72835000Y-51380000D01*
X72835000Y-51880000D01*
G37*
%TO.C,C9*%
X105770000Y-94246248D02*
X105770000Y-95668752D01*
X107590000Y-94246248D02*
X107590000Y-95668752D01*
%TO.C,J1*%
X95190000Y-52230000D02*
X95190000Y-54450000D01*
X113300000Y-52230000D02*
X95190000Y-52230000D01*
X113300000Y-52230000D02*
X113300000Y-54450000D01*
X113300000Y-54450000D02*
X95190000Y-54450000D01*
X114300000Y-52230000D02*
X115410000Y-52230000D01*
X115410000Y-52230000D02*
X115410000Y-53340000D01*
%TO.C,U4*%
X49440000Y-66155000D02*
X49440000Y-67105000D01*
X49440000Y-76555000D02*
X49440000Y-75605000D01*
X50805000Y-66155000D02*
X49440000Y-66155000D01*
X50805000Y-76555000D02*
X49440000Y-76555000D01*
X46615000Y-67145000D02*
X46275000Y-66675000D01*
X46955000Y-66675000D01*
X46615000Y-67145000D01*
G36*
X46615000Y-67145000D02*
G01*
X46275000Y-66675000D01*
X46955000Y-66675000D01*
X46615000Y-67145000D01*
G37*
%TO.C,C8*%
X125171252Y-87990000D02*
X123748748Y-87990000D01*
X125171252Y-89810000D02*
X123748748Y-89810000D01*
%TO.C,TP2*%
X55175000Y-82550000D02*
G75*
G02*
X52775000Y-82550000I-1200000J0D01*
G01*
X52775000Y-82550000D02*
G75*
G02*
X55175000Y-82550000I1200000J0D01*
G01*
%TO.C,C1*%
X115930000Y-89811248D02*
X115930000Y-91233752D01*
X117750000Y-89811248D02*
X117750000Y-91233752D01*
%TO.C,R5*%
X123732936Y-82910000D02*
X125187064Y-82910000D01*
X123732936Y-84730000D02*
X125187064Y-84730000D01*
%TO.C,C2*%
X110850000Y-89811248D02*
X110850000Y-91233752D01*
X112670000Y-89811248D02*
X112670000Y-91233752D01*
%TO.C,TP6*%
X41840000Y-80010000D02*
G75*
G02*
X39440000Y-80010000I-1200000J0D01*
G01*
X39440000Y-80010000D02*
G75*
G02*
X41840000Y-80010000I1200000J0D01*
G01*
%TO.C,U6*%
X111667500Y-80110000D02*
X116287500Y-80110000D01*
X116287500Y-86880000D02*
X111667500Y-86880000D01*
X117837500Y-86425000D02*
X118167500Y-86185000D01*
X118167500Y-86665000D01*
X117837500Y-86425000D01*
G36*
X118167500Y-86665000D02*
G01*
X117837500Y-86425000D01*
X118167500Y-86185000D01*
X118167500Y-86665000D01*
G37*
%TO.C,C10*%
X105770000Y-89166248D02*
X105770000Y-90588752D01*
X107590000Y-89166248D02*
X107590000Y-90588752D01*
%TO.C,C4*%
X110850000Y-76971252D02*
X110850000Y-75548748D01*
X112670000Y-76971252D02*
X112670000Y-75548748D01*
%TO.C,C6*%
X122186248Y-98150000D02*
X123608752Y-98150000D01*
X122186248Y-99970000D02*
X123608752Y-99970000D01*
%TO.C,R3*%
X110850000Y-67852936D02*
X110850000Y-69307064D01*
X112670000Y-67852936D02*
X112670000Y-69307064D01*
%TO.C,J2*%
X136050000Y-86820000D02*
X136050000Y-82710000D01*
X138270000Y-82710000D02*
X136050000Y-82710000D01*
X138270000Y-86820000D02*
X136050000Y-86820000D01*
X138270000Y-86820000D02*
X138270000Y-82710000D01*
X138270000Y-87820000D02*
X138270000Y-88930000D01*
X138270000Y-88930000D02*
X137160000Y-88930000D01*
%TO.C,TP1*%
X38665000Y-58420000D02*
G75*
G02*
X36265000Y-58420000I-1200000J0D01*
G01*
X36265000Y-58420000D02*
G75*
G02*
X38665000Y-58420000I1200000J0D01*
G01*
%TO.C,R6*%
X115930000Y-67852936D02*
X115930000Y-69307064D01*
X117750000Y-67852936D02*
X117750000Y-69307064D01*
%TD*%
M02*
