M48
; DRILL file KiCad 10.0.6 date 2026-10-06T19:06:10
; FORMAT={-:-/ absolute / metric / decimal}
; #@! TF.CreationDate,2026-10-06T19:06:10-03:00
; #@! TF.GenerationSoftware,Kicad,Pcbnew,10.0.6
; #@! TF.FileFunction,Plated,1,2,PTH
FMAT,2
METRIC
; #@! TA.AperFunction,Plated,PTH,ComponentDrill
T1C0.200
; #@! TA.AperFunction,Plated,PTH,ViaDrill
T2C0.300
; #@! TA.AperFunction,Plated,PTH,ComponentDrill
T3C0.500
; #@! TA.AperFunction,Plated,PTH,ComponentDrill
T4C0.800
; #@! TA.AperFunction,Plated,PTH,ComponentDrill
T5C1.000
; #@! TA.AperFunction,Plated,PTH,ComponentDrill
T6C2.500
%
G90
G05
T1
X79.755Y-59.182
X79.755Y-60.707
X80.517Y-58.42
X80.517Y-59.945
X80.517Y-61.47
X81.28Y-59.182
X81.28Y-60.707
X82.042Y-58.42
X82.042Y-59.945
X82.042Y-61.47
X82.805Y-59.182
X82.805Y-60.707
T2
X71.12Y-67.31
X71.12Y-72.39
X74.876Y-69.161
X74.93Y-74.295
X77.47Y-71.755
X77.47Y-73.66
X89.535Y-70.485
X93.345Y-69.85
X96.52Y-59.69
X96.52Y-68.58
X97.79Y-59.69
X97.79Y-68.58
X100.33Y-59.69
X100.33Y-68.58
X100.454Y-71.244
X102.235Y-59.69
X102.235Y-68.58
X104.14Y-59.69
X104.14Y-64.135
X105.41Y-66.675
X106.045Y-59.69
X106.68Y-67.31
X107.95Y-59.69
X109.22Y-60.325
X113.03Y-76.2
X113.03Y-80.01
X114.3Y-76.2
X114.3Y-80.01
X114.3Y-81.28
X115.57Y-76.2
X118.11Y-83.82
X118.11Y-86.36
X119.38Y-95.25
X119.38Y-97.79
T3
X29.24Y-55.88
X29.24Y-98.425
X29.789Y-54.554
X29.789Y-57.206
X29.789Y-97.099
X29.789Y-99.751
X31.115Y-54.005
X31.115Y-57.755
X31.115Y-96.55
X31.115Y-100.3
X32.441Y-54.554
X32.441Y-57.206
X32.441Y-97.099
X32.441Y-99.751
X32.99Y-55.88
X32.99Y-98.425
X132.745Y-55.245
X132.745Y-98.425
X133.294Y-53.919
X133.294Y-56.571
X133.294Y-97.099
X133.294Y-99.751
X134.62Y-53.37
X134.62Y-57.12
X134.62Y-96.55
X134.62Y-100.3
X135.946Y-53.919
X135.946Y-56.571
X135.946Y-97.099
X135.946Y-99.751
X136.495Y-55.245
X136.495Y-98.425
T4
X96.3Y-53.34
X98.3Y-53.34
X100.3Y-53.34
X102.3Y-53.34
X104.3Y-53.34
X106.3Y-53.34
X108.3Y-53.34
X110.3Y-53.34
X112.3Y-53.34
X114.3Y-53.34
X137.16Y-83.82
X137.16Y-85.82
X137.16Y-87.82
T5
X38.1Y-53.34
X40.64Y-53.34
T6
X31.115Y-55.88
X31.115Y-98.425
X134.62Y-55.245
X134.62Y-98.425
M30
